<?xml version="1.0" encoding="UTF-8"?>
<svg id="Layer_2" data-name="Layer 2" xmlns="http://www.w3.org/2000/svg" viewBox="0 0 84.1 101.2">
  <defs>
    <style>
      .cls-1 {
        opacity: .8;
      }

      .cls-1, .cls-2 {
        fill: #fbb03b;
      }
    </style>
  </defs>
  <g id="Layer_1-2" data-name="Layer 1">
    <path class="cls-1" d="M14.49,95.68c0,1.94-1.71-2.05-1.86-2.2-.37-.37-2.49.88-2.51-1.27.3.21-.04-.85-.02-.98.09-.45.88-.97.45-1.53.46.32.19-.16.27-.23.09-.09.31-.01.37-.05,2.8-2.29,9.53-1.55,13.43-1.92,5.82-.57,11.57-2,17.42-2.15-2.47-1.18-5.04-2.18-7.53-3.34.26-.31.78.3,1.37.34.12.01.2.1.34-.03-.04-.12-.23-.07-.29-.11-.33-.21-.22,0-.42-.11-.04-.03.42-.03.13-.24-1.03-.45-2.19-.59-3.22-.96-1.94-.92-3.08-1.31-4.91-1.99-.2-.08-.82-.49-1.33-.74-.02-.01-.07-.03-.12-.05h-.01c-3.35-1.42-6.74-2.69-10.09-4.14-.91-.21-6.67-3.67-7.03-3.52-.09.04,1.31,1.03,1.55,1.2-1.66-.85-5.46-2.44-6.44-3.8.36.12.53.16.57.16-.1-.1-.64-.38-.8-.67-.18.07.16.42.23.51-.91-.3-1.86-1.44-2.22-1.54-.27-.07-.84.64-.78.01,0-.04.47-.15.29-.69-.15-.42-.52-.49-.57-.69-.05-.21.15-.99-.12-1.35l.34.21c.01-.34-.99-1.04-1-1.11-.01-.15.62.21.69-.08.02-.08-.31-.29-.29-.35.02-.04.41-.65.44-.67.3-.16.46.26.52.11.01-.03-.16-.36-.03-.47.1-.07.19.33.48.14.02-.02-.02-.51.12-.54.27-.05,4.53,1.51,5.2,1.7,7.23,2.05,14.25,4.78,21.01,7.18,4.26,1.52,8.52,3.07,12.87,4.36-.07-.57.2.13.49-.11-3.02-2.81-6.35-5.32-9.41-8.1-4.1-3.75-8.78-8.14-12.47-12.26-3.68-4.09-6.69-8.51-9.89-13.05-.24.32.44.55.46.76,0,.01-.2-.01-.22.04-.05.12.02.29.01.29-.29.19-.84-.86-.85-1.19,0-.05.29-.48.25-.81-.12-1.32-.84-1.9-.98-2.54-.01-.04.09-.78.1-.82.02-.07.35-.12.4-.32.04-.22-.09-1.01-.07-1.05.01-.07.32.01.34-.04.01-.02-.14-.21-.1-.29,1.85-3.11,3.48.18,5.14,1.49.04.04.16-.26.26-.19.03.03.22.54.47.73.31.23.71.48,1.04.7.02,0,.12-.19.14-.19,3.13,2.13,6.44,4.18,9.64,6.3.48.32,1.15.99,1.59,1.29.02,0,.14-.2.15-.2l4.09,3.1s.12-.18.14-.18c.91.65,1.76,1.47,2.65,2.13,2.37,1.76,4.66,3.48,7.1,5.11.63.43,1.25.98,1.79,1.52l.05-.38.43.65.05-.26c.54-.02.21,1.23.57.29-2.34-3.97-3.69-8.42-5.58-12.58-.69-1.52-1.45-3.07-2.24-4.62.02-.01.04-.01.04-.02,0-.13-.55-1.2-.66-1.45-.03-.07.09-.26-.22-.21l.13.29c-1.22-2.36-2.48-4.75-3.68-7.13l.04-.02-.1-.2-.04.02c-.88-1.75-1.73-3.49-2.48-5.23-.22-.51-.89-1.13-.89-1.22,0-.03.31-.08.27-.2-.26-.98-1.18-1.9-.45-2.93.22-.3.78-.49.88-.64.31-.51-.69-.31.68-1.23.05-.04-.02-.22.02-.24.25-.09,1,.08,1.03,0,.01-.02-.27-.51-.03-.59.07,0,.65.32.84.33.14.01.29-.34.6-.27.18.04.76.97.68.07l-.21.22-.36-.68.29.35v-.48c.08.22.31.29.44.41-.24.21.13.29.14.3.1.11.15.1.1-.04,2.09,2.2,4.05,4.53,5.77,7.04l.11-.29c.32.67.56,1.31.29.11.27,1.38,1.47,1.88,2.12,3.02l.11-.29,4.23,5.85h-.04s.04.09.04.09v-.05s8.99,12.42,8.99,12.42c-.19-.84.78.16.77.62.18-.04-.01-.42.15-.44.04,0,.07.38.24.25-.1-.2-.2-.4-.22-.62-1.05-10.21-1.74-20.59-2.59-30.71-.19-2.22-.21-6.81-.67-8.65-.15-.63-.43-.92-.71-1.47h.25c-.03-.09-.12-.2-.14-.29-.02-.14-.05-.29-.08-.43v-.02c-.04-.2.02-.43-.18-.64l.37.31c-.73-.89.38-1.09.82-1.74.18-.24.02-.49.12-.64.16-.25,1.14-1.57,1.04-.71.16-1.01.37-.53.43-.56.48-.26,2.23-.78,2.52-.55.81.65.88,2.91,1.26,3.96,2.05,5.57,5.34,10.94,6.96,16.8.03.11.12.42.27.31l-.02-.3c.08.7.37,1.32.55,1.99.02.08-.1.45.19.41.12.4.27.8.35,1.01.52,1.47,1.08,2.91,1.73,4.33l-.33-.21c.46.99.62,1.92,1.23,2.7l-.37-.31c.52.58.62,1.31.81,2.05.02.08-.1.44.19.4.03.13.14.26.18.41l-.22.03c.1.04.27.13.3.23.14.47.32.93.48,1.42,0,.04.03.12.07.19.27.82.52,1.67.54,2.51l2.03,4.45-.29-.1c.85,2.29,1.53,4.7,2.66,6.89l-.29-.11c.38,1.29.99,2.43,1.35,3.75.13.47,0,1.32.48,1.59-.45-.49-.11-.75-.12-.79.24.8.55,1.08.74,1.59.01.02-.32.09-.29.2.41,1.08,1.16,2.01,1.45,3.15l-.59-1.31c.24,1.62,1.3,3.05,1.86,4.59l-.31-.15,1.36,2.7-.52-.85,2.14,4.41-.36-.25c.68,1.07,1.45,2.13,1.16,3.46-.31-.36-.08.2-.65.05.52.78-.1.46-.35.78-.03.03.13.27.12.29-.22.19-1.6.37-1.6.74l-.09-.2.03.35c-.77-.91-.96-.23-1.73-.32-.81-.1-.77-1.08-1.16-1.68-.2-.32-.66-.63-.91-1.07-3.08-5.34-5.14-11.81-7.12-17.61l.47.51c-.71-1.66-1.05-3.47-1.65-5.15-1.07-2.98-2.41-6.19-3.44-9.15-1.21-3.49-2.18-7.09-3.4-10.58l-.2.1c-.33-1.05-.88-2.04-1.27-3.07-.02-.07.24.01.2-.08-.27-.68-.58-1.46-1.13-1.97-.08.36.87,1.48.82,1.56-.04.07-.35-.14-.38-.07-.12.3,1.44,4.02,1.64,4.64.14.46.1.81.18,1.19-.02.02-.1.03-.1.05-.49-1.23-.81-2.6-1.26-3.85-.09-.22-.44-1.3-.74-1.05.07.16.22.36.22.54.09,3.51.42,7.31.74,10.74.3,3.33.44,6.77,1.27,9.99l-.29-.1.45,1-.34-.21c.26.51.37,1.08.46,1.63.08.42-.19.52-.19.55.03.19.26-.1.32.15.08.4-.05.81.04,1.27.18.81.41,1.71.66,2.64-.03-.09-.1-.23-.12-.24-.21-.12.09.52.14.31.41,1.44.88,2.89,1.35,4.03.22.54.7,1.2.98,1.85.04.1.2-.1.27.07,0,.01-.22.07-.18.16.57,1.33,1.56,3.16.75,4.59-.86,1.47-1.84,1.58-3.26,1.92-.02.01.07.37-.3.38-.05,0-.95-.46-1.04-.46-.29,0-.65.35-.84.36-.13,0-.14-.26-.2-.27-.42-.07-.05.43-.73-.29-2.03-2.12-3.44-5.96-5.19-8.41,1.26,2.82,2.93,5.57,4.78,8.05.02.48-.67-.55-.69-.59-3.01-4.27-5.41-9.31-8.52-13.58-1.26-1.05-7.56-11.47-8.27-11.56-.11-.02-.18.82-.33-.21.12,1.9,1.38,3.65,2.12,5.4.07.16-.16.21-.09.38,1.36,3.19,3.01,6.26,4.34,9.46l3.73,6.54.1-.29c.08.19.15.37.25.55l-.07-.03.04.1.02-.07c.64,1.22,1.63,2.08,2.23,3.27l.15-.19.27.59-.33-.21c.49.77-.12.73-.13.79,0,.03.38.37.12.67l-.23-.13c.7.99-.21.97-.66,1.46-.56.63-.37,1.2-1.6,1.15-.14-.01-2.35-1.01-2.46-1.09-.14-.09-.16-.42-.26-.49-7.35-4.9-14.23-10.45-21.68-15.14-.14-.09-.18-.43-.24-.47-.01,0-.11.18-.14.18-.29-.15-.8-.79-.84-.21-.11-.82-.84-.84-1.44-1.15.44.6-.15-.03-.26.35.49-.09,1.05.85,1.44,1.29-.16.16.01.07.04.1.42.48.89.93,1.18,1.53l.11-.3,1.27,1.71.05-.38c.33.71,1.1,1.59,1.71,2.22,4.75,4.82,10.48,9.77,15.7,14.13.46.38.91.89,1.35,1.34l-.1.05.09.2.1-.04-.09-.21c.22.23.44.44.66.62.09.08.21-.22.26-.19.07.07-.02.36.18.52.51.41,1.2.65,1.7,1.04.04.03.38.66.69.89.02,0,.12-.16.15-.16.59.46,1.14,1.02,1.74,1.47.75.56,1.94.84,1.92,1.74l.18-.14c.6.46.05,1.18.09,1.23s.87-.13.43.66c-.23.42-.63.41-.77.59-.18.22-.44.85-.47.88-.24.22-.59.15-.76.24-.01.01.05.4-.08.38-.02,0-.1-.3-.34-.32-.9-.09-2.01-.02-2.78-.13-2.35-.37-4.99-1.25-7.24-2.08-.32.75-.11-.42-.51.23-.07-.6-1-.42-1.34-.55-.41-.15-1.41-.91-1.77-.44.35.07,1.6.34,1.01.63.33-.19.55-.03.73.26-.26-.54.45-.26.59-.14.07.05.55,1.66.4.18l.38.07c-.35.6.05.96.34.21-.21.82.92.68,1.24.85.96.52,1.93,1.15,2.97,1.71.01,0,.12-.19.14-.19.29.15,2.19,1.33,2.24,1.45.07.12-.27.1-.25.24.32.23.27-.25.38-.23.24.03.52.69.56.7.09.02.53-.31.74-.33,1.77-.14,3.56-.69,5.31-.36.09.01.16.26.19.26.03.01.2-.25.25-.23.08.02,1.25.86,1.27.92.02.04-.15.14-.15.29,0,.23.19.47.19.6-.01.05-.43.12-.41.4.01.27.66.87-.07,1.63-.04.04-.37.33-.74.64h-.05s.02.03.02.03c-.4.35-.82.71-.91.78-1.57,1.22-1.77.38-3.38.4-1.57.02-3.77.71-5.48.88-3.18.3-6.56-.21-9.74.02-2.19.16-4.36.51-6.49,1.04,1.16.11,2.56,1.03,3.58,1.26,3.25.76,7.64,1.13,11.09,1.71.18.03.4-.18.42-.18.02.01.07.24.21.26,1.74.31,3.6.54,5.43.78l.04.1.02-.07-.07-.03c1.55.22,3.07.44,4.45.73.57.12,4.1,1.09,4.1,1.42,0,.02-.31.12-.31.14.02.1.34.11.35.41.03,1.13-1.21,2.2-2.21,2.47-.26.08-4.94-.44-5.62-.52-6.1-.65-12.19-2.09-18.34-2.8-.31-.03-.16-.32-.27-.34-.02,0-.13.29-.43.25-5.57-.62-11.25-1.12-16.85-1.41-1.26-.07-2.02.65-2.43-.7ZM6.36,69.12l2.44,1.4c-.58-.76-1.59-.97-2.44-1.4ZM74.33,45.36l-.36-.79-.1.04.36.8.1-.05ZM71.37,36.91l.02-.08-.08-.02.05.1ZM65.44,58.77c-.21-.12.1.53.14.3,0-.02-.12-.3-.14-.3ZM61.68,66.55l.02-.08-.08-.02.05.1ZM61.47,25.09l.03-.08-.08-.02.04.1ZM60.5,23.23l.02-.08-.07-.02.04.1ZM60.43,25.44l.02-.07-.07-.03.04.1ZM60.28,23.82l.02-.08-.07-.02.04.1ZM55.81,80.86l-.09-.2-.1.04.09.2.1-.04ZM53.68,3.57l.03-.07-.08-.03.04.1ZM55.09,57.57c-.6-.9-1.15-2.01-1.98-2.74.68.88,1.15,1.98,1.98,2.74ZM52.99,62.65l.02-.08-.07-.02.04.1ZM50.55,84.97l-.05-.1-.2.09.04.1.21-.09ZM49.67,84.77l.02-.08-.08-.03.05.11ZM48.17,83.63l.03-.07-.08-.03.04.1ZM44.27,85.42l.02-.08-.08-.02.05.1ZM43.44,85.19l.03-.07-.08-.03.04.1ZM42.42,84.81l-.04-.1-.14-.05.12.12.07.03ZM42.26,80.64l-.09-.2-.1.04.09.2.1-.04ZM42.13,74.65l.02-.08-.08-.02.05.1ZM42.13,39.88l-.09-.21-.1.05.09.2.1-.04ZM41.59,84.34c-.01.26.3.38.29.23s-.15-.2-.29-.23ZM41.61,73.91c-.02.22.12.56.23.25.01-.01-.1-.37-.23-.25ZM41.43,73.4l.03-.08-.08-.03.04.11ZM41.39,84.43c.02-.13-.4-.36-.43-.29-.05.13.32.26.43.29ZM40.87,84.07l.02-.07-.07-.03.04.1ZM40.67,79.8c-.21-.12.1.53.13.3,0-.04-.12-.3-.13-.3ZM40.63,84.05c.27-.33-.53-.25-.56-.27-.43-.16-3.31-1.53-3.48-1.46-.79.32.34.24.4.26.01,0-.03.2,0,.21.2.09.81.13.91.18.1.03.19.25.25.29.02,0,.13-.19.14-.19.21.08,2.12,1.24,2.34.99ZM39.8,72.08c.09.14.11.47.27.35-.09-.13-.11-.46-.27-.35ZM40,79.25s.03-.1,0-.12c-.01,0-.23.05-.18.14.07.21.11.19.18-.02ZM39.02,78.98l.02-.08-.07-.02.04.1ZM38.12,70.67l.03-.08-.08-.03.04.11ZM37.5,70.1l-.04-.1-.15-.05.12.13.08.02ZM37.11,78.52l.03-.08-.08-.02.04.1ZM36.53,78.3l-.04-.1-.14-.04.12.12.07.02ZM36.16,97.6l-.04-.1-.15-.04.12.12.08.02ZM34.89,97.34c.1.18,1.37.21.84-.01-.03-.02-.7.01-.84.01ZM34.27,97.32c-.01.05.52.37.47-.03-.12.1-.45-.09-.47.03ZM34.12,19.32l.02-.08-.07-.02.04.1ZM34,97.26l-.04-.1-.2.09.04.1.2-.09ZM33.76,93.14l.02-.08-.08-.02.05.1ZM33.64,97.39l.03-.18-.77-.15-.03.16.77.16ZM33.53,66.59c-.21-.12.11.53.14.3,0-.02-.12-.29-.14-.3ZM33.56,77.11l.03-.07-.08-.03.04.1ZM33,66.23l-.09-.21-.1.05.09.2.1-.04ZM32.77,97.22l-.09-.2-.1.04.1.2.09-.04ZM32.49,30.6l.03-.07-.08-.03.04.1ZM32.53,97.21l-.09-.2-.1.04.09.2.1-.04ZM32.33,65.68l.03-.07-.08-.03.04.1ZM32.23,97.23c.09-.04-.03-.22-.04-.23-.31-.07-.13.3.04.23ZM31.35,97.02c.13.09.4.25.54.12-.14-.13-.36-.23-.54-.12ZM31.22,92.24l-.04-.1-.2.09.04.1.2-.09ZM31.1,97.13c.03-.14-.24-.14-.33-.2-.03.14.24.14.33.2ZM30.82,92.3l.03-.07-.08-.03.04.1ZM30.57,63.95l.02-.07-.08-.03.05.1ZM30.36,97.11c.13-.18-.46-.33-.49-.33-.21-.01-.43.09-.63.12l1.12.21ZM29.52,62.98l.02-.08-.07-.02.04.1ZM29.13,96.94l-.09-.2-.1.04.1.2.09-.04ZM28.92,45.8l.02-.08-.07-.02.04.1ZM28.89,62.42l.03-.08-.08-.03.04.11ZM28.69,96.91l.03-.08-.08-.02.04.1ZM28.66,62.15l.02-.07-.07-.03.04.1ZM28.42,61.9l.03-.07-.08-.03.04.1ZM28.39,96.92l-.09-.2-.1.04.09.2.1-.04ZM28.17,61.65l.03-.08-.08-.02.04.1ZM28.05,96.96c.19-.03-.01-.31-.04-.33-.07-.02-.34.04-.44.08l.48.25ZM27.8,61.22l-.1-.2-.09.04.09.2.1-.04ZM27.32,60.84l.03-.08-.08-.02.04.1ZM27.08,96.68l-.09-.2-.1.04.09.2.1-.04ZM26.79,60.34l-.09-.2-.1.04.09.2.1-.04ZM25.58,96.58c.08.03,1.58.22,1.05-.07-.04-.02-.93-.03-1.05.07ZM25.93,59.53l-.09-.2-.1.04.09.2.1-.04ZM25.41,96.59l.02-.07-.07-.03.04.1ZM24.82,96.38c.02.1.2.33.29.23-.03-.16-.14-.2-.29-.23ZM24.79,58.47l.02-.07-.07-.03.04.1ZM24.67,50.42c-.21-.12.1.53.14.3,0-.02-.12-.29-.14-.3ZM24.42,96.44l-.04-.1-.2.09.04.1.2-.09ZM24.12,57.81l.03-.08-.08-.02.04.1ZM24.08,96.47s-.11-.08-.16-.1c-.31-.04.09.37.16.1ZM23.68,96.42l-.04-.1-.2.09.04.1.2-.09ZM23.34,96.45l-.1-.2-.09.04.09.2.1-.04ZM23.04,96.46l-.04-.1-.15-.04.12.12.08.02ZM22.07,96.31c.03.16.66.07.54-.12-.16.08-.36.07-.54.12ZM21.53,96.2c-.09.24.42.23.34-.04-.08.08-.33,0-.34.04ZM21.41,55.06l.03-.07-.08-.03.04.1ZM21.27,96.31l.02-.08-.07-.02.04.1ZM21.26,54.88l-.09-.2-.1.04.09.2.1-.04ZM20.3,96.15c.03.16.66.07.54-.13-.16.08-.36.07-.54.13ZM20.79,54.5l.02-.08-.08-.02.05.1ZM20.32,53.86l-.1-.2-.1.04.1.21.1-.05ZM19.8,96.13l-.04-.1-.2.1.04.09.2-.09ZM19.5,53.02l.03-.08-.08-.02.04.1ZM19.26,96.14l-.05-.1-.14-.05.12.12.08.03ZM18.85,52.23l-.1-.2-.1.04.1.2.1-.04ZM18.77,96.12l.02-.07-.07-.03.04.1ZM18.6,51.98l-.09-.2-.1.04.09.2.1-.04ZM18.23,95.89c-.21-.12.1.53.14.3,0-.02-.12-.3-.14-.3ZM17.79,95.85c.02.1.2.33.29.23-.03-.16-.14-.2-.29-.23ZM17.7,50.94l.03-.07-.08-.03.04.1ZM17.19,50.21c.11.13.16.64.37.55-.11-.13-.15-.64-.37-.55ZM17.49,95.98l.02-.07-.08-.03.05.1ZM17,49.91l-.46-.65-.14.1.46.65.14-.1ZM16.9,96.01l.02-.08-.08-.02.05.1ZM16.38,49.24l-.1-.2-.09.04.09.2.1-.04ZM15.91,48.48c-.21-.11.11.54.14.31,0-.02-.12-.3-.14-.31ZM15.63,48.13c-.21-.12.11.54.14.3,0-.02-.12-.29-.14-.3ZM15.35,47.78c-.22-.12.1.53.13.3,0-.02-.12-.29-.13-.3ZM15.26,96.27l-.1-.2-.1.04.1.2.1-.04ZM14.78,47.07c-.21-.12.1.54.14.31,0-.03-.12-.3-.14-.31ZM14.65,46.65l.03-.08-.08-.02.04.1ZM14.54,46.81l-.09-.2-.1.04.1.2.09-.04ZM11.81,42.98l-.09-.21-.1.05.09.2.1-.04ZM10.89,90.03l.03-.07-.08-.03.04.1ZM4.71,68.21l.79.55c-.07-.29-.24-.34-.45-.46-.09-.04-.27-.22-.34-.09ZM3.49,67.25l.02-.07-.07-.03.04.1ZM2.77,66.62l-.04-.1-.2.1.04.09.2-.09Z"/>
    <path class="cls-2" d="M56.49,29.77s.1.18.13.27c-.22-.01-.12-.25-.13-.27Z"/>
  </g>
</svg>