<?xml version="1.0" encoding="UTF-8"?>
<svg id="Layer_2" data-name="Layer 2" xmlns="http://www.w3.org/2000/svg" viewBox="0 0 959.76 72.47">
  <defs>
    <style>
      .cls-1 {
        fill: #fbb03b;
      }
    </style>
  </defs>
  <g id="Layer_1-2" data-name="Layer 1">
    <g>
      <path class="cls-1" d="M921.27,0c.5.87-.35,1.26-.87,1.28l.48-1.28h.39Z"/>
      <path class="cls-1" d="M312.76,6.36l-11.82-.08-11.51-.56c7.74-.24,15.56.12,23.33.64Z"/>
      <polygon class="cls-1" points="315.1 6.32 336.68 6.67 336.67 7.25 315.09 6.91 315.1 6.32"/>
      <path class="cls-1" d="M365.64,6.87c.04.7.02.39-.27.47-.24.06-2.49.05-2.95.05-2.91-.03-5.93-.31-8.83-.52h12.05Z"/>
      <path class="cls-1" d="M373.81,7.12c-.17.83-.87.25-1.07.25h-6.9s0-.25,0-.25h7.97Z"/>
      <path class="cls-1" d="M460.71,10.43c.09.83-.15.36-.42.44-1.08.31-3.77-.51-5.03-.32l5.44-.13Z"/>
      <rect class="cls-1" x="339.4" y="6.87" width="5.83" height=".25"/>
      <rect class="cls-1" x="346.2" y="6.87" width="4.08" height=".25"/>
      <path class="cls-1" d="M398.11,8.14c-.67.91-2.09-.04-2.91.25.76-.79,2.04-.08,2.91-.25Z"/>
      <path class="cls-1" d="M454.2,10.17c.12.02.57.24.68.38-.13.38-.57-.13-.68-.13h-3.4c-.09-.99.29-.25.49-.25.89,0,2.08-.14,2.92,0Z"/>
      <path class="cls-1" d="M432.91,9.16c.19.81-1.84.39-2.14.12l2.14-.12Z"/>
      <rect class="cls-1" x="445.74" y="9.92" width="2.92" height=".25"/>
      <rect class="cls-1" x="439.17" y="8.98" width=".51" height="1.36" transform="translate(429.34 449.08) rotate(-89.95)"/>
      <rect class="cls-1" x="399.34" y="7.1" width=".26" height="2.33" transform="translate(391.05 407.73) rotate(-89.98)"/>
      <rect class="cls-1" x="463.89" y="9.64" width=".26" height="2.33" transform="translate(453.03 474.82) rotate(-89.98)"/>
      <rect class="cls-1" x="419.37" y="8.06" width=".26" height="1.94" transform="translate(410.27 428.52) rotate(-89.97)"/>
      <rect class="cls-1" x="383.5" y="6.88" width=".26" height="1.75" transform="translate(375.66 391.38) rotate(-89.97)"/>
      <rect class="cls-1" x="442.6" y="8.92" width=".26" height="1.75" transform="translate(432.69 452.51) rotate(-89.97)"/>
      <path class="cls-1" d="M413.47,8.9c-.25-.06-.83.1-.97,0-.5-.37.74-.97.97,0Z"/>
      <polygon class="cls-1" points="461.1 10.42 461.88 10.43 461.88 10.94 461.1 10.93 461.1 10.42"/>
      <rect class="cls-1" x="337.71" y="6.22" width=".26" height="1.55" transform="translate(330.62 344.83) rotate(-89.96)"/>
      <path class="cls-1" d="M314.12,6.36c0,.54-1.23.51-1.16.12.05-.28.93-.06,1.16-.12Z"/>
      <path class="cls-1" d="M194.56,11.95c-.45-.33-1.42.69-1.36-.51l1.36.51Z"/>
      <rect class="cls-1" x="468.3" y="10.42" width=".37" height="1.16" transform="translate(456.99 479.48) rotate(-89.94)"/>
      <path class="cls-1" d="M430.58,9.16c-.1.56-1.03.12-1.36.25.07-.55,1.02-.13,1.36-.25Z"/>
      <path class="cls-1" d="M444.77,9.66c.49.57-.78.71-.78.12,0-.21.75-.16.78-.12Z"/>
      <path class="cls-1" d="M41.37,19.33c.52.67-1.1.67-.58,0,.02-.03.56-.03.58,0Z"/>
      <path class="cls-1" d="M433.88,9.16c.52.67-1.1.67-.58,0,.02-.03.56-.03.58,0Z"/>
      <path class="cls-1" d="M436.6,9.41c-.15.68-1.5.1-.97-.26.05-.03.71.4.97.26Z"/>
      <path class="cls-1" d="M291.38,7.12c.05.38-.71.56-.77.5-.45-.36.48-.71.77-.5Z"/>
      <path class="cls-1" d="M353.01,6.87c-.02.54-.87.14-1.16.25.02-.54.87-.14,1.16-.25Z"/>
      <path class="cls-1" d="M474.51,11.19c-.02.54-.87.14-1.16.25.02-.54.87-.14,1.16-.25Z"/>
      <path class="cls-1" d="M441.46,9.91s-.76.09-.78-.12c-.04-.67,1.02-.14.78.12Z"/>
      <path class="cls-1" d="M314.9,6.36c.16.81-1.14.42-.58-.26.02-.03.57.22.58.26Z"/>
      <path class="cls-1" d="M2.48,22.12c.43.92.8,2.57,1.7,2.79.51.13,1.06-.38,1.49-.24.57.18,1.17.98,1.24.99.78.12,12.9-.62,12.29-1.51-.04-.05-.85.09-.97-.39-.11-.42,4.84-.58,5.32-.67,2.01-.35,3.99-.89,6.02-1.24.14-.02.15-.35.13-.51l12.44-1.02-.39-1.01c.56-.28.32,1.19.87,1.01,1.36-.45-.46-.48-.29-1.01.88.16,2.22-.28,3.03-.23.16,0-.19.39.47.48.03,0-.09-.53.1-.5.27.03.12.64.15.64,1.23.21.38-.59.53-.64.22-.07,4.32.13,4.53.25.14.08,1.79,3.03,1.69.26.34-.14.1.64.29.51.21-.15.06-.52.1-.76.35,1.06.65,1.05,1.55,1.01l-.97-1.01h3.11c-1.31.47-.01,1.34.19,1.02.08-.13.31-3.3.49,0,.27-1.37.31-1.21,1.46-1.01l-.78.76c.9.03,1.09.28.97-1.01.16,1.46,4.98.9,4.86-.76,1.52,1.77-.2-.39,1.36,0l-.39.76,3.89-.26-.1-.51c.69.83,1.32.46,2.23.51.23-.93-1.65-.28-.78-.9,1.42-1.01,3.48,2.06,2.44-.83-9.84.77-19.56,2.22-29.46,1.47,4.65-1.15,9.84-.19,14.68-.5,21.32-1.36,42.75-3.31,63.95-5.35,23.25-2.23,46.74-1.63,70.2-2.54,18.16-.7,36.3-2.25,54.42-3.07,12.64-.57,29.41-2.38,41.61-1.37.32.03,1.23-.14,1.07.61-13.76.64-27.58.52-41.32,1.26-6.12.33-12.66,1.7-18.66,2.04-.17,0-.06-.47-.19-.46-6.66.38-13.35.61-20.03.95-.47.02-.93.52-.98.53-.18,0,.12-.54-.38-.51-.19,0-.04.48-.18.49-6.91.35-14.12.21-20.82.98-.49.06-1.75-.24-2.12-.13-.3.09-.42.89-.6.96-.06.02-.31-1.54-.87-1.01-.04.04-.23,1.22-.2,1.27,1.29,1.47,2.31-1.72,2.25.02l4.07-.53c.51,1.86.43.04.49,0,.05-.03.5.56,1.07.53,2.71-.14,5.47-.28,8.18-.51.42-.04.19-.52.37-.54s.02.54.22.53c2.55-.22,1.09-.31,1.43-.78.76-1.02.34.71.39.76.32.29,2.12-.71,2.23.03l9.53-1.05-.1.51c1.09-.22,2.2-.19,3.31-.25h.19c.87-.06,1.75-.5,1.85-.51.85-.11.13.54.39.51.08,0,.78-.88,1.26-.5l-.39.5c1.13.33,1.7-1.39,2.04,0l-.2-1.01c1.52,1.75.6.34,1.15.32,1.13-.04,4.29.41,5.26-.06.25-.12-.12-.51-.1-.76.62-.26.3.7.39.75.66.38.99-.83,1.25-.76.22.06.21,1.11.68.76.08-.05-.13-.65.1-.77.14-.08-.07.62.58.54.49-.06.95-.63,1.07-.53.07.05-.12.7.1.77.25.08,1.84-.48,1.46-1.27.86,2.34.63-1.13,1.36,0,.07.11-.26.69-.2.76.09.1,2.13-.11,2.4-.24.25-.11.02-.85.22-.78.19.06.11.99.39,1.02.24.02-.05-1,.19-1.02.23-.02.01.9.1,1.02.35.51.64-.52.68-.51.19,0,.06.51.1.51.48.04.6-.51.68-.51.19,0,.06.51.1.51.36-.04.09-.46.27-.48.2-.03,1.2.49,1.39.41.55-.23.04-1.2.09-1.2h2.72c-.18.46-1.82.05-1.17,1.02.28.42,2.68-1.11,2.82,0,.51-.61,2.64-.15,3.51-.26.17-.02-.34-.48.18-.5.45-.02-.32.97.68,0-.15,1.93.59,0,.68,0,.06,0,.92.76.98.75.37-.02.26-.75.29-.75.68-.03.25.53.48.51.22-.02-.02-.49.19-.51.04,0,.25.45.39.43.27-.03.51-.43.59-.43.16-.02,0,.53.19.51.49-.05.23-.44.38-.46.87-.08,1.78,0,2.63-.05h.19c4.96-.21,10.07-.22,15.07-.46.14,0,0,.48.19.47.12,0,.04-.62.66-.65,1.81-.08,3.82.68,5.55-.39,0,.36,1.59.75,1.37-.49.08,1.55.69-.24,1.26,1.02l.29-1.27c.25.2,0,1.11.1,1.27s2.67-.46,3.21-.47c.19,0-.08,1.15.57-.21l7.19.39c1.26-1.74,2.75,1.52,3.32-.99-.17,1.91,1.09.57,1.63.63,6.01.72,12.33.49,18.38.64,2.72.07,6.01.63,9.16-.01.48.76,1.46-.02,1.64.01.03,0-.03.75,0,.76.2.08,1.36-.77,1.65-.78.19,0,0,.53.2.53.22,0-.02-.51.19-.51.03,0,.27.45.54.44,2.77-.05,5.48.25,8.42.29,3.14.04,6.29-.23,9.41-.22h.39c6.02.02,12.14-.12,18.17,0,.21,0-.24.5,0,.51.09,0,1.14-.53,1.76-.5.9.04,1.86-.01,2.72.05.17.01-.16.42.48.45.38.02-.08-.58.58-.51-.43.82,1.1-.05,1.55,0,.05,0,.65.76.7.77,1.39.06,2.82-.11,4.23-.04.16,0,.38-.47.42-.47.16,0,.05.5.23.51.67.03,1.31-.27,1.7-.25.11,0,.11.5.23.51,1.27.05,2.58-.08,3.88-.04.18,0,0-.48.18-.47s0,.47.18.47c4.55.14,9.06.2,13.63.32.41.01.2-.54.37-.54.19,0-.15.51.59.53.43.01.2-.53.38-.53s.02.51.23.52c9.22.26,18.39.38,27.56.75.19,0-.1.5.4.52.19,0,.05-.5.18-.49.22,0,.78.47,1,.48.08,0,.07-.5.18-.5.3,0,.52.78.59.77.24-.04-.04-.77.19-.76,2.14.07,4.5.91,6.61,1.01.18,0,.05-.46.19-.45,1.13.06,2.48-.12,3.5-.07.17,0,.09.52.11.52.38.02.06-.52.29-.5,2.93.15,6.01.84,8.97.98,9.21.44,18.34.77,27.56,1.29.18.01.05-.51.22-.5.19.01,0,.5.21.51.93.05,1.81.23,2.72.28.68.04.39-.55.57-.54s-.05.51.38.54c20.27,1.24,40.95,2.98,61.63,3.55.9.02,2.3-.53,2.54-.52.16,0,0,.52.37.53,18.68.42,37.51.39,56.17.5.2,0,.06-.53.23-.52s-.04.54.38.54c5.32.03,10.63.27,15.96.25.53,0,2.29-.07,2.32-.78l21.87-.52c.06,1.57.15.24.2.26.62.19.22.42.88.52.36.06.22-.54.38-.53.24,0,.11.9,1.37.54.47-.14.21-.67.96-.8.09-.02,1.76-.02,1.85.02.45.2-.88.77-.09.77.62-1.2,1.1-.19,1.65-.26.07,0-.28-.46.39-.51.03,0-.09.52.1.51.18-.01.02-.51.23-.52,12.07-.57,24.52-.31,36.32-.99.95-.05,7.33-.15,7.48-.92.01-.07-.94-.71-.58-1.14.37-.45,1.12,1.43,1.2,1.48.31.19,1.81.18,2.3.2,7.2.35,15.18-.94,22.46-1.16,7.56-.22,15.17-.15,22.74-.32.17,0,0-.46.19-.47.22,0-.02.52.2.51.5-.01.22-.51.38-.51,1.15-.02,2.85.06,3.7.05,5.16-.1,10.36-.04,15.53-.04.19,0,.06-.51.23-.51.18,0-.04.54.38.54,39.89-.06,79.58,1.57,119.37,3.24,2.24.09,4.61-.31,6.81-.22.25.01-.23.51,0,.52,2.03.09,4.42-.35,6.4-.27.15,0,.03.51.2.52,20.06.85,40.36,2.38,60.46,1.61,1.85-.07,2.17,1.66,2.24-1.86.43.98.51-.45,1.36.51v.76c-1.48.15-.22,2.42-.18,3.7.01.41-.39.37-.41.55-.06.49.26,1.09.19,1.46-.08.5-.57.1-.58.14-1.09,6.83-1.01,11.16-4.87,16.78-.02.03-.36-.27-.38-.25-.05.07.09.79-.04.96-3.47,4.24-6.83,2.39-11.15,2.33-1.2-.02-2.5.09-3.81.11-.72.01-1.32.7-1.52.66-.03,0-.08-.66-.3-.76-.44-.19-.3.67-.56.69-.94.06-1.12-.72-1.19-.7-.28.11.19.8-.39.76-.35-.02-.08-.74-.1-.76-.5-.38-.61.52-.68.51-.66-.05.38-.54-.58-.52-.11,0,.08.52-.39.52-.15,0,.05-.61-.58-.54-.74.08-.62.79-.78.79-.09,0-.39-.75-.78-.77-.43-.02-.2.53-.39.52-1.31-.1-3.22-.73-4.87-.75-1.88-.01-4.23.72-6.02.69-.07,0-.78-.88-1.18-.88-.18,0-.41.66-.6.65-.32,0-1.65-.63-1.95-.64-5.84-.15-11.77-.17-17.61-.34-.7-.02-1.8-.25-2.21-.27-3.01-.09-6.08.24-9.09.27-.18,0,.09-.52-.4-.52-.08,0-.44,1.01-1.36.51l.19-.51c-.88.56-.89.02-1.37-.02-.4-.03-.2.54-.37.53s.04-.52-.38-.54c-11.13-.49-23.27-.29-34.01-.78-2.24-.1-14.78-.53-16.03-1.01-.05-.02-.29-1.16-.81-.73-.1.08.3.69.1.75-.08.03-.93-.77-1.54-.75-5.83.14-12.8.48-18.88.51-.19,0,.12-.52-.58-.52-.11,0-.02.51-.19.51-.09,0-.4-.72-.61-.72-.45,0-1.44.75-1.52.75-11.71.23-23.81-1.2-35.56-.23-1.13.09-2.56-.17-1.97,1.47-.26-.29-.53-1.36-.81-1.51-.32-.18-6.2-.07-6.97.04-.13.02,0,.42-.18.45-.07.01-.29-.54-.48-.51-.05,0,.11.64-.1.77-.55.34-.26-.76-.29-.76-.57-.13-3.35-.24-3.21.76-.08-1.48-.23-.95-1.17-.52,1,2.08-.83-.13-2.12-.26-2.44-.24-4.96.63-7.23.68-.81.02-1.98-.14-2.29-.44-2.54.88-18.8-.28-19.55.53-.11.12.35.84.1,1.02-.64.44-.5-.89-.8-.99-.46-.16-6.94.03-7.27.23-.13.08.61,1.01-.29.76.54-1.19-1.76-.51-2.51-.54s-3.39-1.16-2.84.79c-.64.26-.23-.71-.49-.78-1.31-.35-7.36.2-8.84.53-.03,0,.26.71-.1.76-.34.05-.49-.56-.67-.51-.07.02.18.4-.19.51-.03,0,.13-.59-.19-.51-.03,0-.03.65-.31.7-2.38.45-6.1.18-8.7.31-.17,0-.12.5-.14.5-.19,0-.28-.41-.48-.4-1.21.04-2.48.28-3.69.26-.59-.01-1.44-.61-1.92-.64-.17,0-.27.79-.42.78-.52-.04-3.01-1.16-3.29-1.03-.2.09-.12.94-.41,1.04-.42.14-.45-.76-.49-.76-.18-.01-.36.53-.67.51s-.59-.58-1.17-.54c-.93.06-1.07.96-1.77,1.05-.5.06-3.95.03-4.27-.04-.19-.04-.51-1.33-.87-.97-.03.03-.03,1.03-.29,1.01s-.19-.88-.39-1.01c-.06-.04-.29.82-1.01.96-3.18.62-8.4.2-11.82.33-.1,0,.03-.57-.59-.55-.34.01-.3.47-.39.48-1.77.06-4.08-.01-5.44.03-3.68.11-7.36.28-11.06.38-6.17.18-12.34.76-18.51.88-1.99.04-4.17-.44-6.17-.41-.46,0-.96.7-1.02.7-.16,0,0-.55-.38-.54-51.9.68-104.04.24-155.91-3.82-1.51-.12-3.13-.31-4.65-.46-.16-.02-.07-.5-.23-.52-.03,0-.28.44-.49.42-1.06-.1-2.21-.43-3.3-.42l.58-.76c-1.11-.92-2.85.98-3.01,1.01s-.26-.76-.3-.76c-.22,0-.59.9-1.37.4-.22-.14-.08-.89-.27-.91-.07,0-.36.71-.77.76-.37.04-.74-.65-1.07-.5-.07.03.21.96-.29.76-.19-.08-.43-.99-.59-1.01-.13-.02.03,1.29-.68.76-.22-.16.58-1.11-1.17-.26l.58-.76-1.55.25.19.5c-.99,1.12-2.35-1.03-2.88-.71-.05.03-.08.97-.32.97-.34,0-.21-1.27-.39-1.27-.21,0-.05.75-.1.76-.36.08-.07-.58-.29-.51-.17.06-.27.72-.31.73-.76.12-2.31-.4-2.96-.44-.17,0-.32.47-.51.46-.03,0,.2-.47-.49-.51-.08,0-.05.52-.19.52-.23-.01-2.03-1.03-2.15-1.01-.1.02.15,1.44-1.45.5l.1.5c-.93.27-2.81-.98-3.32-1.01-.07,0-.75.79-1.34.77-.9-.03-2.07-.63-3.02-.27l.38-.76h-1.26s.1.5.1.5c-.72-1.06-2.42.32-2.81.27-.8-.1-2.86-1.13-4.1-1.24-11.03-.95-24.4-1.47-35.19-1.34-.61,0-2.52.14-3.01.28-.03,0,.26,1.09-.29.76-.36-.22.41-.79-1.35-1.02-.49-.06-4.04-.45-4.19-.26-.1.13.27.93.19,1.01-.15.17-1.59.25-1.07-.76-.71,1.33-2.53-.34-3.72-.42-6.13-.42-12.56.09-18.64-.06-.86-.02-2.94-.78-3.11-.79-.06,0-.43.52-.79.5-.32-.01-.48-.49-.67-.5-.02,0,.02.51-.09.51-.13,0-.7-.5-1.19-.52-12.04-.56-24.09.14-36.16-.06-3.57-.06-7.41-.89-11.07-.95-6.08-.11-12.25,1.01-18.29-.24l.1.5-5.54-.26.1.51c-.83-.76-2.04.23-2.63.26-.11,0-.12-.7-.58-.69-.2,0-.49.69-.58.69-.23,0,.09-.54-.29-.5-.04,0,.11.72-.76.63-1.6-.16-2.93-.92-4.94-.62-.09.01-.47.8-1.58.96s-1.37-.67-1.96-.75c-.34-.04-.28.53-.39.54-.33.05-.48-.54-.67-.52-.04,0,.03.71-.49.77-1.37.15-2.97-.44-4.08-.41-1.39.04-3.48.61-5.06.66-.38.01.14-.92-.39-.76-.16.05-1.73,1.26-2.12,1.3-1.35.15-4.92-.51-6.39-.84-.63-.14-.71-.98-.82-.97-.17,0-.17.7-.39.76-.06.02-.24-.59-.69-.4-.22.1-.33.88-.48.92-.66.19-.58-.75-.78-.78-.44-.07-.42,1.18-1.07.77-.11-.07.28-.64-.29-.78-.16-.04-2.97.21-3.26.27-.22.04-.35,1.1-.72.76-.09-.08.38-.71-.13-.99-.25-.13-4.49.47-5.12.59-.95.18-.91.9-.97.91-.3.02-.36-.74-.39-.76-.66-.26-.08.66-.49.75-1.1.23-.49-.68-.77-.76s-.45.51-.77.51c-.39,0-.67-.51-.87-.5-.07,0-.41,1.85-.68,0-1.24.56-2.36.17-3.31.76l.1-.51c-1.06.07-2.15.04-3.22.02-.42,0-.2-.54-.38-.54-.22,0,.04.77-.2.79-3.43.2-6.88.02-10.3.18-.71.03-1.91.53-2.53.55-5.51.23-15.2-.94-20.02.08-.89.19-1.84,1.17-2.15,1.21-.67.1-.31-.58-.76-.51-.12.02-.35.65-.59.69-1.84.27-3.91-.47-5.45-.69-.08-.01-.46,1.09-1.45.25l.39-.5c-1.08.33-2.14-.05-3.22-.03-.41,0-.2.53-.38.54s-.03-.53-.23-.52c-1.44.03-3.34.28-4.82.4-.15.01-.38-.39-.59-.38-.29.03-1.67.84-2.35.98-.15.03.01-.51-.18-.49s-.06.51-.1.51c-.64.04-.34-.51-.39-.51-.24.01-.4.51-.49.51-.19,0-.06-.51-.1-.51-.34.01-.1.51-.32.52-.65.03-1.32-.35-2.05-.21-4.63.85-9.66,1.57-14.45,1.22-.32-.02-1.33-.21-1.72-.28-.29-.06-.25-.75-.42-.75s-.17.76-.41.75c-1.51-.06-3.15-.38-4.65-.27-.44.03-.06.47-.58.54-.18.02-.06-.55-.19-.52-.43.1-.46.75-.49.76-.65.17-.21-.64-.58-.5-.04.01-.1.8-.39.89-.73.23-1.29-.29-1.77-.27-.4.02-.34.64-.37.64-.19.02-.69-.85-1.06-.76-.22.05-.27.76-.3.76-.33.03-.53-.41-.67-.4-.63.04-1.6.36-2.5.41-.17,0-.07.5-.23.51s-2.2-1.02-2.92-.76l.1.5c-2.74-.81-5.54.53-8.25.78-2.48.22-5.04-.14-7.49-.02-.03,0,.02.77,0,.77-4.06-.52-8.74-.55-12.22.13-4.72.69-9.92-.67-14.1-.87-1.19-.06-4.01.13-5.27.3-.24.03-.21.67-.38.69-.13.02-.07-.7-.59-.67-.11,0-1.27.96-1.79,1.06-.58.12-1.31-.02-1.98.13-.03,0,.23.67-.12.75-.08.02-1.08-.54-1.59-.43-1.05.23-.67-.09-.73-.08-.3.05-.93.4-1.64.55-.06.01-.16.68-.32.72-.22.05.07-.6-.29-.5-.02,0,.05.44-.09.48-1.06.27-3.16.59-4.32.76-3.7.57-7.81.24-11.41.82-6.52,1.05-13.09,3.66-19.88,4.46-4.24.5-8.25.27-12.42.59-2.23.17-13.87,2.15-14.59.79-.33-.64-1.13-6.16-1.25-7.27,0-.08.46.07.39-1-.04-.58-.56-.57-.58-.81-.09-1.52.35-3.28.32-4.24-.03-.75-.94-6.44-.04-4.75l-.83-9.5c.17-1.22,2.36-1.7,1.9-2.45-.08-.12-.5.4-.58.13-.03-.11.07-2.07.09-2.42.49-.38.91.59,1.07,1.02l-.39.13c0,.26.37.07.39.13ZM285.45,8.39v.25l.1-.13-.1-.13ZM242.58,9.16s-.77-.09-.78.12c0,.59,1.26.44.78-.12ZM229.55,10.43h-.39v.25h.39v-.25ZM219.35,11.19v.25l.1-.13-.1-.13ZM178.03,11.45l-10.69.5c1.58-.28.64.58.79.73.8.78,1.89-.15,3.02-.19.08,0,.08.47.16.46.6-.04,1.13-.47,1.86.02l-.1-.51h1.07s-.78.51-.78.51c1.84-.08,2.45.03,4.53,0,.17,0,.07-.51.23-.51.66-.01-.37.57.58.52.14,0-.05-.49.29-.51.07,0-.33.31,1.04.24.13,0,.12.52.22.52.69-.03,2.26-.88,2.63-1.78-1.22.33-3.05-.12-4.17.04-.28.04-.18.95-.59.73-.21-.12-.03-.74-.1-.76ZM162.49,12.21s.42.27.49,0c.21-.82-1.68-.07-2.04-.25,1.33.24.72,1.31,1.94,1.01.02-.52-.53.08-.39-.76ZM165.01,12.2v-.51h-.19v.51h.19ZM166.95,11.7h-1.75c1.51.61,1.51.65,0,1.27l2.72-.25-1.36-.25.39-.76ZM152.57,12.46s.06-.48-.08-.48c-1,.02-2.78-.06-2.93,1.24-.24-3.19-1.36,1.06.05.41.12-.06.64-1.13.73-1.17.55-.23-.04,1.09.39,1.01.22-.04-.08-.87.58-1.03.56-.14.85,1.27,1.07.78.06-.13-.29-.68-.19-.76.07-.05,1.84.47.97-.51-.43-.48-.27.52-.58.5ZM153.64,11.95v.25l.1-.13-.1-.13ZM154.61,12.46c.94-.05,1.88.03,2.82,0-1.36-.35-2.95-.81-4.08.25.44.25,1-.24,1.26-.25ZM158.21,12.46c.34-.59-.37-.57-.39-.12,0,.22.37.14.39.12ZM158.69,11.95v.25l.1-.13-.1-.13ZM160.54,11.95c-.07-.04-1.76-.33-1.55.5,1.62-.73.66.38.78.51.52.56.86-.97.78-1.01ZM163.36,11.95v.25l.1-.13-.1-.13ZM164.04,11.95h-.39v.25h.39v-.25ZM164.62,11.95h-.39v.25h.39v-.25ZM135.46,12.97c-.03-.11.31-.42.1-.5-.06-.02-.72.31-1.18.28-.43-.04-.2-.55-.38-.54-.21.01-.04.76-.1.77-.41.04-3.67-.13-3.69.12-.01.11,1.18,1.4,1.27,1.4s1.3-1.24,1.41-1.26c1.07-.23.9.6,1.8.49-1.35-.67.15-.6.78-.76.06.22-.05.72,0,1.02l.38-.76v1.01c.46-1.12,1.11,1.16.59-1.27.71-.22.26.85.39,1.01.07.09,1.86-.07,1.95-.12s.71-2.13.77-.64c0,.07-1.08-.02.1.77.15-1.14.38.12.67-.13.09-.07-.87-1.32,1.17-.89l-.78.5c.88-.47,1.19.51,1.26.52.51.07.22-.47.29-.51.96,1.58,1.28-1.33,0-.25,0-.11-.21-.32-.2-.51,1.11-.03,1.3-.34,1.17,1.27,1.1-2.5,1.26-.07,1.36,0,.38.28,1.01-.75,1.07-.77.5-.14.14.7.48.51.37-.2-.82-2.51.97,0-.48-1.76.34-.38.39-1.52h-7.19c.06.93-.41-.11-1.23.24-.28.12.15,1.1-.71.77l.29-1.02c-.64.61-2.06.49-3.21.77ZM148.1,13.48c-.06-.41.19-1.32-.19-1.27.07.35-.2,1.29.19,1.27ZM148.68,12.21s-.39-.1-.39.12c.02.44.73.46.39-.12ZM182.7,12.21c-.21-.43-.56.33-.39.76.24-.03.5-.52.39-.76ZM161.71,12.46c-.29.05-.83-.22-.78.25.29-.05.83.22.78-.25ZM163.84,12.46c-.18-.15-.56.19-.58.5.33.23.91-.22.58-.5ZM164.67,12.71c0-.17-.11-.31-.24-.31s-.24.14-.24.31.11.31.24.31.24-.14.24-.31ZM151.4,13.22c.34-.59-.37-.57-.39-.12,0,.22.37.14.39.12ZM156.65,12.72c-.7.02-1.13-.34-.97.76.28-.73.67-.26.97-.76ZM157.14,12.71v.25l.1-.13-.1-.13ZM157.87,12.96c0-.17-.11-.31-.24-.31s-.24.14-.24.31.11.31.24.31.24-.14.24-.31ZM158.3,12.71v.25l.1-.13-.1-.13ZM159.08,12.71v.25l.1-.13-.1-.13ZM148.58,12.97v.25l.1-.13-.1-.13ZM153.15,12.97s-.57-.1-.58.12c-.03.5.74.23.58-.12ZM154.12,12.97c-.29.05-.83-.22-.78.25.29-.05.83.22.78-.25ZM155.29,12.97c-.31-.15-.88.07-.58.51.02.03.65-.23.58-.51ZM161.61,12.97v.25l.1-.13-.1-.13ZM127.49,13.98c-.45-1.8-2.8.36-3.89-.25,0,1.05,1.73.11,2.14.26l-1.07,1.02c1.66.24.97-1.98,2.81-1.02ZM130.21,13.48l-2.53-.25,1.46,1.26c-1.31-2.03.61-.01,1.07-1.01ZM144.21,13.22c-.52-.68-.52,1.44,0,.76.02-.03.02-.73,0-.76ZM156.17,13.22v.25l.1-.13-.1-.13ZM157.14,13.22v.25l.1-.13-.1-.13ZM158.5,13.22v.25l.1-.13-.1-.13ZM159.28,13.22v.25l.1-.13-.1-.13ZM159.67,13.22v.25l.1-.13-.1-.13ZM133.13,13.47v1.02s.39,0,.39,0v-1.02s-.39,0-.39,0ZM123.22,14.24c.72-.5-2.41-.23-2.53.25h.78c-1.39,2.19.15.18.49,0,.15-.07-.01.85.48.51.04-.02-.07-.66.01-.73.18-.16.63.06.77-.03ZM141,13.73v.25l.1-.13-.1-.13ZM128.07,13.99s-.41-.1-.39.13c-.04.5.05.49.29.12.07-.06.14-.17.1-.25ZM137.6,13.99h-.39v.25h.39v-.25ZM120.49,14.24c-.08-.09-1.76.5-2.14.25-.09.47.4.09.39.38s-.47-.09-.39.38l.97.51c-.88-2.42.58-.47.68-.51.13-.05.52-.97.49-1.01ZM117.96,15v-.51h-.19v.51h.19ZM117.57,14.75c-.92.13-3.23-.26-3.69.76,1.14.24,1.69-1.07,1.94.76-.17-2.31.74-.38,1.75-1.52ZM122.92,14.75v.25l.1-.13-.1-.13ZM124.28,14.75v.25l.1-.13-.1-.13ZM113.69,15c-1.68.94-8.02.26-9.22,1.01-.25.16-.07.72-.11,1.02.6.27.31-.69.4-.73,1.54-.63,1.51,1.52,2.51-.04-.57.69.76.58.78.51.05-.21-.51-.65-.39-.76.83-.78,1.01.71,1.07.76.08.06,1.13-1.18,1.65-.76-.17.19-1.08,1.17-.31,1,.7-.15.67-1.28.79-1.26.1.02.49,1.58,1.46,1.02.64-.37-.82-.76-.29-1.02.66-.32,1.67.09,1.66-.76ZM116.8,16.02v-.51h-.19v.51h.19ZM117.38,16.02c.34-.59-.37-.57-.39-.12,0,.22.37.14.39.12ZM119.81,15.51v.25l.1-.13-.1-.13ZM103.19,16.02h-.39v.25h.39v-.25ZM104.16,16.02h-.39v.25h.39v-.25ZM113.1,16.02c-.4-.65-.72.65-.39.76.19.06.51-.56.39-.76ZM97.16,16.53c-.24.14-1.93-.51-1.36.25.08.11,1.34.27,1.36-.25ZM98.13,16.78s.08-.52-.09-.51c-.34.02-.35.95.09.51ZM99.69,16.28c-.25.06-.83-.1-.97,0-.5.37.74.97.97,0ZM100.86,16.28c-.28-.58-.54.63-.39,1.01.29.06.43-.93.39-1.01ZM101.44,16.28s-.41-.1-.39.13c-.04.5.05.49.29.12.07-.06.14-.17.1-.25ZM102.27,16.52c0-.17-.11-.31-.24-.31s-.24.14-.24.31.11.31.24.31.24-.14.24-.31ZM90.55,17.04s.08-.52-.09-.51c-.34.02-.35.95.09.51ZM90.94,17.29s.02-.73,0-.76c-.25-.45-.23,1.21,0,.76ZM91.91,16.53s-.57-.1-.58.13c.36.97,1.31,1.05.58-.13ZM92.69,16.53s-.55-.03-.58,0c-.35.33.93.3.58,0ZM93.86,16.53s-.41-.1-.39.13c-.04.5.05.49.29.12.07-.06.14-.17.1-.25ZM95.02,16.53c-.35-.18-1.49.11-.97.5.05.03,1.01-.15.97-.5ZM95.61,16.53h-.39v.25h.39v-.25ZM85.89,16.78v.25h2.92v-.25h-2.92ZM89.77,16.79s-.55-.03-.58,0c-.35.33.93.3.58,0ZM75.39,17.04c-.1-.11-3.04.03-2.14.76.25.2,1.56-1.06,1.74.51-.06-.28.43-1.22.39-1.27ZM75.78,17.04v1.53s.39,0,.39,0v-1.53s-.39,0-.39,0ZM77.92,17.04c-.06-.1-1.85-.01-1.55.88.42,1.24.76-.92,1.35.13-.08-.3.22-.97.2-1.02ZM79.08,17.04c-.44-.16-1.4-.02-.97.76.03.06,1.17-.1.97-.76ZM81.8,17.04c-.22.25-2.82-.26-2.53.5.06.15,2.36-.05,2.53-.5ZM83.16,17.04c-.3.11-1.14-.29-1.16.25.3-.11,1.14.29,1.16-.25ZM83.46,17.04v.25l.1-.13-.1-.13ZM95.7,17.04v.25l.1-.13-.1-.13ZM85.11,17.29h-.39v.25h.39v-.25ZM86.08,17.29h-.39v.25h.39v-.25ZM86.86,17.29h-.39v.25h.39v-.25ZM88.51,17.29v.25l.1-.13-.1-.13ZM90.46,17.29v.25l.1-.13-.1-.13ZM96.48,17.29v.25l.1-.13-.1-.13ZM97.16,17.29h-.39v.25h.39v-.25ZM98.13,17.8v-.51h-.19v.51h.19ZM99.3,17.8v-.51h-.19v.51h.19ZM101.34,17.29v.25l.1-.13-.1-.13ZM662.99,17.29v.25l.1-.13-.1-.13ZM665.03,17.29s-.55-.03-.58,0c-.35.33.93.3.58,0ZM84.13,18.31v-.51h-.19v.51h.19ZM650.94,17.8v.25l.1-.13-.1-.13ZM72.08,18.56c.39-.67-.74-.55-.58.26.12-.15.56-.23.58-.26ZM73.35,18.05v.25l.1-.13-.1-.13ZM79.57,18.05v.25l.1-.13-.1-.13ZM43.5,20.09s.08-.52-.09-.51c-.34.02-.35.95.09.51ZM44.48,19.58h-.39v.25h.39v-.25ZM45.16,19.58v.25l.1-.13-.1-.13ZM47.1,19.58v.25l.1-.13-.1-.13ZM48.17,20.09v-.51h-.19v.51h.19ZM48.46,19.58v.25l.1-.13-.1-.13ZM49.05,19.58v.25l.1-.13-.1-.13ZM49.78,19.83c0-.17-.11-.31-.24-.31s-.24.14-.24.31.11.31.24.31.24-.14.24-.31ZM49.92,20.34c.27.21.48-.8.09-.76-.17.02-.12.74-.09.76ZM51.09,20.34c.2-.26-.38-1.02-.58-.76s.38,1.02.58.76ZM55.75,20.34c.16-.35-.61-.63-.58-.12.01.22.57.16.58.12ZM56.04,20.09v.25l.1-.13-.1-.13ZM21.44,23.9v.25l.1-.13-.1-.13ZM21.83,23.9v.25l.1-.13-.1-.13ZM20.56,24.16c-.29.05-.83-.22-.78.25.29-.05.83.22.78-.25ZM20.86,24.16v.25l.1-.13-.1-.13ZM17.26,25.43h-.39v.25h.39v-.25ZM14.34,26.19c.06-.1-.11-.27-.19-.38-.46-.4-.12.87.19.38ZM19.5,25.68v.25l.1-.13-.1-.13ZM20.17,25.69h-.39v.25h.39v-.25ZM13.66,25.94v.25l.1-.13-.1-.13ZM15.31,25.94h-.39v.25h.39v-.25ZM15.8,25.94v.25l.1-.13-.1-.13ZM17.16,25.94v.25l.1-.13-.1-.13ZM15.51,27.98l-1.94-.26c-.22.86,1.78.63,1.94.26ZM17.06,27.72h-.39v.25h.39v-.25ZM18.04,27.72c-.5.02-.91-.25-.78.5l.78-.5ZM10.46,28.48c-.35-.92-1.64-.58-1.94.25l1.94-.25ZM12.4,28.23l-1.75-.26c-.24.84,1.63.65,1.75.26ZM7.92,28.21l-1.67.42.07.47,1.67-.42-.07-.47ZM13.18,28.23h-.39v.25h.39v-.25ZM21.93,29.49c-.7-.58-2.16-.49-3-.52-4.01-.14-8.7.07-12.55,1.03,3.32-.02.87,1.07-.78,1.27,1.46-.41.82.86.97,1.02.1.1,1.8.3,1.36-.76.39-.09.02.7.3.78,1.95.56,5.87-1.19,8.06-.53l-.39-.5,6.61-.26c.43-2.17-.99-.96-2.33-1.02l1.75-.51ZM24.55,29.24v.25l.1-.13-.1-.13ZM5.98,29.76s-.55-.03-.58,0c-.35.33.93.3.58,0ZM24.65,30.26c-.26-.79-1.11-.33-1.55-.25.28.41,1.16.08,1.55.25ZM25.03,30.26v-.51h-.19v.51h.19ZM25.81,29.75c-.25-.35-.75.49-.38,1.01.29.06.44-.94.38-1.01ZM26.59,29.76h-.39v.25h.39v-.25ZM4.91,30.01v.25l.1-.13-.1-.13ZM23.87,31.02v-.51h-.19v.51h.19ZM24.65,30.52h-.39v.25h.39v-.25ZM25.03,31.02v-.51h-.19v.51h.19ZM23.48,30.77h-.39v.25h.39v-.25ZM6.28,31.53v.25l.1-.13-.1-.13ZM424.84,39.42v.25l.1-.13-.1-.13ZM436.7,39.67v.25l.1-.13-.1-.13ZM441.56,39.92v.25l.1-.13-.1-.13ZM885.89,43.23h-.39v.25h.39v-.25ZM687.1,43.48v.25l.1-.13-.1-.13ZM688.46,43.48v.25l.1-.13-.1-.13Z"/>
      <path class="cls-1" d="M256.97,9.15h-.19c.14,0,.18,0,.19,0Z"/>
      <path class="cls-1" d="M142.27,13.48c-.2-.33,0-.1,0-.25-.03.02.03.24,0,.25Z"/>
      <path class="cls-1" d="M347.37,9.15h-.39c.12,0,.26,0,.39,0Z"/>
      <path class="cls-1" d="M216.53,11.44h-.19c.07,0,.14,0,.19,0Z"/>
      <path class="cls-1" d="M2.48,22.12v-.25c.04.1.06.16,0,.25Z"/>
      <path class="cls-1" d="M69.94,67.64c-.21.43-.56-.33-.39-.76.24.03.5.52.39.76Z"/>
      <path class="cls-1" d="M39.62,19.33s.07.76-.09.76c-.38,0-.38-1.28.09-.76Z"/>
      <path class="cls-1" d="M351.45,6.87c.02.51-.7.16-.97.25-.04-.5.66-.17.97-.25Z"/>
      <path class="cls-1" d="M60.81,18.82c.02.51-.7.16-.97.25-.04-.5.66-.17.97-.25Z"/>
      <ellipse class="cls-1" cx="719.76" cy="42.58" rx=".25" ry=".32"/>
      <path class="cls-1" d="M467.51,11.19s-.57.1-.58-.12c-.03-.5.74-.23.58.12Z"/>
      <ellipse class="cls-1" cx="450.22" cy="10.17" rx=".24" ry=".31"/>
      <ellipse class="cls-1" cx="227.42" cy="10.17" rx=".24" ry=".31"/>
      <ellipse class="cls-1" cx="437.19" cy="9.66" rx=".24" ry=".31"/>
      <path class="cls-1" d="M34.37,20.6c-.27.21-.48-.8-.09-.76.17.02.12.74.09.76Z"/>
      <path class="cls-1" d="M186.01,11.95c.06.47-.49.2-.78.25-.06-.47.49-.2.78-.25Z"/>
      <path class="cls-1" d="M428.63,9.16c.06.47-.49.2-.78.25-.06-.47.49-.2.78-.25Z"/>
      <path class="cls-1" d="M62.75,18.57c.07.27-.56.54-.58.51-.3-.43.27-.65.58-.51Z"/>
      <ellipse class="cls-1" cx="1.32" cy="19.58" rx=".24" ry=".31"/>
      <ellipse class="cls-1" cx="52.45" cy="19.58" rx=".24" ry=".31"/>
      <ellipse class="cls-1" cx="477.82" cy="11.44" rx=".24" ry=".31"/>
      <path class="cls-1" d="M70.33,66.88c-.23.45-.25-1.21,0-.76.02.03.02.71,0,.76Z"/>
      <path class="cls-1" d="M476.46,11.19c.04.08-.02.19-.1.25-.25.37-.33.38-.29-.12-.02-.23.38-.15.39-.13Z"/>
      <path class="cls-1" d="M957.43,17.8c-.31.49-.65-.78-.19-.38.08.11.26.28.19.38Z"/>
      <path class="cls-1" d="M462.46,10.93c-.31.49-.65-.78-.19-.38.08.11.26.28.19.38Z"/>
      <path class="cls-1" d="M481.51,11.44c.34.59-.37.57-.39.12,0-.22.37-.14.39-.12Z"/>
      <path class="cls-1" d="M958.21,17.55c.34.59-.37.57-.39.12,0-.22.37-.14.39-.12Z"/>
      <path class="cls-1" d="M271.16,7.63c.34.59-.37.57-.39.12,0-.22.37-.14.39-.12Z"/>
      <path class="cls-1" d="M283.21,7.88c-.23.45-.25-1.21,0-.76.02.03.02.71,0,.76Z"/>
      <path class="cls-1" d="M189.12,11.7c.35.3-.93.33-.58,0,.03-.03.55-.03.58,0Z"/>
      <path class="cls-1" d="M955.68,19.07s-.39.1-.39-.12c.02-.44.73-.46.39.12Z"/>
      <path class="cls-1" d="M957.82,18.56c.34.59-.37.57-.39.12,0-.22.37-.14.39-.12Z"/>
      <path class="cls-1" d="M421.44,8.9c.35.3-.93.33-.58,0,.03-.03.55-.03.58,0Z"/>
      <path class="cls-1" d="M1.12,22.12c.34.59-.37.57-.39.12,0-.22.37-.14.39-.12Z"/>
      <path class="cls-1" d="M465.76,10.68c.34.59-.37.57-.39.12,0-.22.37-.14.39-.12Z"/>
      <path class="cls-1" d="M207.59,10.94c.35.3-.93.33-.58,0,.03-.03.55-.03.58,0Z"/>
      <path class="cls-1" d="M409,8.39c.35.3-.93.33-.58,0,.03-.03.55-.03.58,0Z"/>
      <path class="cls-1" d="M283.41,1.78c-.23.45-.25-1.21,0-.76.02.03.02.71,0,.76Z"/>
      <path class="cls-1" d="M404.33,8.64c-.31.49-.65-.78-.19-.38.08.11.26.28.19.38Z"/>
      <path class="cls-1" d="M471.21,10.94c.35.3-.93.33-.58,0,.03-.03.55-.03.58,0Z"/>
      <path class="cls-1" d="M472.37,10.94c.35.3-.93.33-.58,0,.03-.03.55-.03.58,0Z"/>
      <rect class="cls-1" x="199.62" y="11.19" width=".19" height=".51"/>
      <rect class="cls-1" x="197.29" y="11.19" width=".39" height=".25"/>
      <rect class="cls-1" x="407.64" y="8.39" width=".39" height=".25"/>
      <rect class="cls-1" x="209.34" y="10.94" width=".39" height=".25"/>
      <rect class="cls-1" x="244.33" y="8.65" width=".39" height=".25"/>
      <rect class="cls-1" x="401.03" y="8.14" width=".39" height=".25"/>
      <rect class="cls-1" x="411.91" y="8.65" width=".39" height=".25"/>
      <rect class="cls-1" x="712.47" y="42.47" width=".19" height=".51"/>
      <rect class="cls-1" x="958.99" y="25.18" width=".39" height=".25"/>
      <rect class="cls-1" x="7.15" y="25.18" width=".39" height=".25"/>
      <rect class="cls-1" x="466.55" y="10.68" width=".19" height=".51"/>
      <rect class="cls-1" x="713.84" y="42.47" width=".19" height=".51"/>
      <rect class="cls-1" x="377.5" y="7.38" width=".39" height=".25"/>
      <rect class="cls-1" x="423.97" y="8.9" width=".39" height=".25"/>
      <rect class="cls-1" x="192.62" y="11.7" width=".19" height=".51"/>
      <rect class="cls-1" x="238.31" y="9.16" width=".39" height=".25"/>
      <rect class="cls-1" x="51.48" y="19.33" width=".39" height=".25"/>
      <rect class="cls-1" x="40.2" y="19.33" width=".39" height=".25"/>
      <rect class="cls-1" x="285.94" y="7.12" width=".19" height=".51"/>
      <rect class="cls-1" x="192.04" y="11.7" width=".19" height=".51"/>
      <rect class="cls-1" x="425.33" y="9.16" width=".39" height=".25"/>
      <rect class="cls-1" x="284.77" y="7.12" width=".19" height=".51"/>
      <rect class="cls-1" x="61.59" y="18.56" width=".19" height=".51"/>
      <rect class="cls-1" x="482.1" y="11.44" width=".19" height=".51"/>
      <rect class="cls-1" x="643.26" y="17.55" width=".39" height=".25"/>
      <rect class="cls-1" x="480.74" y="11.44" width=".19" height=".51"/>
      <rect class="cls-1" x="879.47" y="43.49" width=".39" height=".25"/>
      <rect class="cls-1" x="479.76" y="11.45" width=".39" height=".25"/>
      <path class="cls-1" d="M479.57,11.45c.25.43-.6.22-.58-.13,0-.08.56.1.58.13Z"/>
      <rect class="cls-1" x="69.95" y="44.5" width=".19" height=".51"/>
      <rect class="cls-1" x="799.18" y="47.81" width=".39" height=".25"/>
      <rect class="cls-1" x="446.13" y="49.33" width=".19" height=".51"/>
      <rect class="cls-1" x="427.27" y="9.16" width=".39" height=".25"/>
      <rect class="cls-1" x="194.95" y="11.45" width=".39" height=".25"/>
      <rect class="cls-1" x="475.1" y="11.19" width=".39" height=".25"/>
      <rect class="cls-1" x="225.67" y="9.92" width=".39" height=".25"/>
      <rect class="cls-1" x="653.37" y="54.93" width=".19" height=".51"/>
      <rect class="cls-1" x="188.15" y="11.44" width=".19" height=".51"/>
      <rect class="cls-1" x="390.53" y="7.89" width=".39" height=".25"/>
      <polygon class="cls-1" points="438.45 9.41 438.55 9.54 438.45 9.66 438.45 9.41"/>
      <polygon class="cls-1" points="385.77 9.66 385.86 9.79 385.77 9.92 385.77 9.66"/>
      <polygon class="cls-1" points="437.87 9.41 437.96 9.54 437.87 9.66 437.87 9.41"/>
      <polygon class="cls-1" points="232.96 9.41 233.06 9.54 232.96 9.66 232.96 9.41"/>
      <polygon class="cls-1" points="399.76 9.92 399.86 10.04 399.76 10.17 399.76 9.92"/>
      <polygon class="cls-1" points="426.98 9.15 427.08 9.28 426.98 9.41 426.98 9.15"/>
      <polygon class="cls-1" points="379.74 7.63 379.84 7.76 379.74 7.88 379.74 7.63"/>
      <polygon class="cls-1" points="213.13 10.43 213.23 10.55 213.13 10.68 213.13 10.43"/>
      <polygon class="cls-1" points="219.54 10.43 219.64 10.55 219.54 10.68 219.54 10.43"/>
      <polygon class="cls-1" points="435.73 10.43 435.83 10.55 435.73 10.68 435.73 10.43"/>
      <polygon class="cls-1" points="693.32 15.26 693.42 15.38 693.32 15.51 693.32 15.26"/>
      <polygon class="cls-1" points="506.88 15.26 506.98 15.38 506.88 15.51 506.88 15.26"/>
      <polygon class="cls-1" points="426.4 9.15 426.49 9.28 426.4 9.41 426.4 9.15"/>
      <polygon class="cls-1" points="63.63 18.31 63.72 18.44 63.63 18.56 63.63 18.31"/>
      <polygon class="cls-1" points="61.1 18.56 61.2 18.69 61.1 18.82 61.1 18.56"/>
      <polygon class="cls-1" points="477.14 11.19 477.24 11.32 477.14 11.44 477.14 11.19"/>
      <polygon class="cls-1" points="956.55 18.56 956.65 18.69 956.55 18.82 956.55 18.56"/>
      <polygon class="cls-1" points="398.4 9.15 398.5 9.28 398.4 9.41 398.4 9.15"/>
      <polygon class="cls-1" points="210.02 10.68 210.11 10.81 210.02 10.93 210.02 10.68"/>
      <polygon class="cls-1" points="1.8 19.07 1.9 19.2 1.8 19.33 1.8 19.07"/>
      <polygon class="cls-1" points="247.15 9.15 247.25 9.28 247.15 9.41 247.15 9.15"/>
      <polygon class="cls-1" points="239.57 8.91 239.57 9.15 239.37 9.4 239.28 9.28 239.57 8.91"/>
      <polygon class="cls-1" points="215.27 10.68 215.36 10.81 215.27 10.93 215.27 10.68"/>
      <polygon class="cls-1" points="423.29 8.9 423.38 9.03 423.29 9.15 423.29 8.9"/>
      <polygon class="cls-1" points="380.32 7.63 380.42 7.76 380.32 7.88 380.32 7.63"/>
      <polygon class="cls-1" points="287.59 7.12 287.68 7.25 287.59 7.37 287.59 7.12"/>
      <polygon class="cls-1" points="202.44 10.93 202.53 11.06 202.44 11.19 202.44 10.93"/>
      <polygon class="cls-1" points="206.13 10.93 206.23 11.06 206.13 11.19 206.13 10.93"/>
      <polygon class="cls-1" points="208.07 10.93 208.17 11.06 208.07 11.19 208.07 10.93"/>
      <polygon class="cls-1" points="417.07 8.65 417.16 8.77 417.07 8.9 417.07 8.65"/>
      <polygon class="cls-1" points="208.46 10.93 208.56 11.06 208.46 11.19 208.46 10.93"/>
      <polygon class="cls-1" points="496.19 12.46 496.29 12.59 496.19 12.71 496.19 12.46"/>
      <polygon class="cls-1" points="469.56 10.93 469.65 11.06 469.56 11.19 469.56 10.93"/>
      <polygon class="cls-1" points="469.94 10.93 470.04 11.06 469.94 11.19 469.94 10.93"/>
      <polygon class="cls-1" points="491.72 12.21 491.82 12.33 491.72 12.46 491.72 12.21"/>
      <polygon class="cls-1" points="453.81 12.21 453.91 12.33 453.81 12.46 453.81 12.21"/>
      <polygon class="cls-1" points="453.03 12.21 453.13 12.33 453.03 12.46 453.03 12.21"/>
      <polygon class="cls-1" points="199.33 11.19 199.42 11.32 199.33 11.44 199.33 11.19"/>
      <polygon class="cls-1" points="255.32 8.39 255.41 8.52 255.32 8.65 255.32 8.39"/>
      <polygon class="cls-1" points="300.42 7.12 300.52 7.25 300.42 7.37 300.42 7.12"/>
      <polygon class="cls-1" points="303.53 7.12 303.63 7.25 303.53 7.37 303.53 7.12"/>
      <polygon class="cls-1" points="306.25 7.12 306.35 7.25 306.25 7.37 306.25 7.12"/>
      <polygon class="cls-1" points="485.5 11.95 485.59 12.08 485.5 12.21 485.5 11.95"/>
      <polygon class="cls-1" points="183.58 11.95 183.68 12.08 183.58 12.21 183.58 11.95"/>
      <polygon class="cls-1" points="228.68 36.87 228.78 37 228.68 37.13 228.68 36.87"/>
      <polygon class="cls-1" points="385.77 38.4 385.86 38.53 385.77 38.65 385.77 38.4"/>
      <polygon class="cls-1" points="177.36 39.42 177.45 39.54 177.36 39.67 177.36 39.42"/>
      <polygon class="cls-1" points="403.07 8.14 403.16 8.26 403.07 8.39 403.07 8.14"/>
      <polygon class="cls-1" points="704.6 43.23 704.7 43.36 704.6 43.48 704.6 43.23"/>
      <polygon class="cls-1" points="196.41 11.7 196.51 11.82 196.41 11.95 196.41 11.7"/>
      <polygon class="cls-1" points="189.8 11.7 189.9 11.82 189.8 11.95 189.8 11.7"/>
      <polygon class="cls-1" points="73.15 43.48 73.25 43.61 73.15 43.74 73.15 43.48"/>
      <polygon class="cls-1" points="82.48 43.48 82.58 43.61 82.48 43.74 82.48 43.48"/>
      <polygon class="cls-1" points="96.68 43.48 96.77 43.61 96.68 43.74 96.68 43.48"/>
      <polygon class="cls-1" points="104.45 43.48 104.55 43.61 104.45 43.74 104.45 43.48"/>
      <polygon class="cls-1" points="105.04 43.48 105.13 43.61 105.04 43.74 105.04 43.48"/>
      <polygon class="cls-1" points="480.44 11.44 480.54 11.57 480.44 11.7 480.44 11.44"/>
      <polygon class="cls-1" points="70.63 44.5 70.72 44.63 70.63 44.76 70.63 44.5"/>
      <polygon class="cls-1" points="66.93 45.26 67.03 45.39 66.93 45.52 66.93 45.26"/>
      <polygon class="cls-1" points="207.1 11.44 207.2 11.57 207.1 11.7 207.1 11.44"/>
      <polygon class="cls-1" points="195.83 11.44 195.92 11.57 195.83 11.7 195.83 11.44"/>
      <polygon class="cls-1" points="191.35 11.44 191.45 11.57 191.35 11.7 191.35 11.44"/>
      <polygon class="cls-1" points="187.66 11.44 187.76 11.57 187.66 11.7 187.66 11.44"/>
      <polygon class="cls-1" points="292.45 7.63 292.55 7.76 292.45 7.88 292.45 7.63"/>
      <polygon class="cls-1" points="629.17 72.22 629.26 72.35 629.17 72.47 629.17 72.22"/>
      <polygon class="cls-1" points="18.91 29.75 16.41 30.16 15.7 29.75 18.91 29.75"/>
      <path class="cls-1" d="M18.23,31.03c.35.3-.93.33-.58,0,.03-.03.55-.03.58,0Z"/>
      <rect class="cls-1" x="18.43" y="31.03" width=".39" height=".25"/>
      <rect class="cls-1" x="19.59" y="29.76" width=".39" height=".25"/>
      <polygon class="cls-1" points="22.02 30.26 22.12 30.39 22.02 30.51 22.02 30.26"/>
      <path class="cls-1" d="M172.4,11.95c.02.51-.7.16-.97.25-.04-.5.66-.17.97-.25Z"/>
      <path class="cls-1" d="M170.65,11.95c.02.51-.7.16-.97.25-.04-.5.66-.17.97-.25Z"/>
      <path class="cls-1" d="M169.48,11.95c.35.3-.93.33-.58,0,.03-.03.55-.03.58,0Z"/>
      <rect class="cls-1" x="179.4" y="11.95" width=".39" height=".25"/>
      <polygon class="cls-1" points="177.36 11.95 177.45 12.08 177.36 12.21 177.36 11.95"/>
      <polygon class="cls-1" points="175.8 11.95 175.9 12.08 175.8 12.21 175.8 11.95"/>
      <polygon class="cls-1" points="172.69 11.95 172.79 12.08 172.69 12.21 172.69 11.95"/>
      <path class="cls-1" d="M145.18,12.72s-.14,1.52-.39.76c-.14-.44-.02-.97.39-.76Z"/>
      <rect class="cls-1" x="139.74" y="12.72" width=".19" height=".51"/>
      <path class="cls-1" d="M111.74,16.27c-.11.15-.57-.21-.58-.38-.03-.7.88-.02.58.38Z"/>
      <rect class="cls-1" x="106.3" y="16.28" width=".39" height=".25"/>
      <polygon class="cls-1" points="132.45 13.22 132.55 13.35 132.45 13.48 132.45 13.22"/>
      <polygon class="cls-1" points="131.48 13.22 131.57 13.35 131.48 13.48 131.48 13.22"/>
      <path class="cls-1" d="M138.18,12.97c-.2.77-.71.42-1.16.25l1.16-.25Z"/>
    </g>
  </g>
</svg>