<?xml version="1.0" encoding="UTF-8"?>
<svg id="Layer_2" data-name="Layer 2" xmlns="http://www.w3.org/2000/svg" viewBox="0 0 511.28 16.66">
  <defs>
    <style>
      .cls-1 {
        fill: #fbb03b;
      }
    </style>
  </defs>
  <g id="Layer_1-2" data-name="Layer 1">
    <g>
      <polygon class="cls-1" points="255.15 16.66 255.24 16.46 255.33 16.66 255.15 16.66"/>
      <polygon class="cls-1" points="453.62 13.98 454.5 13.99 454.5 14.18 453.62 14.18 453.62 13.98"/>
      <path class="cls-1" d="M147.78,13.79s.16.47-.26.39c-.61-.11.04-.53.26-.39Z"/>
      <path class="cls-1" d="M324.05,14.68s-.1.51-.35.49c-.33-.27,0-.78.35-.49Z"/>
      <path class="cls-1" d="M101.97,2.59h-.17s.11-.04.17,0Z"/>
      <path class="cls-1" d="M247.63,14.38h.17s-.06.15-.17,0Z"/>
      <path class="cls-1" d="M121.73,1.9h-.17l.09-.2c.18,0,.05.19.09.2Z"/>
      <path class="cls-1" d="M281.38,14.08c0,.3-.17.29-.17,0,.06,0,.12,0,.17,0Z"/>
      <path class="cls-1" d="M121.73,1.9c.1.02,1.36.23,1.4.2.16-.12-.46-.45.09-.39l.26.49.88-.49v.4s.44-.3.44-.3l.43.3.35-.3c.06.63,0,.06.52.1.03,0,.12.34.35.3.05,0,.21-.41.53-.49.55-.15-.2.46.69,0-.55.98.41.09,1.14,0,.16-.02.82.47,1.31,0-.24.64-.05.35.44,0-.22.57.16,0,.35.4-.2-.36.04-.46.7-.4.19.02.04.28.09.29.19.04.35-.58.61.1.54-.59.76-.17,1.22-.2.08,0,.07-.2.09-.19.63.02.2.18.43.19.17,0,.02-.23.17-.2.6.11.4.39.44.4.21.05.28-.29.47-.3.51-.04.8.21.84.2.18-.02-.18-.26-.09-.29.11-.04,2.22-.01,2.51,0,.12,0,.12.19.19.2.39.02,1.43-.53,1.58.2.01-1.06.53-.12.61-.1.24.05.94-.68,1.22,0v-.49c.55.55,1.66,0,1.84,0,.04,0,.45.26.53.28.36.06.82-.33.87.22.24-.1-.07-.56.17-.6.16-.03.06.31.25.36.33.08,1.2-.16,1.68.13l-.27-.19,1.05.2c-.42-.42.66-.43.7-.4.11.1-.48.44.09.4.09-.78,2-.23,2.44-.19.5.04,1.1-.11,1.24-.11.19,0,.04.28.09.3.28.06.27-.39.94-.39.05,0,.76.39.81.39.31.02-.06-.21.62-.2.39,0,.18.21.34.21.08,0,1.03-.35,1.43-.38.32-.02.49.25.66.25.52,0,.66-.49.7-.47.34.15-.48.96,1.31,0l.09.59c.73-.07.72-.38.79-.39.09-.02,1.76-.13,1.83-.1.17.07.17.97,1.4-.1l.09.4c-.23-.2,1.49-.33,1.57-.3.05.03.07.87.18,0,.66.08-.11.95.79,0l-.09.4c.54.13.26-.34.44-.3.22.05-.03.32.17.3.24-.02.23-.37.29-.39.1-.02,2.05-.02,2.16-.01.25.03-.21.29,0,.3.19,0,1.99-.73,1.75.1.58-.82.46-.05.7,0,.54.12.6-1.13.62,0,.54-1.1,1.11.64,1.05-.4.89.76.59.16.96.1.47-.09.35.2.69.21.58.01.42-.34.79-.21.04.01-.04.29,0,.3.89.2.48-.36.53-.4.07-.05,2.43.28,1.14.4l1.57-.3-.26.3c.89.13.77-.91.88,0,.37,0,.29-.43.43-.4.2.04.04.29.09.4.5-.91.08.38,1.57-.3-.53.76,1.08.02,1.31,0,.04,0,.49.3.52.3.12,0,.36-.32.7-.3.22.01-.12.42.44.3.03-.72.55-.09.61-.1.67-.02.18-.18.78-.2.04,0-.08.19.09.19.08,0,.38-.29.55-.29.35,0,.57.29.67.29.18,0-.13-.21.52-.2.14,0,.2.27.34.29.39.05.67-.29.71-.29.29,0,.39.36,1.21.21.2-.04.06-.3.1-.3.1-.01,1.71.08,1.99.1.04,0,.39.33.54.29.3-.08.23-.38.26-.39.11-.04.44.25.52.2.12-.09.03-.84.18,0l.7-.3c-.36.32.54.54.79.49.19-.04-.18-.26-.09-.29.53-.19.32.29.35.3,1.13.16,1.56-.51,1.66-.49.6.07-.49.84.96-.1l-.09.5c.51-.79.51-.19.87-.19,1.58,0,3.39.17,4.56.2.29,0,.4-.21.69-.2.22,0-.08.19.26.2.03,0-.08-.2.09-.2.26,0,.41.17.76.18.5,0,.98-.17,1.49-.17.17,0-.08.17.37.2.15,0,0-.3.35-.2.2.06.04.29.09.3.22.05.32-.29.35-.3.54-.07.15.27.69.2.02,0,.06-.24.17-.25.67-.07,1.07.03,1.14.03.75-.02.64-.17.7-.17.27,0,1.6.22,2,.25.27.02.41-.21.71-.15.04,0-.04.28,0,.3.39.17.29-.32.88-.27.38.03.28.34.52.26.06-.02-.12-.26.1-.3.15-.03,1.34.25,1.56.26.12,0,.35-.18.52-.16.08,0,.06.22.6.26,2.18.12,1.31-.21,1.42-.25.72-.25.46.48,1.05.2.09.21.17,0,.17,0,.41-.05,1.6-.32,1.75-.3.04,0-.03.29,0,.3.18.07.29-.28.43-.28.72-.03,1.01.28,1.06.28.62.06.35-.21.52-.2.29.01.01.59.52,0,.13.55.27.13.88.15.57.02,4.1.21,4.28.15.08-.02-.33-.26-.09-.3.47.32,2.15.3,2.96.3.15,0,.03-.2.19-.2.05,0,.2.18.5.19.14,0,.28-.19.47-.19.04,0-.1.29.09.3.16,0,.02-.2.2-.19.82.02.16.17.76.19.03,0-.08-.2.09-.2s.05.18.11.18c.81,0,1.15-.21,1.9.02l-.35-.2c1.08.22,2.77.02,4.21.03.42,0,1.01-.01,1.12,0,.45,0,1.16.18,1.23.18.15,0,0-.2.17-.2.08,0,.23.2.44.2.04,0-.18-.21.26-.2.15,0,.06.2.18.21.3,0,.64-.21.7-.2.19,0-.02.19.17.2.21,0-.09-.19.26-.2.04,0-.1.28.09.3s.03-.28.09-.3c.43-.12.32.21.46.2.66-.03,1.87-.29,2.42.1.07-.34.75-.03,1.4-.02.29,0,.68-.26.96-.18.11.03-.31.26-.08.3.49.08.82-.3.87-.3.1,0,1.24.24,1.8.24.39,0,.78-.24.82-.24.14,0,.05.2.2.2.8,0,1.61.08,2.25.07.1,0,.08-.17.19-.17.46,0,1.97.2,2.08.2.19-.01.03-.28.11-.29.7-.12.46.28.51.29.42.07,1.3-.2,1.48-.2.14,0,.01.2.18.2.5.01.07-.2.43-.2.04,0-.08.19.09.2.07,0,.2-.2.53-.2.04,0,.66.3.7.3.18,0,.12-.32.53-.3.5.03.32.35.61.3.03,0,.1-.34.35-.3.04,0-.09.27.08.29.54.06,1.59.12,1.23-.29.6.61,1.54-.1,2.8.11.21.03-.04.3.17.29s-.04-.28.18-.3c.25-.02.59.17.87.16.16,0,.3-.16.35-.16.19,0-.02.21.17.2.15,0,.03-.2.2-.2,1.13-.01,1.29.2,1.37.2.19,0,.04-.29.09-.3.29-.05.35.71.79-.1l.53.4,1.05-.28c.32-.01,1.39.18,1.48.18.05,0,.22-.39.79-.29.25.04-.16.25-.08.3.33.19.58-.2.61-.2.21.01-.09.19.26.2.03,0-.08-.2.09-.2.16,0,.2.29.35.3.48.02.38-.65.79,0-.35-.53,2.07-.06,2.71,0,.15.02-.03-.23.26-.2.08,0-.35.39,1.05.3.03,0-.02-.3,0-.3.16-.01.33.19.46.18.67-.05,1.78-.41,1.98.11.22-.8.48-.09.62-.1.06,0,.09-.35.95-.18.05.01,0,.27.02.28.5.11.65-.29.7-.3.38-.05.12.32.26.3.51-.07.15-.25.28-.28.72-.17.32.26.42.28.08.02,1.38-.21,1.57-.2l-.09.2c.86-.59,1.08.56,1.66-.3l.26.3c.58-.45.05.06.7,0,.06,0-.1-.28.09-.3.16-.01.06.2.09.2.56-.04.3-.18.43-.18.55,0,1.7.27,2.1.28.11,0-.04-.19.53-.18.15,0-.05.17.26.17.03,0-.08-.2.09-.2.46,0,.21.2.26.2.34,0,.05-.2.26-.2.16,0,.05.2.17.2.67,0,.34-.2.53-.2.17,0,.05.2.09.2.34,0,.05-.2.26-.2.2,0-.02.2.17.2s-.02-.21.18-.2c.47.02.06.2.17.2,1.28.01,1.57-.12,2.54-.19l-.35.2c.8-.25.72-.02.78-.02,1.23,0,1.61-.17,2.72.02l-.09-.19c.78.34,1.15,0,1.23,0,.07,0,.54.26,1.25.26,3.25.03,6.78-.09,9.74-.06.17,0,.05-.2.2-.2.05,0,.19.24.86.24,2.26.03,5.02-.09,6.99-.05,2.53.21,5.65.39,8.39.39.18,0-.02-.19.28-.19.04,0-.1.25.09.3.05.01.16-.28,1.05-.28.6,0,1.79-.02,2.63-.02.15,0,.04.2.17.2.32,0,.45-.2.53-.2.06,0,.25.19,1.05.18.13,0,0-.18.17-.18.07,0,.28.2.35.2.19,0-.02-.2.17-.2s-.02.2.18.2c.47,0,.02-.2.17-.2.39,0,1.36.18,1.77.19.13,0,0-.19.16-.19.5,0,.04.2.08.2.93.02,2.39-.19,2.55,0l14,.29,11.87-.29c.11.45.47-.13.96,0,.03,0-.02.3,0,.3.4,0,.96-.03,1.56-.01.05,0-.06-.19.1-.19s.02.18.17.18c1.42,0,3.26-.22,4.64-.24,4.09-.05,8.72-.03,12.43-.09.86-.01,7.28-.22,7.5-.05.09.07-.32.33-.09.4.23-.48.97.29.79-.5l9.62-.1c-.3.78.85-.08,1.57.1.1.02-.57.41.52.2-1.08-.55,2.17-.31,2.8-.2l-.35.2,1.13.2-.43-.4c1.29,0,2.47-.36,3.74-.11.17.03.07.29.1.31.06.03.59-.49,1.4-.2-.72.18.48.72.18,0l.17.4c.49-.27,5.42.13,5.59,0,.11-.09-.21-.37-.17-.39.11-.05,2.93-.17,2.27.4l.7-.3c-.73.55.82.33.88.3.04-.02-.28-.31-.17-.39.03-.02,1.01-.02,1.05,0,.09.07-.22.44.29.58.26.07,1.9,0,2.39.02.17,0,.06-.2.2-.2.08,0,.9.28,1.42.3,2.9.09,5.38.07,8.3.34.45.04.94.23,1.13.25.17.02.18-.34.43-.29.03,0,.02.25.3.28,1.27.12,2.7.43,3.81.52,3.67.3,9.03.09,12.92.19.13,0,.06-.2.2-.19.09,0,1.29.35,1.71.36,8.49.21,18.03.4,26.11.33,1.12-.01.73-.09.78-.09.31,0,.08.2.27.2.51,0,1.04-.02,1.57-.02.14,0,0-.19.17-.19s.01.19.19.2c1.58.03,3.84-.37,4.81.54,1.19,1.13-.33,1.99.19,2.86.04.07,1.64,1.07,1.55.36.06.39,1.38.35,2,.3.21-.02.05-.3.1-.3.3-.02.1.22.27.21.44-.03.73-.15,1.36-.16,1.35-.04,3.09.17,4.23-.04l-.07.18c1.81.46,4.09-.11,5.59.77,2.38,1.4-.09,3.25-1.48,4.49-.11.1.19.35,0,.5-.15.12-3.82.38-3.95.29-.08-.05.07-.43,0-.5-.09-.08-3.07-.21-3.24-.21-.41.01-.37.31-.52.31-.09,0,.15-.28-1.41-.35-.93-.04-2.13.27-2.62.26-2.48-.05-6.36-.61-8.96-.69-5.15-.15-10.33.12-15.34.04-.68-.01-1.24-.41-1.4-.42-.32-.01-.99.36-1.05.36-.13,0-.19-.34-.69-.35-.61-.01-1.2.15-1.74.14-2.77-.05-6.01-.29-8.76-.28-.27,0-.49.2-.53.2-.19,0,.02-.21-.17-.2-.16,0-.02.18-.2.19-.96.08-2.54-.38-1.99.6-.47-.05-.19-.66-.26-.69-.04-.02-.78.27-.78.3-.07.22,1.2.35.26.49-.28.04-.63-.41-.78-.44-.59-.12-1.51-.04-2.19-.34.3.79-.68.17-1.72.41-.39.09-.26.36-.3.38-.18.07-.46-.56-.96-.6-.08,0-.05.22-.34.21-.58-.02-.95-.17-1.23-.18-.17,0-.45.27-.52.27-.23-.03-.27-.4-.43-.45-.47-.16-.93.25-.99.25-.58.02-.22-.18-.86-.2-.04,0-.1.21-.19.21-.74.02-.47-.4-.69-.4-.08,0-.11.25-.57.24-1.09-.03-4.96-.22-5.77-.02-.16.04-.19.37-.22.37-.11.02-1.12-1.09-1.22,0-.95-1.05-.74-.35-1.39-.34-1.01,0-1.53-.17-2.71.13-.18.05-.08.3-.11.31-.19.05-.27-.28-.47-.3-1.13-.11-.89.35-2.14-.2-.14.17.18.76.08.79-1.15.37.02-.52-.26-.69-.05-.03-1.25.2-1.49.18-3.58-.3-7.33-.43-11.02.02-.07,0-.06-.21-.16-.2-2.09.3-1.4.84-1.58.89-.1.03-1.75-.59-.79-.69-.89.15-1.96-.16-2.68-.17-.57,0-5.52.28-5.79.35-.2.05,0,.32-.19.31-.21,0,.06-.26-.19-.3-.3-.05-1.32-.13-1.82-.19-.03,0,.13.22-.17.2-.03,0,.03-.29-.01-.29-.33-.02-2.56.52-2.7.5-.1-.02.05-.39-1.44-.48-1.8-.12-4.64.05-6.61.09-.54.01-1.85-.23-2.26-.18-.32.04-.27.31-.84.41-.19.03-1.55-.2-2.12-.19-2.02.04-3.41.54-5.54.25.65.68-.22.18-.27.2-.06.03.35.81-.68.58-.89-.2.31-.43.25-.68-2.13-.13-1.02,1.15-2.79.1-.16.16.21.57.17.59-.08.04-.75-.02-.96,0,.9-1.24-.58-.17-.87-.2-.19-.02-.24-.3-.27-.3-.16,0-.39.24-.78.21-.44-.04-.3-.29-.7-.32-.81-.05-1.53-.03-2.19.21.68-.56-1.51-.25-1.57-.2-.04.03.5.53-.09.69s-.17-.64-.26-.69c-.15-.09-.9.17-1.13.15-.3-.02-1.31-.12-1.58-.16-.19-.02-.04-.28-.09-.29-.23-.05-.29.29-.43.3-.28.01-.55-.35-.79-.39-.05,0-.74.39-.79.39-.48.06-.11-.28-.35-.3-.37-.03-.33.28-.56.3-1.39.1-3.65-.03-5.2,0-4.28.11-9.48-.04-13.6.22-.57.04-.83.04-1.1.36-.74-1.13-.25.2-.87.3-.96.16-.83-.17-.79-.6-.65,1.2-1.21.17-1.48.12-.6-.1-5.56-.5-5.94-.51-.41,0-1.01.3-1.58.3-8.5-.1-17.08-.03-25.54.06-1.41-.81-3.35-.11-4.89-.11-.77,0-1.98-.16-2.98-.16-.37,0-.18.21-.34.21-.14,0-.15-.27-.34-.27-1.43-.02-3.18.08-4.56.05-.16,0,0-.18-.17-.18-.19,0,.02.2-.17.2-.06,0-.44-.27-1.22-.24-.42.01-3.21.57-2.19.74-1.05-.21-1.13.12-1.75-.45-.09-.08.49,0,.35-.15-.18-.18-1.54-.05-1.57,0-.03.04.62.72-.44.5-.18-.04-.05-.29-.09-.3-.12-.04-.43.13-.52.1-.05-.01.11-.32-.61-.4l.26.39-1.4-.15.35-.15c-.72-.25-1.9.2-2.01.2-.12,0-.2-.29-.39-.3-.93-.02-.74.2-.83.2-.17,0-.03-.18-.17-.18-.9-.04-.99.19-1.06.18s-.91-.28-1.14-.3c0-.3-.17-.29-.17,0-2.04-.19-.58.14-.7.3-.01.02-.66,0-.68-.01-.35-.19.19-.47.16-.48-.98-.31-3.18.74-3.76.78-.49.03-.87-.57-1.48-.09l.17-.49c-.27-.02-.29.3-.44.3-.23,0,.1-.33-.26-.3l-.18.49c-.32-.24-.99-.11-1.22,0-.27-1.33-.83,1.17-1.05-.4-.58.15-2.34,1.09-1.4.2-.58-.23-2.24.42-2.36.39-.27-.06-.24-.38-.28-.39-1.19-.17-2.12.54-1.99-.31-.12,1.13-.85.84-.79-.1-.71-.02-.03.84-.43.79-.33-.04-.23-.48-.26-.49-.03-.01-.43.14-.7.1-.33.5-.55.24-.52-.2.38.12-.05.11.52.2.57-.85-.88,0-1.4-.4.43.3-.05.57-.35.4-.12-.07.29-.48-.35-.4.08,1.02-1.61.6-1.58.3l-.35.5c-.27-.29-1.24-.79-.87-.2-.59.09-.19-.25-.45-.3-.58-.12-.73.3-.78.3-.24,0-.3-.28-.92-.28-.4,0-.92.7-.65-.21l-.35.3-.17-.4-.17.4-.17-.49-.61.69c-.35-1.05-1.14-.97-1.14-.05-1.25-.03-1.57.18-1.23-.65-.89,1.28-.67.3-.96.3-.13,0-.82.4-.88.39-.56-.09.03-.27-.08-.3-.84-.21-2.16.29-1.58-.4-.56.16,0,.33-.7.5h-.17c-1-.77-.77-.22-1.22-.3-.06,0,.12-.25-.1-.3-.98-.19-.73.86-2.35.59.65-.22-.03-.2,0-.59l-.43.3-.26-.3c-.37.92-.61,0-.79,0s-.24.29-.27.29c-.35,0,.04-.24-.42-.19-.49.05-1.27.71-1.59-.1-.24.54-1.06.09-1.66.59.17-1-.35-.4-.7-.49-.04,0,.03-.29,0-.3-.25-.05-.95.52-1.17.58-.56.15-1.41-.21-1.45-.18-.17.15.38.43-.44.4-.25,0-1.22-.78-.78,0h-2.97s.03-.42,0-.49c-.47.44-.62.88-1.13.2l-.44.3c-.36-1.1-.4-.3-.9-.26-1.4.1-2.91-.53-3.12.17.01-.89-.3,0-.6.07-.1.02-1.92-.01-2.23-.03-.36-.02-.25-.23-.4-.24-.18-.01-.05.3-.09.3-.22,0-.3-.2-.52-.2-.04,0,.21.24-.35.2-.05,0,.1-.29-.09-.3s-.01.27-.1.29c-1.31.25-.97-.28-1.04-.29-.25-.04-.1.34-.7.2-.06-.01.1-.3-.09-.3-.15,0,.18.44-1.21.38-.25-.01-.21-.27-.36-.28-.05,0-.43.38-.78.3-.02,0,.05-.26-.03-.28-.64-.1-1.65-.33-1.38.28-.28.05-.15-.2-.17-.2-.38.05-2.6.08-2.8.05-.66-.11-.22-.38-.34-.45-.12-.06-3.3.16-2.27.59-.72.18-1.4-.39-1.49,0l-.09-.49c-.6.14-.52.71-1.57.49-.1-.02.05-.41-.44-.4-.32,0-.53.27-.74.28-1.02.06-1.98.09-2.67-.28l-.17.4c.33-.46-.62-.44-1.22-.39-.06,0,.1.27-.09.29-.27.03-.99-.39-1.05-.39-.04,0-.18.47-.52.39-.28-.06-.17-.33-.35-.39-.13-.05-.8.39-1.06.39-.38,0-.27-.45-.69-.39-.24.03.17.27.09.3-.29.09-.54-.23-.7-.2-.05,0,.11.28-.09.3-.15.02-.09-.39-.35-.4-.23,0-.18.35-.35.39-.19.05-.48-.36-1.23-.38-.14,0-2.1.25-2.76.28-.18,0-.05.2-.2.2-.12,0-.46-.63-.78,0,.31-.22-1.4-.5-1.49-.49-.21.03.63.34,0,.49-.21.05-1.13-.1-.6-.39-.63-.09-.25.35-.35.4-.63.26-1.73-.42-1.83-.4-.17.04-.09.38-.35.39-.3.02-.48-.84-.96-.1.13-.43-1.21-.62-.88,0l-.35-.3c-.46,1.07-3.8-.86-4.2.3.31-.71-.84-.18-1.4-.35-.41-.13-.45-.5-.62-.54-.1-.02-.03.49-.61,0-.23,1.28-.86.21-.96.19-.8-.16-.55.32-.88.39-.28.05-3.91-.18-4.67-.16-.14,0-.38.18-.74.19s-.83-.29-.96-.21c-.07.04.53,1.03-.79,0-.85,1.25-.58.23-.79.1s-1.41.2-1.49.2c-.16,0,.03-.19-.34-.2-.92-.04-2.3.3-2.2-.29-.27.54-1.08.18-1.13-.3-.52.87-3.29.41-4.71.4-.25,0-.41.18-.67.17-.23,0-1.86-.27-1.96-.28-.12,0-1.23.77-1.75-.2-.16.44-.36-.03-.61,0-.07.01-.88.52-1.23.39-.02,0,.05-.25-.03-.27-.93-.19.06.1-.67.07-.05,0,.1-.28-.09-.3s.02.25-.19.31c-1.52.45-1.04-.1-1.12-.11-.57-.08-.93.29-.98.29-.44,0-1.21-.25-1.38-.25-.44,0-.56.4-.87.35-.57-.09-.19-.5-.35-.49-.1,0-1.47.68-1.57.69-.06,0-.38-.19-.55-.18-.47.03-1.48.49-.76-.21-.6-.02-1.99.2-2.51.18-.29-.01-.68-.28-.73-.28-.17,0-.19,1.23-.87.1-1.16,1.05.05-.32-1.73.08-.21.05,0,.31-.19.31s-.02-.25-.12-.28c-.56-.13-.86,0-1.09-.03-.17-.02-.09-.19-.11-.19-.3-.02-.1.21-.26.2-.43,0-.58-.2-.95-.2-.03,0-.07.27-.25.27-.73-.01-.75-.32-1.55-.27-.19.01-.26.29-.39.3-.08,0-1.04-.47-.09-.59-.73-.17-1.33.43-1.94.34-.7-.1-.13-.65-.42-.64-.11,0,.06,1.08-1.31.59-.06-.02.25-.25.18-.3-.18-.12-1.16.17-1.57-.1.83.67-2.15.34-2.88.39-.46.03-1.57.42-1.75.41-.66-.03.48-.65-1.73,0-.35-.39-1.77-.15-2.78-.39-.27-.06-.02-.27-.21-.3-.45-.06-.19.28-.27.3-.2.03-.69-.07-1.16.04-.1.02-1.16.84-.41-.03-.59.05-1.51.24-1.4-.3l-.17.3c-.94-.38-.65,0-.7,0-.59.03-.22-.2-.43-.19-.05,0-.48.15-1.02.2-.13.01,0-.49-.9.39l.26-.39c-.78-.02-1.21.17-1.05-.4-.96,1.14-.42.49-.71.4-.2-.06-.6.04-.85-.02-.07-.02.15-.44-1.06-.29-.03,0,.1.29-.1.3-.23.02-3.28.02-3.45,0-.58-.09-.64-1-1.35,0,.51-1.2-.8-.03-1,0-.55.09-3.09.07-3.54-.2.15.93-.63-.16-.87-.1-.04.01.11.27-.1.3-.85.14-.99-.21-1.12-.2-.02,0,.04.16-.08.18-1.42.18-.9.31-.97.32-.15.02-.28-.17-.43-.17-1.29.03-.31-.05-1.08-.2-1.4-.27.04.7-1.45.35-.08-.02.15-.48-1.24-.28,1.16.51-1.87.39-2.46.35-.86-.06-.82-.34-.87-.35-.57-.05-.16.24-.61.2-.19-.02.13-.18-.53-.2-.09,0,.05.21-.35.2-.23,0-.06-.28-.18-.29-.14-.02-1.17.6-2.6.49-1.29-.1.03-.2-.55-.49-.52.62-.65.09-.72.09-2.31.1-.93.19-1.29.4-.1.06-2.66.1-2.79.1-.06,0,.19-.37-.26-.3-.18.03-.24.29-.27.3-.56.03-.25-.21-.43-.2-.24.01-.5.15-1.19.17-.48.02-.44-.27-.56-.27-.07,0-.48.39-1.24.39-.06,0-.71-.18-1.22-.2-.36,0-.64.19-.69.18-.3-.02-.38-.37-.52-.38-.33-.02-.61.3-.7.3-.13,0-.06-.21-.34-.22-.53-.02-.78.11-1.06.1-.59-.02-2.12-.21-3.12-.16-.21,0-.55.31-1.08.28s-.1-.26-.35-.3c-.44-.06-.4.39-.44.4-.34.09-.59-.28-.81-.29-.33-.02-.48.26-.67.27-.12,0-.26-.18-.52-.18-.18,0-.05.2-.09.2-.31,0-.13-.2-.17-.2-.63.02-.21.18-.43.2-.07,0-1.24-.2-1.31-.2-.1,0-.83.36-1.84.39-.8.03-2.32-.19-2.97-.2-.2,0,.13.2-.35.2-.18,0,0-.2-.18-.2-.47,0-.03.19-.7.2-.09,0,.05-.22-.35-.2-.14,0-.08.25-.42.26-.8.02-2.06.14-1.94-.35-.19.87-.4.29-.46.29-.44.02-1.63.21-1.72.21-.04,0-.39-.37-.62-.3-.02,0,.07.28-.11.31-.27.04-1.6.16-1.92.18-.95.06-2.54-.02-3.48.02-7.61.32-15.16.47-22.91.58-.41,0-.21.53-.78-.09.34.63-1.43-.25-.53.4-.16,0-1.29-.2-1.39-.2-.04,0,.05.28-.6.3-.08,0-1.1-.62-.63.19l-.79-.39v.2c-.51-.19-1.73.19-1.93.19-.06,0-.86-.63-.43-.04-1.03.12-.32-.22-.78-.25-.04,0-.42.19-.61.2-.04,0,.13-.21-.17-.2-.04,0,.1.24-.09.3-.35.1-.24-.2-.26-.2-.4.03-1.42.36-2.27.1l.35.2c-.78.24-.53-.2-.61-.19-.51.02-2.49.45-3.16.49-.11,0,0-.21-.16-.2-.6.04-2.3.51-3.25.35-.16-.03-2.53-1.04-2.6-1.13-.4-.46-.2-2.6.45-2.98s2.92-.58,2.52-1c.58.22,1.16.28,1.05-.3.69.71.98-.15.47-.66-.05-.05-1.26-.57-1.33-.69-.3-.57.19-1.5.25-2.07.06-.51-.59-.5.09-1.36.97-1.22,3.29-1.01,5.31-.97.17,0,.23.3.37.3.16,0,.05-.18.17-.18.62,0,1.7.15,2.1.15.17,0,.36-.24.54-.24.55,0,.99,0,1.63-.01.06,0-.12.19.19.18.02,0-.06-.18.08-.18.92-.03,1.26-.15,1.93.08l-.09-.2c.81.43,1.84-.07,2.02-.07.98-.03,2.12.13,2.97.13.2,0,.68-.15,1.23.04l-.09-.19c.95.3,1.32-.09,1.4-.1.12,0,.98.57.96-.2.39.64,1.83-.05,2.53,0l-.35.2c1.29-.39.2,0,.7,0,.62,0,.22-.2.44-.2.06,0,0,.2.7.2.25,0-.36-.2.18-.2.16,0,.05.21.19.2.34,0,1.26-.22,1.65-.21.05,0-.1.3.09.3.04,0,.16-.23.73-.25,1.7-.06,3.37-.19,5.02-.24,1.29-.04,3.42-.12,5.1-.2.04,0-.03.22.7.17.13,0,0-.16.17-.18.19-.02-.01.22.17.2.16-.02,1.39-.28,1.32-.49.29.88.47-.1.61-.1.12,0-.21.32.18.39.46.08.14-.33.35-.3.19.03.04.3.09.3.3,0,.09-.2.28-.2.6,0,.92.02,1.56,0,.39-.01.18.21.34.21.04,0-.08-.06.61-.1.04,0-.22-.18.09-.29.03,0-.03.39.35.29.22-.05-.04-.29.17-.3.18,0,.53.6.88,0v.29c.24-.41,2.63-.32,3.06-.1-.58-.76,1.36.23,1.31-.19,2.54-.26,5.06-.09,7.71-.16.49-.01.38-.24.52-.25.07,0,.57.65.61-.2.27.58,1.19.74.7,0,.36-.04.04.3.26.3s-.1-.33.26-.3v.4c.62-.12.55-.71.88-.1.29-.63.58.04,1.04,0,.05,0-.1-.28.09-.3.07,0,1.14.39,1.23.39.1,0-.08-.29.17-.29.07,0,.59.52,1.05-.1l.09.3.35-.3c.36.64.81.01.88,0,.57-.08.18.24.52.19.03,0-.03-.29,0-.3.65-.12,1.12.58,1.92,0l-.26.3c1.51-.41.71-.03,1.04,0,.41.04-.17-.52.44-.4-.12.71.72-.32,1.05.4-.46-.64.4-.37,1.14-.2v-.2c.8.24.41-.05,1.14.19l-.09-.2c.45.23,1.47-.09,1.57-.1.11,0-.12.31.26.29.2,0,.15-.29.18-.29.77-.04,1.67.12,2.17.1.18,0,.19-.26.37-.3.49-.1.11.38.35.39.07,0,.55-.29,1.31-.36.65-.05,1.4.07,1.66.06.18,0,.24-.29.26-.29.27-.04.23.29.43.29.1,0,.42-.21.61-.2.03,0,.07.36.44.3.24-.04.09-.55.95-.39.24.04-.44.58.54,0,0,.7.17-.16.96,0,.27.06-.29.6,1.22-.1-.69.87.77.09.87.1.2,0-.12.42.43.3.12-.03.14-.66.7,0-.11-.35.23-.29.7-.4-.77.87.19.12.26.1.07-.02.84.59.09-.3.53.24.96.63,1.22.1.1,1.08.5-.67.87.4v-.49s.44.39.44.39c.39-.73.57-.02.61,0,.25.12.15-.77.69,0,.16-1.04.75.86,1.05-.4l.35.3c.35.03.02-.26.27-.3.17-.03.55.03.78,0-.41.33.16.22.44,0l-.09.3.35-.3.17.3c.68.08.09-.28.17-.3.18-.04,1.34.11,1.75.1.12.19.13,0,.17,0,1.02-.04,2.04-.16,3.07,0l-.09-.19c.45.18,2.24-.23,2.35-.2.35.08.1.4.44.4.02,0-.05-.19.12-.2,1.17-.03,2.15-.24,2.95-.27.45-.02,1.9.26,2.36.18.06-.01-.1-.3.09-.3.22,0-.33.38.86.27.25-.02.22-.28.37-.28.16,0,.01.19.2.19.77,0,.99-.06,1.56-.09.13,0-.11.25.43.2.09,0-.21-.58,1.4-.3.11.02-.46.35.09.3l.53-.39.09.39c.64-.03.55-.84.88,0,.26-.39.82-.52.61,0,.29-.07.21-.36.27-.39.33-.2.3.35.7.2l-.17-.39c.18.08.33.13.52.2.03.01.07.47.17,0ZM221.75,1.6h-.35v.1h.35v-.1ZM150.41,1.7h-.35v.1h.35v-.1ZM161.25,1.7h-.35v.1h.35v-.1ZM162.04,1.7v.1l.09-.05-.09-.05ZM164.13,1.7v.1l.09-.05-.09-.05ZM164.66,1.7v.1l.09-.05-.09-.05ZM165.01,1.7v.1l.09-.05-.09-.05ZM167.54,1.7h-.35v.1h.35v-.1ZM170.26,1.7v.1l.09-.05-.09-.05ZM170.6,1.7v.1l.09-.05-.09-.05ZM176.73,1.7v.1l.09-.05-.09-.05ZM187.74,1.7v.1l.09-.05-.09-.05ZM191.06,1.7v.1l.09-.05-.09-.05ZM142.28,1.8v.1l.09-.05-.09-.05ZM142.8,1.8v.1l.09-.05-.09-.05ZM149.88,1.8h-.35v.1h.35v-.1ZM155.04,1.8v.1l.09-.05-.09-.05ZM156.62,1.8v.1l.09-.05-.09-.05ZM156.97,1.8v.1l.09-.05-.09-.05ZM159.24,1.8v.1l.09-.05-.09-.05ZM131.35,2.1v-.2h-.17v.2h.17ZM139.48,1.9v.1l.09-.05-.09-.05ZM143.68,1.9v.1l.09-.05-.09-.05ZM127.06,2v.1l.09-.05-.09-.05ZM129.51,2v.1l.09-.05-.09-.05ZM134.41,2v.1l.09-.05-.09-.05ZM117.18,2.3c.31-.23-.33-.22-.35-.05,0,.09.34.06.35.05ZM263.37,2.3v-.2h-.17v.2h.17ZM279.46,2.3v-.2h-.17v.2h.17ZM117.62,2.2v.1l.09-.05-.09-.05ZM286.1,2.2h-.35v.1h.35v-.1ZM105.82,2.69v-.2h-.17v.2h.17ZM107.04,2.69v-.2h-.17v.2h.17ZM110.1,2.49v.1l.09-.05-.09-.05ZM98.56,2.59v.1l.09-.05-.09-.05ZM100.83,2.59v.1l.09-.05-.09-.05ZM413.93,2.69s-.62-.12-.7-.1c-.58.11,1.31.43.7.1ZM101.53,2.69v.1l.09-.05-.09-.05ZM415.85,2.69h-.35v.1h.35v-.1ZM417.16,2.79v.1l.09-.05-.09-.05ZM425.21,2.79v.1l.09-.05-.09-.05ZM427.92,2.99c.14-.14-.55-.24-.52-.05.01.09.51.06.52.05ZM89.12,2.99v.1l.09-.05-.09-.05ZM78.98,3.29v.1l.09-.05-.09-.05ZM79.33,3.29v.1l.09-.05-.09-.05ZM74.87,3.49h-.35v.1h.35v-.1ZM58.87,4.08v.1l.09-.05-.09-.05ZM53.1,4.18v.1l.09-.05-.09-.05ZM36.83,4.87v.1l.09-.05-.09-.05ZM32.64,4.97v.1l.09-.05-.09-.05ZM105.73,12.7v.1l.09-.05-.09-.05ZM110.28,12.7v.1l.09-.05-.09-.05ZM110.8,12.7v.1l.09-.05-.09-.05ZM84.83,13.29v-.2h-.17v.2h.17ZM98.47,13.39v-.2h-.17v.2h.17ZM106.51,13.49s.02-.28,0-.3c-.23-.18-.21.47,0,.3ZM82.38,13.49v-.2h-.17v.2h.17ZM102.06,13.29v.1l.09-.05-.09-.05ZM174.19,13.59s.02-.28,0-.3c-.23-.18-.21.47,0,.3ZM86.84,13.39v.1l.09-.05-.09-.05ZM116.92,13.39v.1l.09-.05-.09-.05ZM133.01,13.39v.1l.09-.05-.09-.05ZM169.64,13.59v-.2h-.17v.2h.17ZM84.22,13.49v.1l.09-.05-.09-.05ZM84.75,13.49v.1l.09-.05-.09-.05ZM174.63,13.49v.1l.09-.05-.09-.05ZM211.35,13.49v.1l.09-.05-.09-.05ZM451.26,13.49v.1l.09-.05-.09-.05ZM89.99,13.59v.1l.09-.05-.09-.05ZM92.96,13.59v.1l.09-.05-.09-.05ZM121.73,13.59h-.35v.1h.35v-.1ZM144.2,13.59v.1l.09-.05-.09-.05ZM183.37,13.59v.1l.09-.05-.09-.05ZM189.84,13.59v.1l.09-.05-.09-.05ZM200.33,13.59v.1l.09-.05-.09-.05ZM222.89,13.69v.1l.09-.05-.09-.05ZM232.16,13.79v.1l.09-.05-.09-.05ZM241.08,13.79v.1l.09-.05-.09-.05ZM231.89,14.08c.31-.23-.33-.22-.35-.05,0,.09.34.06.35.05ZM254.63,14.08v-.2h-.17v.2h.17ZM259.61,13.89v.1l.09-.05-.09-.05ZM268.26,14.08v-.2h-.17v.2h.17ZM204.27,13.99h-.35v.1h.35v-.1ZM224.73,13.99s-.37-.04-.35.05c-.04.2.04.19.26.05.06-.02.12-.07.09-.1ZM232.94,14.18c.14-.14-.55-.24-.52-.05.01.09.51.06.52.05ZM264.42,14.18v-.2h-.17v.2h.17ZM218.34,14.08v.1l.09-.05-.09-.05ZM235.04,14.28v-.2h-.17v.2h.17ZM273.73,14.18c0-.07-.1-.12-.22-.12s-.22.05-.22.12.1.12.22.12.22-.05.22-.12ZM275.26,14.28v-.2h-.17v.2h.17ZM260.66,14.28v.1l.09-.05-.09-.05ZM288.81,14.28v.1l.09-.05-.09-.05ZM292.92,14.28h-.35v.1h.35v-.1ZM344.25,14.58v.1l.09-.05-.09-.05ZM505.91,14.68c-.36-.21-1.18.05-.87.2.04.02.9-.1.87-.2ZM506.7,14.68v.1l.09-.05-.09-.05ZM14.71,15.77v-.2h-.17v.2h.17Z"/>
      <path class="cls-1" d="M321.77.31c-.24.17-.83-.16-.52-.3.2-.09.68.18.52.3Z"/>
      <path class="cls-1" d="M470.76,14.28c-.17-.01-.64.03-.7,0-.37-.17.57-.35.7,0Z"/>
      <path class="cls-1" d="M290.3,14.38s.02.29,0,.3c-.46.26-.46-.56,0-.3Z"/>
      <path class="cls-1" d="M310.23,14.68c.11.09-.13.29-.35.3-.16-.17.15-.47.35-.3Z"/>
      <path class="cls-1" d="M406.23,14.48c.3.11-.23.29-.52.2.02-.12.36-.26.52-.2Z"/>
      <path class="cls-1" d="M131.17,13.79s.07.3-.09.3c-.34,0-.34-.5.09-.3Z"/>
      <path class="cls-1" d="M286.1,14.38c.14.14-.55.24-.52.05.01-.09.51-.06.52-.05Z"/>
      <ellipse class="cls-1" cx="122.61" cy="1.8" rx=".22" ry=".12"/>
      <ellipse class="cls-1" cx="246.06" cy="14.08" rx=".22" ry=".12"/>
      <ellipse class="cls-1" cx="149.36" cy="13.88" rx=".22" ry=".12"/>
      <path class="cls-1" d="M92.35,13.89s-.35.04-.35-.05c.01-.17.65-.18.35.05Z"/>
      <path class="cls-1" d="M109.66,13.98c-.21.18-.23-.47,0-.3.02.01.02.28,0,.3Z"/>
      <path class="cls-1" d="M321.43,15.08c.31.12-.83.13-.52,0,.02,0,.49-.01.52,0Z"/>
      <path class="cls-1" d="M148.31,14.08c-.21.18-.23-.47,0-.3.02.01.02.28,0,.3Z"/>
      <path class="cls-1" d="M374.59,14.97c-.28.19-.59-.3-.17-.15.07.04.23.11.17.15Z"/>
      <path class="cls-1" d="M430.89,14.38c-.21.18-.23-.47,0-.3.02.01.02.28,0,.3Z"/>
      <path class="cls-1" d="M492.44,14.88s-.35.04-.35-.05c.01-.17.65-.18.35.05Z"/>
      <path class="cls-1" d="M300.62,14.48c.31.23-.33.22-.35.05,0-.09.34-.06.35-.05Z"/>
      <path class="cls-1" d="M384.55,14.58c-.28.19-.59-.3-.17-.15.07.04.23.11.17.15Z"/>
      <rect class="cls-1" x="266.35" y="14.48" width=".17" height=".2"/>
      <rect class="cls-1" x="117.88" y="1.7" width=".35" height=".1"/>
      <rect class="cls-1" x="432.12" y="14.18" width=".17" height=".2"/>
      <rect class="cls-1" x="427.75" y="14.18" width=".17" height=".2"/>
      <rect class="cls-1" x="228.92" y="14.18" width=".17" height=".2"/>
      <rect class="cls-1" x="296.6" y="2" width=".17" height=".2"/>
      <rect class="cls-1" x="210.74" y="14.18" width=".17" height=".2"/>
      <rect class="cls-1" x="350.98" y="14.78" width=".17" height=".2"/>
      <rect class="cls-1" x="371.96" y="14.78" width=".17" height=".2"/>
      <rect class="cls-1" x="181.71" y="14.09" width=".17" height=".2"/>
      <rect class="cls-1" x="300.79" y="14.88" width=".35" height=".1"/>
      <rect class="cls-1" x="397.14" y="2.49" width=".17" height=".2"/>
      <rect class="cls-1" x="277.71" y="1.7" width=".17" height=".2"/>
      <rect class="cls-1" x="260.4" y="1.7" width=".35" height=".1"/>
      <rect class="cls-1" x="309.01" y="14.98" width=".17" height=".2"/>
      <rect class="cls-1" x="256.2" y="1.7" width=".17" height=".2"/>
      <rect class="cls-1" x="332.79" y="14.98" width=".17" height=".2"/>
      <rect class="cls-1" x="146.91" y="13.89" width=".17" height=".2"/>
      <rect class="cls-1" x="369.34" y="14.98" width=".35" height=".1"/>
      <rect class="cls-1" x="131.7" y="13.79" width=".17" height=".2"/>
      <rect class="cls-1" x="130.13" y="13.79" width=".17" height=".2"/>
      <rect class="cls-1" x="435.09" y="2.79" width=".17" height=".2"/>
      <rect class="cls-1" x="118.06" y="13.79" width=".35" height=".1"/>
      <rect class="cls-1" x="326.32" y="15.08" width=".35" height=".1"/>
      <rect class="cls-1" x="362.52" y="15.08" width=".35" height=".1"/>
      <rect class="cls-1" x="19.44" y="4.97" width=".17" height=".2"/>
      <polygon class="cls-1" points="446.19 4.08 446.28 4.13 446.19 4.18 446.19 4.08"/>
      <polygon class="cls-1" points="448.12 4.08 448.2 4.13 448.12 4.18 448.12 4.08"/>
      <polygon class="cls-1" points="20.75 4.87 20.83 4.92 20.75 4.97 20.75 4.87"/>
      <polygon class="cls-1" points="25.47 4.87 25.55 4.92 25.47 4.97 25.47 4.87"/>
      <polygon class="cls-1" points="45.75 4.08 45.84 4.13 45.75 4.18 45.75 4.08"/>
      <polygon class="cls-1" points="22.67 4.97 22.76 5.02 22.67 5.07 22.67 4.97"/>
      <polygon class="cls-1" points="45.4 4.08 45.49 4.13 45.4 4.18 45.4 4.08"/>
      <polygon class="cls-1" points="62.89 3.68 62.98 3.73 62.89 3.78 62.89 3.68"/>
      <polygon class="cls-1" points="72.16 3.29 72.24 3.34 72.16 3.39 72.16 3.29"/>
      <polygon class="cls-1" points="93.66 13.69 93.75 13.74 93.66 13.79 93.66 13.69"/>
      <polygon class="cls-1" points="421.36 2.49 421.45 2.54 421.36 2.59 421.36 2.49"/>
      <polygon class="cls-1" points="420.49 2.49 420.57 2.54 420.49 2.59 420.49 2.49"/>
      <polygon class="cls-1" points="347.39 2.49 347.48 2.54 347.39 2.59 347.39 2.49"/>
      <polygon class="cls-1" points="211.35 14.08 211.44 14.13 211.35 14.18 211.35 14.08"/>
      <polygon class="cls-1" points="93.31 2.49 93.4 2.54 93.31 2.59 93.31 2.49"/>
      <polygon class="cls-1" points="449.86 14.08 449.95 14.13 449.86 14.18 449.86 14.08"/>
      <polygon class="cls-1" points="265.03 2 265.12 2.05 265.03 2.1 265.03 2"/>
      <polygon class="cls-1" points="467.88 14.18 467.96 14.23 467.88 14.28 467.88 14.18"/>
      <polygon class="cls-1" points="280.94 14.28 281.03 14.33 280.94 14.38 280.94 14.28"/>
      <polygon class="cls-1" points="402.3 14.28 402.39 14.33 402.3 14.38 402.3 14.28"/>
      <polygon class="cls-1" points="281.64 14.38 281.73 14.43 281.64 14.48 281.64 14.38"/>
      <polygon class="cls-1" points="271.33 14.48 271.41 14.53 271.33 14.58 271.33 14.48"/>
      <polygon class="cls-1" points="299.31 14.58 299.39 14.63 299.31 14.68 299.31 14.58"/>
      <polygon class="cls-1" points="281.47 14.68 281.56 14.73 281.47 14.78 281.47 14.68"/>
      <polygon class="cls-1" points="141.23 1.6 141.32 1.65 141.23 1.7 141.23 1.6"/>
      <polygon class="cls-1" points="278.32 1.7 278.41 1.75 278.32 1.8 278.32 1.7"/>
      <polygon class="cls-1" points="257.16 1.7 257.25 1.75 257.16 1.8 257.16 1.7"/>
      <polygon class="cls-1" points="313.47 15.08 313.56 15.12 313.47 15.17 313.47 15.08"/>
      <polygon class="cls-1" points="322.74 15.08 322.83 15.12 322.74 15.17 322.74 15.08"/>
      <polygon class="cls-1" points="332.53 15.08 332.62 15.12 332.53 15.17 332.53 15.08"/>
      <polygon class="cls-1" points="20.92 15.47 21.01 15.52 20.92 15.57 20.92 15.47"/>
      <polygon class="cls-1" points="483.79 4.87 483.88 4.92 483.79 4.97 483.79 4.87"/>
    </g>
  </g>
</svg>