<?xml version="1.0" encoding="UTF-8"?>
<svg xmlns="http://www.w3.org/2000/svg" viewBox="0 0 104.54 100.89">
  <defs>
    <style>
      .cls-1 {
        isolation: isolate;
      }

      .cls-2 {
        fill: #757575;
        fill-rule: evenodd;
        mix-blend-mode: color-dodge;
        opacity: .75;
      }
    </style>
  </defs>
  <g class="cls-1">
    <g id="Layer_2" data-name="Layer 2">
      <g id="Layer_1-2" data-name="Layer 1">
        <path class="cls-2" d="M47.52,18.13c-2.56,5.42-5.03,10.96-6.68,17.6,3.59,1.44,5.41,4.64,4.41,9.1-.8,1.29-1.8,2.3-2.87,3.22.52,1.16,1.71,1.76,2.63,2.53.95.8,1.71,1.73,2.63,2.53.46.41,1.13.6,1.62,1,.38.31.57.82.96,1.14,2.29,1.98,4.67,3.76,7.07,5.6.93-.13,1.14-1.21,1.67-1.89,2.37-1.78,5.37-2.65,8.8-1.68.44.13.85.54,1.29.57,1.09.07,4.15-2.11,5.18-2.61,5.27-2.63,10.6-4.93,15.61-7.58.18-1.24.87-1.98,1.31-2.81.7-1.34.93-2.89,1.83-3.74,2.61-2.5,7.79.08,9.62,2.09,1.7,1.85,2.25,5.06,1.8,7.19-.72,3.4-3.56,4.13-7.14,4.83-3.49-.34-5.39-2.4-6.86-4.56-6.37,2.97-12.85,5.78-18.78,9.36.49,1.47,1.21,3.3,1.21,5.34,0,.7-.47,1.67-.36,2.34.18,1.01,3.36,2.51,4.52,3.33,3.94,2.78,7.61,5.05,12.07,7.48.88.49,2.04,1.18,2.69,1.29.96.16,1.83-.41,2.56-.36,2.27.1,5.26,1.96,6.52,3.49,1.14,1.4,1.65,4.56,1.14,6.6-.67,2.65-3.72,4.39-7.41,3.28-3.17-.95-5.57-5.03-5.68-8.15-.03-.88.28-1.5.42-2.83-6.11-3.59-11.99-7.33-17.95-11.01-.96.91-1.94,1.81-3.14,2.42-.11,5.13-.82,10.63-.47,15.64,3.18,1.37,6.34,4.92,4.18,8.93-.78,1.45-2.97,3.04-4.6,3.07-5.01.13-8.49-5.55-5.85-10.43,1-.44,1.89-1,3.07-1.18.62-5.01.26-9.73,1.05-15.19-6.53.18-8.8-4.34-8.72-9.75-1.65-1.81-3.69-3.53-5.88-5.16-1.8-1.34-3.4-2.89-5.24-4.44-1.86-1.55-4.28-3.49-6.19-4.83-.8-.56-3.25-1.21-4.75-.98-.96.16-2.86,1.76-3.77,2.45-1.14.87-2.43,1.88-3.56,2.74-.77.59-1.68.9-2.5,1.5-.2.15-.36.65-.64.91-.34.31-1.08.44-1.5.77-.82.65-1.75,1.8-2.81,2.73-1.05.9-2.56,1.81-2.91,2.58s.03,1.78,0,2.51c-.18,3.82-2.45,6.91-5.16,8.39-3.12,1.71-8.1.24-10.22-2.3-1.96-2.35-2.4-6.79-.59-10.27.36-.67,1.55-2.34,2.22-3.05,3.09-3.33,10.32-2.29,12.46,1.63,1.47-.52,2.34-1.86,3.45-2.87,1.01-.41,1.76-1.16,2.55-1.88.41-.05.59-.39,1.06-.34,2.78-2.99,6.47-4.77,9.44-7.5-.95-1.94-1.16-4.47.03-6.91-4.26-4.65-9.68-8.46-13.57-13.37-2.65.98-5.13,2.56-8.67,1.58-3.33-.93-5.01-4.15-4.31-7.32.36-1.58,1.4-2.79,2.04-4.34,2.92-2.16,4.8-6.37,9.77-4.69,1.6.54,2.43,1.81,3.45,3.04.38.46,1.01.77,1.32,1.21,1.39,1.99,1.26,4.6-.05,7.04-.24.47-1.06,1.09-1.13,1.58-.1.83,1.96,2.86,2.71,3.67,3.2,3.51,7.09,6.14,10.14,9.45,1.27-.59,2.25-1.6,3.69-1.96,1.89-6.73,4.69-12.7,6.79-18.34-.93-1.27-2.55-2.11-2.94-3.84-1.01-4.59,1.75-10.86,4.82-12.72,1.24.2,1.37-.6,2.14-.82,4.08-1.11,7.35,2.32,8.59,4.7,1.68,3.2-.23,9-2.92,10.99-.28.21-.62.26-.95.49-1.44.95-3.41,1.85-5.8,1.76l.05-.03ZM48.27,3.15c1.39-.07,2.83.31,3.89.08-1-1.13-2.89-.85-3.89-.08ZM15.06,18.26c1.08.11,1.73.54,2.79.67.21-1.19-2.35-1.47-2.79-.67ZM64.23,67.31c.28.23.44.38.85.24.15-.33-.13-.34-.03-.64-.46-.11-.73,0-.82.38v.02ZM4.94,66.02c.36.24.51-.75.1-.62-.03.2-.07.41-.1.62ZM64.78,95.32c.36-.11.8-.11.95-.49-.03-.44-.36-.69-.9-.77-.33.29-.23.98-.07,1.24l.02.02Z"/>
      </g>
    </g>
  </g>
</svg>