<?xml version="1.0" encoding="UTF-8"?>
<svg id="Layer_2" data-name="Layer 2" xmlns="http://www.w3.org/2000/svg" viewBox="0 0 165.07 195.58">
  <defs>
    <style>
      .cls-1 {
        fill: #fbb03b;
      }

      .cls-2 {
        opacity: .7;
      }
    </style>
  </defs>
  <g id="Layer_1-2" data-name="Layer 1">
    <g class="cls-2">
      <path class="cls-1" d="M26.53,148.83l.12.27c-.38-.06-.56.03-.12-.27Z"/>
      <path class="cls-1" d="M59.77,126.17c-.72.31-1.42.68-2.13.99l2.13-.99Z"/>
      <path class="cls-1" d="M26.53,148.83c-15.99-4.34-27.57-29.07-22.61-45.03,1.23-2.52,2.05-5.99,3.47-8.36,2.19-3.65,5.03-6.8,7.69-10.1.04-.05-.71-.57-.64-.67l15.19-11.96c.7-.94,3.22-.92,3.6-1.11,3.28-1.57,6.34-3.48,9.97-4.9,2.74-1.07,5.95-1.05,8.11-3.14l-.55.9c1.08-.97,2.22-1.2,3.56-1.56,8.68-2.35,18.13-3.76,27.08-3.88,1.43-.02,9.05.84,9.5.68.11-.04,1.01-1.64,1.38-1.95-1.3-3.19-2.28-6.86-3.94-9.91-1.53-2.81-3.56-5.17-5.21-7.89l-.28.78c-.39-1.49-1.5-2.68-2.51-3.75-1.31-1.39-6.68-6.45-7.81-7.19-.08-.05-1.81.12-1.89.07-.75-.4.57-.83.16-1.04-.09-.05-1.88-.02-1.97-.06-.06-.03.07-.71-.22-.85-.81-.41-1.99-1.16-2.52-1.4-.16-.07-.68.36-.77.32-.12-.05-.03-.8-.23-.89-.35-.15-2.01-.04-2.7-.32-1.44-.58-2.03-.69-3.29-1.14-2.16-.77-5.06-2.36-7.74-3.11-.07-.02-1.22.58-1.29.57-.11-.03-.27-.93-.53-1-2.26-.58-5.53-.84-7.91-1.32-.38-.08-.54-.68-.85-.74-.35-.07-1.82.41-2.33.32-.09-.02-.15-1.03-.36-1.06s-3.35.28-4.18.17c-1.46-.2-1.13-.91-1.21-.92-4.67-.54-11.27-.45-16.17-.59-.03,0,.07-.57-.01-.57-3.73-.06-7.78.81-11.53.94-.35.01-.25-.67-.29-.67-.39,0-1.83.88-2.52.85l1.86-.87-3.26-.74c3.68-.77.71-.85.96-1.42.17-.39,2.11-.88,2.13-1,.05-.33-2.72-1.63,1.79-3.11-2.03-.58.77-.92.82-1.03s-.71-.5-.64-.67c.25-.57,2.3-.96,2.4-1.12.06-.11-.72-.54-.64-.67.28-.44,3.58-1.53,4.38-1.73l-1.56-.56,2.39-1.12c-.18-.59-.89.34-.98-.02-.18-.76,6.11-1.96,7.05-2.08.69-.09,4.54.63,4.78.55.7-.22,1.38-1.34,3.71-1.69,1.63-.24,2.68.55,2.83.55,2.21,0,5.09-.43,7.15-.32-1.22.74.05.25.12.27.79.14,1.59-.04,1.65.04.23.36-1.46.43-1.15,1.02,4.6-1.18,11.1,1.01,15.93,2.13,5.97,1.38,9.97,2.27,15.68,5.03,2.2,1.06,4.7,2.29,7.11,4.1,1.12.84,2.49,2.89,3.24,3.57.04.03.73-.41.79-.35,3.91,3.7,8.52,10.36,11.62,14.87.24.34.86.03.88.07.29.43-.48.39-.34.61,1.14,1.79,2.33,3.52,3.29,5.42,2.43,4.84,4.7,10.44,6.38,15.36.09.27-.47.32-.39.57.27.78.62-.3.96.68.04.12-.09,2.51-.05,2.63.33.99.7-.03.89.55,0,.03-.48.16-.42.35.5,1.5,1.28,4.35,1.9,5.58.09.17.56-.09.68.05.41.5-.84,1.8.83.42-1.14,1.67,1.82,1.48,2.06,1.64.4.25-.71.55-.28.77,1.58.83,4.06,1.54,6.14,2.63.13.07.68-.36.77-.31.05.03.07.85.52,1.09,1.16.64,2.65.8,3.83,1.55,4.32,2.76,7.8,6.06,11.25,9.84,2.01,2.2,4.23,4.96,6.39,8.27.32.49.72.1.74.13.28.45-.59.31-.25.9.66,1.14,1.91,2.73,2.41,3.74.14.28-.54.19-.33.67.03.07.45-.47.65.02.01.03-.6.06-.37.66.37.94.82.14,1.18,1.07.03.09-.45.37-.37.57.62,1.54.78,3.25,2.28,4.22l-1.06.17c.23,1.67,2.68,7.29,2.74,8.31.02.35-1.26-.18-.62,1.42,0,.01-.47.48.12.27.06.59,1,1.45.07,2.24l-.51-.41c.43,1.44.89,3.62.91,5.1,0,.31-.75.61-.75.71,0,.57.68,1.11.68,1.7,0,.25-.59,1.58-.6,1.95,0,.21,1.39,1.01.02.81l.39,4.36-1.17-.43.74,1.6c-1.89-.4-.28.12-.24.89.04.83-.97.58-.98.65-.03.28.9.72.78,1.27-.1.47-1,.65-1.05.84-.05.23.37.78.24,1.31-.31,1.24-1.02,2.1-1.22,2.78-.48,1.56-1.32,5.25-2.34,7.64-.07.15-.7.09-.99.76-.34.78.43.96-.17,2.21-1.96,4.1-5.46,8.25-7.79,12.39-.29.51.2,1.73-1.6,2.4l1.31.04c.32.53-.85.55-.94.76-.44,1.03,15.26-4.04,16.3-4.37,5.37-1.71,10.19-5.97,15.29-1.25,1.23,1.14,3.72,7.32,3.58,8.68-.08.77-.99-1.54-.16,1.88.05.19-.42.32-.42.35.07.53.83-.39.9.55,0,.04-.65-.03-.69.29-.06.52.53,1.13.47,1.41-.04.17-.73.29-.76.38-.01.04.53.36.52.4-.04.13-.94.32-1.06.5-.07.1.71.54.64.67-.15.26-4.92,2-5.56,2.18-.7.2-3.54.19-4.11.36-4.9,1.44-10.47,3.34-14.52,4.55-2.85.85-5.71,1.84-8.57,2.68l-.1-.59c-5.43,2.86-12.14,3.93-17.83,6.36-2.12.91-15.27,8.46-16.1,8.11-.15-.06-1.53-1.76-2.39-2.26-.79-.46-2.18-.11-2.7-.52-.3-.24-3.08-5.37-3.33-6.08-.76-2.15-.3-3.1-.59-4.66-.08-.42-.86-.4-.89-.65,0-.05.81-.33.8-.38-.04-.38-.79-.78-.83-1.72-.14-2.86.77-5.99.72-8.88-.15-9.2-2.08-18.78-2.37-27.82-.09-2.88.57-5.77.45-8.36.72-.67.8.57.91.55.73-.12,1.66-1.36,3.05-1.4,2.89-.09,2.74,2.45,3.54,3.67,6.84,10.49,2.52,13.58,4.97,23.32.15.58,1.09,2.44,1.56,2.57,1.21.32,17.72-13.58,19.18-15.96-.23.14-1.06.71-1.19.23l1.88-1.53c-.08.34-.49.96-.69,1.29,1.21-.74,1.35-1.7,2.43-2.44l-1.25.1c4.33-5.24,8.21-11.06,10.33-17.49l-.71-.15c2.22-4.59,1.88-10.68,3.04-15.72-.62.47-.87-3.53-.44-3.04l-1.24-2.66.77.28c-.81-1.81-1.22-3.8-2.26-5.52-.06-.1-.75-.02-1.32-.79-.38-.52-.36-1.73-.54-1.82-.15-.08-1.31,2.87-.76-.94l-.55.9c-.53-2.33-3.24-2.83-4.09-4.58l-.4.52c-2.03-2.94-6.75-5.37-10.1-7.09-.38-.2-.84.24-.9.21-.15-.08-1.37-2.04-2.32-2.16-.16-.02-2.96,1.04-3.1,1.14s-.77,2.59-.94,3.04c-.73,1.9-1.22,5.28-2.18,7.66-.11.28-.83.04-.79.2.06.24,1.01.6,1.03.81.01.14-1.7,1.96-1.79,2.23-1.01,2.82-1.08,6.07-3.43,8.45-1.01,4.86-3.95,8.87-6.77,12.86-.1.14.32.71.29.75-.12.19-1.07.03-1.19.23-.08.15.69.56.64.67-.1.2-.95.06-1.03.16-1.26,1.65-2.17,2.86-3.7,4.32-.39-.49-.26.11-.27.12-10.19,9.2-19.91,15.01-33.4,19.13-1.27.39-3.3-.1-3.99,1.24l-.12-.6c-1.14.3-2.73,1.99-2.51.2-1.2,1.9-.59.34-1.45.35-.09,0,.66,1.63-.84.05l-8.26.62c.19-1.14-.44-.35-1.31-.04l.28-.77-1.18.23c1.26,1.2,3.93,1.03,5.63.95-1.56,1.96-5.57-.15-7.24-.17-.42,0-.49.94-1.08.93-1.04-.02-2.76-.15-3.79-.31.45-.34.14-.19-.12-.27ZM80.03,111.2c1.39-1.69.87-.38.93-.44.39-.44-.28-.8-.23-.85.15-.18.72.02.86-.14.03-.04-.17-.41.25-.91.37-.44,1-.25,1.03-.29.13-.15-.41-.43-.39-.46.15-.18.76-.01.8-.06.06-.07-.04-1.14.44-1.82.1-.14.42,1.18.87-.56l-.72-.15c.97-.45,2.13-1.71,2.67-2.58.03-.05-.5-.36-.48-.39,2.28-3.82,8.8-15.56,7.72-20.06-.73-3.04-8.89-2.97-11.64-2.95-6.52.05-14.36,1.23-20.71,2.74-.61.14-.86.71-1.02.74s.07-.89-.23-.85c-.2.02-2.87,1.71-3.61,1.67l-.11-.59c-.74,1.64-1.74.65-2.25.81-1.76.55-3.62,1.17-5.31,1.73-1.44.48-2.65,1.83-3.87,2.14-1.01.26-.73-.63-.78-.61-4.79,1.81-9.51,3.92-13.77,6.83-2,1.37-2.8,2.99-4.53,3.34l.52.4c-1.99.96-4.33,3.35-5.82,5.08-19.07,22.29,5.69,31.77,25.65,27.72,3.61-.73,7.91-2.16,11.35-3.52.41-.16,1.99.01,2.13-.99,3.26-1.41,6.16-3.44,9.34-5.01l-1.31-.03,3.72-1.75-.77-.28,1.98-.61-1.04-.15,2.25-.73-.77-.28c1.14.29,1.48-2.97,1.58-.42.54-1.1.49-1.68,1.77-2.11l-.41.51c1.14.2.86-.65-.37-.8.78-.16,1.44-.62,2.13-1-.09.16-.64.72-.15.72l1.47-1.35c-.11-.46-.67-.03-.92.11.43-.46.68-.52.94-.76.49.28.48-.22.53-.25.18-.1.29-.35.41-.52.09-.12.6-.11.47-.38-.08-.22-.5.03-.6.12ZM30.41,148.8l.27-.12-.2-.07-.07.2ZM46.37,147.52l.27-.12-.2-.07-.07.2ZM59.64,143.28l.27-.12-.2-.07-.07.2ZM53.07,84.01l.27-.12-.2-.07-.07.2ZM98.87,161.98l.27-.12-.2-.07-.07.2ZM100.54,163.48l.27-.12-.2-.07-.07.2ZM44.14,19.67l.27-.12-.2-.07-.07.2ZM39.5,1.38l.27-.12-.2-.07-.07.2ZM101.34,99.14l.27-.12-.2-.07-.07.2ZM91.21,60.04l.27-.12-.2-.07-.07.2ZM108.18,84.59l.27-.12-.2-.07-.07.2ZM110.01,85.03l.27-.12-.2-.07-.07.2ZM101.94,52.44l.27-.12-.2-.07-.07.2ZM143.24,131.21l.27-.12-.2-.07-.07.2ZM127.83,97.5l.27-.12-.2-.07-.07.2ZM129.36,99.38l.27-.12-.2-.07-.07.2ZM143.5,128.98l.25.53.26-.12-.25-.53-.26.12ZM143.9,126.36l.27-.12-.2-.07-.07.2ZM144.06,125.31l.27-.12-.2-.07-.07.2ZM144.68,112.04l.27-.12-.2-.07-.07.2Z"/>
      <path class="cls-1" d="M86.18,127.16s.12.62-.27.12l.27-.12Z"/>
      <path class="cls-1" d="M144.65,110.59c-.02-.14,0-.74.28-.78.35.7.6.77-.16,1.05,0-.09-.11-.17-.12-.27Z"/>
      <path class="cls-1" d="M80.03,111.2s.14.25.12.27c-.23.18-.33.45-.41.52-.13.11-.42.14-.53.25-.19-.68.6-.77.82-1.03Z"/>
      <path class="cls-1" d="M78.28,112.99c-.08.04-.2.4-.41.52.12-.21.24-.34.41-.52Z"/>
      <path class="cls-1" d="M37.48.54l-.12-.27c.41.02.53.02.12.27Z"/>
      <rect class="cls-1" x="42" y="65.41" width="6.06" height=".38" transform="translate(108.16 114.04) rotate(161.97)"/>
      <path class="cls-1" d="M5.99,17.19c-.74,1.27-3.1,1.2-4.37,1.06l4.37-1.06Z"/>
      <path class="cls-1" d="M32.04,149.5c.17-.28.86-.16,1.04.16-.33.45-1.36.35-1.04-.16Z"/>
      <path class="cls-1" d="M40.04,67.21c.28.52-.89.62-1.21.88-.3-.49.82-.6,1.21-.88Z"/>
      <path class="cls-1" d="M35.65,68.93c.28.52-.89.62-1.21.88-.3-.49.82-.6,1.21-.88Z"/>
      <path class="cls-1" d="M49.59,64.05c.31.45-.57.52-.94.76-.31-.45.57-.52.94-.76Z"/>
      <path class="cls-1" d="M67.8,140.61c.31.45-.57.52-.94.76-.31-.45.57-.52.94-.76Z"/>
      <path class="cls-1" d="M130.16,101.77c.09-.62.94,1.11.37.8-.04-.02-.38-.73-.37-.8Z"/>
      <path class="cls-1" d="M.83,17.97c.62.09-1.11.94-.8.37.02-.04.73-.38.8-.37Z"/>
      <rect class="cls-1" x="65.97" y="141.34" width=".58" height=".29" transform="translate(-53.61 41.29) rotate(-25.02)"/>
      <rect class="cls-1" x="64.9" y="141.84" width=".58" height=".29" transform="translate(-53.92 40.89) rotate(-25.02)"/>
      <rect class="cls-1" x="23.67" y="148.74" width=".58" height=".29" transform="translate(-60.71 24.1) rotate(-25.02)"/>
      <rect class="cls-1" x="39.06" y="149.03" width=".58" height=".29" transform="translate(-59.39 30.63) rotate(-25.02)"/>
      <rect class="cls-1" x="131.63" y="116.55" width=".58" height=".29" transform="translate(-36.97 66.73) rotate(-25.02)"/>
      <polygon class="cls-1" points="26.7 149.88 26.77 149.69 26.97 149.76 26.7 149.88"/>
      <polygon class="cls-1" points="40.63 67.09 40.7 66.89 40.9 66.96 40.63 67.09"/>
      <polygon class="cls-1" points="37.7 68.46 37.77 68.26 37.97 68.33 37.7 68.46"/>
      <polygon class="cls-1" points="8.8 17.66 8.87 17.46 9.07 17.53 8.8 17.66"/>
      <polygon class="cls-1" points="6.3 17.85 6.56 17.72 6.95 17.88 6.88 18.06 6.3 17.85"/>
      <polygon class="cls-1" points="87.05 126.92 87.12 126.72 87.31 126.79 87.05 126.92"/>
      <polygon class="cls-1" points="12.87 86.86 12.94 86.67 13.13 86.74 12.87 86.86"/>
      <polygon class="cls-1" points="130.97 161.94 131.04 161.74 131.24 161.81 130.97 161.94"/>
      <polygon class="cls-1" points="84.05 42.61 84.12 42.41 84.31 42.48 84.05 42.61"/>
      <polygon class="cls-1" points="108.41 85.78 108.48 85.58 108.68 85.66 108.41 85.78"/>
      <polygon class="cls-1" points="107.8 64.31 107.87 64.12 108.07 64.19 107.8 64.31"/>
      <polygon class="cls-1" points="31.32 149.35 31.39 149.16 31.58 149.23 31.32 149.35"/>
      <path class="cls-1" d="M73.23,109.83c-.07.09-2.41-.13-1.55-.9,1.23-1.09,1.75.65,1.55.9Z"/>
      <path class="cls-1" d="M15.63,113.65c0,.06-.84.79-.94.76-.54-.16,1-1.82.94-.76Z"/>
      <path class="cls-1" d="M66.32,122.15c.31.45-.57.52-.94.76-.31-.45.57-.52.94-.76Z"/>
      <path class="cls-1" d="M63.25,123.9c.31.45-.57.52-.94.76-.31-.45.57-.52.94-.76Z"/>
      <path class="cls-1" d="M30.18,96.16c.62.09-1.11.94-.8.37.02-.04.73-.38.8-.37Z"/>
      <rect class="cls-1" x="69.31" y="119.98" width=".58" height=".29" transform="translate(-44.27 40.7) rotate(-25.02)"/>
      <polygon class="cls-1" points="19.44 106.52 19.51 106.32 19.71 106.39 19.44 106.52"/>
      <polygon class="cls-1" points="30.37 130.64 30.44 130.44 30.64 130.51 30.37 130.64"/>
    </g>
  </g>
</svg>