<?xml version="1.0" encoding="UTF-8"?>
<svg xmlns="http://www.w3.org/2000/svg" xmlns:xlink="http://www.w3.org/1999/xlink" viewBox="0 0 552.66 684.62">
  <defs>
    <style>
      .cls-1 {
        opacity: .5;
      }

      .cls-1, .cls-2, .cls-3 {
        mix-blend-mode: color-dodge;
      }

      .cls-4, .cls-3 {
        fill-rule: evenodd;
      }

      .cls-4, .cls-3, .cls-5 {
        fill: #757575;
      }

      .cls-6 {
        fill: none;
      }

      .cls-2, .cls-3 {
        opacity: .75;
      }

      .cls-7 {
        isolation: isolate;
      }

      .cls-8 {
        clip-path: url(#clippath);
      }

      .cls-5 {
        font-family: NotoSansEthiopic-ExtraCondensedBlack, 'Noto Sans Ethiopic';
        font-size: 128.29px;
        font-weight: 800;
      }
    </style>
    <clipPath id="clippath">
      <rect class="cls-6" x="1.99" y="45.05" width="550.67" height="533.56"/>
    </clipPath>
  </defs>
  <g class="cls-7">
    <g id="Layer_2" data-name="Layer 2">
      <g id="Layer_1-2" data-name="Layer 1">
        <g class="cls-2">
          <text class="cls-5" transform="translate(66.49 533.81) rotate(-37.21)"><tspan x="0" y="0">፪</tspan></text>
        </g>
        <path class="cls-3" d="M443.43,419.04c-.73.17-1.46-.47-2.19-.43-2.41-2.71-6.87-5.78-7.99-9.53.19-.22.29-.44.22-.66,3.42-2.36,6.08-5.7,9.75-8.44,1.95-1.46,3.57-1.86,3.29-3.94-.43-1.18-1.02-1.92-1.32-2.63-1.22-4.54-.19-9.54.23-14.24.39-4.53,1.61-8.93,3.83-13.48.69-1.4,1.87-2.61,2.74-4.05.74-1.22,1.21-2.65,2.08-3.84,1.14-1.55,2.53-3.34,3.84-4.93,3.21-3.91,7.96-5.94,11.72-9.09,3.5-1.43,6.85-3.1,10.51-3.95,2.57-.59,5.22-.79,7.56-1.64.33-.12,1.13-.16,1.65.1.62-.59,1.24-.18,1.86-.76,1.21.38,2.41-.45,3.62.11,7.2-1.75,14.8.24,22.45-1.64.29,0,.55.26.55.55.48,0,.29-.46.77-.76,1.89.18,3.16,1.65,2.85,3.28-.87,4.62-2.59,10.93-3.62,15.45-1.4,3.13-2.25,6.75-3.28,10.08-.28.89-.25,1.85-.55,2.74-2.19,6.59-5.57,12.84-7.89,19.72-4.83,6.42-8.69,13.1-14.9,16.87-1.54.93-3.37,1.17-4.93,2.3-4.79,1.22-9.78,1.73-14.35,1.86-1.64.05-3.15-.15-4.82-.22-2.55-.12-5.19.55-7.78-.11-1.57-.4-2.95-1.33-4.59-1.32-2.57,1.99-5.11,6.65-8.33,9.42-.9.77-2.01,1.86-2.96,3.17ZM497.98,340.62c-.75,4.6-2.27,9.19-1.54,13.8,2.01-1.04,3.26-3.22,5.26-4.16,2.52-3.86,8.07-6.04,10.73-9.86-4.82-.38-9.63.33-14.46.22ZM490.1,342.37c-1.77.83-4.75,3.56-6.14,5.04-.44.47-1.6.68-1.75.87-.3.4-.18,1.98.11,2.3,1.09-1.13,1.51-1.43,2.63-1.97,1.89-2.89,6.07-4.45,8.33-7.23-.13-.14,0-.29-.22-.44-.95.26-2.35-.08-2.95,1.42ZM504.22,356.72c-.58.16-1.63.95-1.86,1.65,1.02-.19,2.04,1.02,3.07.22-.88-.59-.62-1.64-1.21-1.87ZM496.12,360.22c-3.45,3.66-6.51,5.42-10.3,9.64,1.73,1.16,4.01.73,5.37,2.09,1.5-.27,2.99.36,4.49,1.2,2.92.24,5.65,1.76,8.76,1.97.62.32,1.24.54,1.86.99,1.25-2.19,1.51-4.38,2.84-6.57-.06-2.01,1.97-4.02,1.65-6.03-4.9-1.77-9.79-2.06-14.68-3.28ZM489.66,348.07c-1.89,2.1-4.92,4.49-7.67,4.38.16,3.1.33,6.21.76,9.31.84-.05,2.41-1.76,2.3-2.52-1.08.49-2.51-.88-2.19-1.97,3.61-3.71,7.18-7.3,10.4-10.63-.13-.14-.01-.29-.22-.44-1.13.45-2.26,1.98-3.39,1.87ZM492.84,356.93c-.59.59-1.17,1.17-1.76,1.76.87.78,1.76-.16,2.63-1.09-.29-.47-.59-.26-.87-.66ZM474.11,345.65c-1.32.89-2.43,1.61-3.29,1.32-1.33,1.22-2.58,2.15-4.05,3.17.13.37.37.73.44,1.1-.62,4.35.7,8.69.11,13.04,1.66,5,1.6,10,3.17,15,4.88-4.39,8.81-8.31,12.71-12.05-4.46.78-3.07-5.22-4.05-7.77-.15-.37.46-.74.43-1.1-.25-.09-.5.18-.76-.11-.12-4.25-.52-9.11.76-13.69-.14-.15,0-.3-.22-.44-1.75.49-3.5.61-5.25,1.53ZM503.57,379.07c.12.18-.11.36-.11.55.51.38,1.02.46,1.54.22.1-.68-.9-1.28-1.43-.77ZM484.84,366.03c.71-1.11,1.74-1.87,2.63-2.63-.65-1.98-2.42,1.16-3.84.77-.04.95.16,1.9-.43,2.85.72-.31.85-1,1.64-.99ZM499.85,378.18c.29.02.58-.36.88-.65-.11-.11-.22-.22-.33-.33-.25.33-.54.66-.55.98ZM492.5,385.96c2.32-2.69,4.23-3.79,6.35-6.79-3.07,2.37-6.17,6.2-9.53,8.22,2.84,1.93,7.09.82,8.87,4.05.55-.76,1.32-1.53,1.64-2.3-.69-.14-1.39-.15-2.08-.99,1.11-2.31,4.22-4.31,4.6-7.01-2.12,1.33-9.34,11.54-9.86,4.82ZM494.37,375.78c.33.4.58.8.55,1.2-2.42,3.17-6.41,6.62-9.75,9.31,1.14.64,2.27.78,3.4.77-1.99-2.78,1.92-4.36,3.83-6.46,1.39-1.52,2.95-2.68,3.95-4.16-.65-.29-1.32-.96-1.97-.65ZM486.04,373.59c.04.41-.08.66-.33.98-1.65,2.18-5.25,4.4-7.01,6.57-.36-.01-.73.64-1.1.22.01.66-.92,1.32-1.53,1.97.85.72,2.62,1.08,3.83,1.21-.33-.53-1.22-.82-1.09-1.76,3.41-3,5.99-4.95,8.32-8.54.75-.15,1.45-.36,1.97,0,2.45,1.7-1.11,4.43-2.41,5.92,2.15-.76,3.4-3.14,5.37-5.15-2.01-.89-4.01-1.4-6.03-1.42ZM452.53,371.62c2.03-5.41,7.91-8.92,11.5-14.13-.97-.36-1.47,1.03-2.08,1.65-2.4,2.42-5.28,5.31-7.56,7.99-.22,0-.44,0-.65,0,.3.94-2.09,2.32-2.85,2.85.15-.1.29-.05.44,0-.55.59-.72,1.17-.44,1.75.62.3,1.25.33,1.87.11-.12.14-.22.29,0,.43.39-.29.12-.66-.22-.65ZM480.68,384.87c.62.46,1.24.83,1.86.77-.04-1.77,2.07-2.47,3.06-3.95-.11-.11-.22-.22-.33-.33-.99,1.3-3.29,2.26-4.6,3.51ZM494.48,392.32c-7.97-2.29-16.47-5.22-24.75-7.23-2.31,1.8-3.78,4.03-6.25,6.24,8.87,3.54,17.74,6.33,26.61,8.65,2.33-2,4.17-3.61,6.24-6.24-.91-.62-1.32-.39-1.86-1.42ZM463.48,362.64c-1.09,2.17-3.12,3.5-4.82,5.25-.73.76-1.71,1.79-1.86,2.73,1.86-1.71,3.52-3.18,4.71-4.92.26-.12.51.15.77.11-.3-1.22,1.99-2.04,2.18-2.85-.13-.14,0-.29-.22-.43-.25.03-.51.15-.76.11ZM459.31,372.93c-.63.8-1.66,1.46-2.19,2.19-.71,1-.91,2.5-2.41,2.85.04.46.31,1.32.77,1.43,3.12-4.4,5.4-7.78,9.53-11.06-.23-.37.19-.73-.22-1.1-1.58,1.65-4.04,3.87-5.48,5.7ZM462.61,376c1-.19,1.76-2.63,3.28-2.63-.23-.44.2-.88-.22-1.31-1.21,1.66-3.21,2.34-3.06,3.94ZM460.41,384.1c-.76.07-1.08,1.11-1.96,1.54.55,1.16,1.02,2.34,1.97,3.5.73-.26,1.46-1.36,2.18-1.97-.69-.27-1.47-.85-1.64-1.64,1.49-2.32,3.6-4.66,5.7-7.45-.41-.26-.13-.51-.55-.77-2,2.55-5.13,4.08-5.7,6.79ZM462.27,375.89c-1.17,1.14-.08,1.14,0,0h0ZM484.62,401.96c.4.42.19.43.66.66.28-.22.38-.44.22-.66-.29.22-.59-.45-.88,0ZM480.68,400.43c-.14,1.31-1.44,2.58-2.52,3.62,1.57.23,3.14-2.29,4.71-2.52.12-.15.23-.3,0-.44-.74.01-1.47-.41-2.19-.66ZM453.4,373.37c.45.36-.15.73.44,1.1.42-.33.57-.66.76-.99-.4-.35-.8-.36-1.21-.11ZM471.59,397.47c-.42.65.18,1.31.22,1.97.99-1.03,1.97-.49,2.96-.11.94,2.12-1.83,3.27-3.51,5.04.4.4.8.18,1.21.33.94-2.23,4.68-3.2,4.71-5.37-1.86-.4-3.73-.91-5.59-1.86ZM450.01,373.47c-2.16,5.41-1.48,10.81-1.97,16.22.54.32,0,.65.55.98-.15.15-.3.29-.45.44.93,1.35,1.18,2.71,1.65,4.05.83.4,1.6,1.48,1.75,2.41,2.35-.91,4.66-4.36,6.57-5.92-3.23-5.81-6.4-12.46-8.1-18.19ZM464.79,395.71c2.44,1.09.64,3.79-.98,4.49-.85,1.98-3.81,5.48-5.15,2.08-.73.17-.97.8-1.53,1.09,1.86.98,3.73.96,5.58.99-.03-.37-.5-.73-.43-1.1,2.07-2.16,4.26-3.99,6.46-5.81.31-.13,1.6-.12,1.21-.55-1.72-.24-3.43-1.99-5.15-1.21ZM455.26,401.08c2.23-2.61,4.73-4.59,6.13-6.79-.11-.11-.22-.22-.33-.33-1.81,1.65-5.11,4.34-5.81,7.12ZM465.56,404.58c.51.4,1.02.13,1.53-.43-.16-.26.12-.52-.33-.77-.4.05-1.15.81-1.2,1.2ZM454.28,401.63c.22.29.43.4.66.44.27-.3.26-.58,0-.88-.22.31-.44.04-.66.44ZM437.73,410.06c1.09,1.56,2.73,4.47,4.82,4.6,1.39-1.61,2.29-2.03,3.07-3.29.11.11.22.22.33.33,1.64-3.24,6.11-7.07,7.01-10.3-.43-.23-.88-.06-1.32-.44-.23-.65-.49-1.31-.88-1.97-4.58,3.54-9.62,6.4-13.03,11.06Z"/>
        <path class="cls-3" d="M74.08,130.44c-2.56,5.42-5.03,10.96-6.68,17.6,3.59,1.44,5.41,4.64,4.41,9.1-.8,1.29-1.8,2.3-2.87,3.22.52,1.16,1.71,1.76,2.63,2.53.95.8,1.71,1.73,2.63,2.53.46.41,1.13.6,1.62,1,.38.31.57.82.96,1.14,2.29,1.98,4.67,3.76,7.07,5.6.93-.13,1.14-1.21,1.67-1.89,2.37-1.78,5.37-2.65,8.8-1.68.44.13.85.54,1.29.57,1.09.07,4.15-2.11,5.18-2.61,5.27-2.63,10.6-4.93,15.61-7.58.18-1.24.87-1.98,1.31-2.81.7-1.34.93-2.89,1.83-3.74,2.61-2.5,7.79.08,9.62,2.09,1.7,1.85,2.25,5.06,1.8,7.19-.72,3.4-3.56,4.13-7.14,4.83-3.49-.34-5.39-2.4-6.86-4.56-6.37,2.97-12.85,5.78-18.78,9.36.49,1.47,1.21,3.3,1.21,5.34,0,.7-.47,1.67-.36,2.34.18,1.01,3.36,2.51,4.52,3.33,3.94,2.78,7.61,5.05,12.07,7.48.88.49,2.04,1.18,2.69,1.29.96.16,1.83-.41,2.56-.36,2.27.1,5.26,1.96,6.52,3.49,1.14,1.4,1.65,4.56,1.14,6.6-.67,2.65-3.72,4.39-7.41,3.28-3.17-.95-5.57-5.03-5.68-8.15-.03-.88.28-1.5.42-2.83-6.11-3.59-11.99-7.33-17.95-11.01-.96.91-1.94,1.81-3.14,2.42-.11,5.13-.82,10.63-.47,15.64,3.18,1.37,6.34,4.92,4.18,8.93-.78,1.45-2.97,3.04-4.6,3.07-5.01.13-8.49-5.55-5.85-10.43,1-.44,1.89-1,3.07-1.18.62-5.01.26-9.73,1.05-15.19-6.53.18-8.8-4.34-8.72-9.75-1.65-1.81-3.69-3.53-5.88-5.16-1.8-1.34-3.4-2.89-5.24-4.44-1.86-1.55-4.28-3.49-6.19-4.83-.8-.56-3.25-1.21-4.75-.98-.96.16-2.86,1.76-3.77,2.45-1.14.87-2.43,1.88-3.56,2.74-.77.59-1.68.9-2.5,1.5-.2.15-.36.65-.64.91-.34.31-1.08.44-1.5.77-.82.65-1.75,1.8-2.81,2.73-1.05.9-2.56,1.81-2.91,2.58s.03,1.78,0,2.51c-.18,3.82-2.45,6.91-5.16,8.39-3.12,1.71-8.1.24-10.22-2.3-1.96-2.35-2.4-6.79-.59-10.27.36-.67,1.55-2.34,2.22-3.05,3.09-3.33,10.32-2.29,12.46,1.63,1.47-.52,2.34-1.86,3.45-2.87,1.01-.41,1.76-1.16,2.55-1.88.41-.05.59-.39,1.06-.34,2.78-2.99,6.47-4.77,9.44-7.5-.95-1.94-1.16-4.47.03-6.91-4.26-4.65-9.68-8.46-13.57-13.37-2.65.98-5.13,2.56-8.67,1.58-3.33-.93-5.01-4.15-4.31-7.32.36-1.58,1.4-2.79,2.04-4.34,2.92-2.16,4.8-6.37,9.77-4.69,1.6.54,2.43,1.81,3.45,3.04.38.46,1.01.77,1.32,1.21,1.39,1.99,1.26,4.6-.05,7.04-.24.47-1.06,1.09-1.13,1.58-.1.83,1.96,2.86,2.71,3.67,3.2,3.51,7.09,6.14,10.14,9.45,1.27-.59,2.25-1.6,3.69-1.96,1.89-6.73,4.69-12.7,6.79-18.34-.93-1.27-2.55-2.11-2.94-3.84-1.01-4.59,1.75-10.86,4.82-12.72,1.24.2,1.37-.6,2.14-.82,4.08-1.11,7.35,2.32,8.59,4.7,1.68,3.2-.23,9-2.92,10.99-.28.21-.62.26-.95.49-1.44.95-3.41,1.85-5.8,1.76l.05-.03ZM74.83,115.47c1.39-.07,2.83.31,3.89.08-1-1.13-2.89-.85-3.89-.08ZM41.61,130.57c1.08.11,1.73.54,2.79.67.21-1.19-2.35-1.47-2.79-.67ZM90.78,179.63c.28.23.44.38.85.24.15-.33-.13-.34-.03-.64-.46-.11-.73,0-.82.38v.02ZM31.49,178.34c.36.24.51-.75.1-.62-.03.2-.07.41-.1.62ZM91.34,207.63c.36-.11.8-.11.95-.49-.03-.44-.36-.69-.9-.77-.33.29-.23.98-.07,1.24l.02.02Z"/>
        <g class="cls-2">
          <path class="cls-4" d="M373.65,146.94c-.91,2.02-2.89,3.62-2,5.4-.96.96-2.04,1.96-2.83,4.1,2.27,2.16,7.06,2.52,10.01,3.09.46.59.3,1.44.26,2.24-2.48,1.54-3.2,7.25-6.08,7.82-4.26-3.43-12.72-5.03-18.91-8.44-1.76-.97-5.18-2.75-7.37-3.38-1.48-.43-3.39,0-4.24-1.53.32-1.23,1.49-1.94,2.25-3.16,1.29-2.07,1.25-4.77,2.7-6.67,2.98,1.58,5.31,3.22,8.53,4.82,1.76-1.7,2.92-6,4.18-8.4-10.69-6.22-17-15.49-21.64-24.7-.44-.88-1-2.09-1.48-3.51-.42-1.23-1.34-3.25-1.25-3.61.36-1.55,2.93-1.31,3.09-2.83,2.53-.94,3.03,2.18,4.23,3.46,2.01,7.07,6.24,15.88,12.97,21.18,3.47,2.73,8.4,5.37,13.16,7.28,5.84,2.33,12.79,1.5,17.87.45,4.58-.94,7.65-2.69,11.49-5.83.58-.47.88-1.18,1.48-1.73.58-.53,1.49-.79,2.08-1.29,3.15-2.67,5.96-6.04,8.07-10.32-3.4,3.49-6.68,7.71-10.94,10.71-2.63,1.85-5.33,3.24-8.73,2.86-6.29,2.32-12.98,3.71-21.59.57-.63-.27-1.11.64-1.91.39-.8-.25-.93-1.3-1.6-1.81-.47-.36-1.26-.46-1.83-.74-5.1-2.57-10.03-7.62-12.65-10.95-5.41-7.83-8.9-15.37-4.82-26.42.7-1.89.81-3.67,1.83-5.47,3.62-6.42,9.81-11.69,15.07-14.67,8.67-4.91,22.6-4.21,33.9,3.07,4.43,2.85,7.74,6.82,10.21,10.74,2.06,3.27,3.08,5.96,3.93,9.94,1.17,5.46,1.47,12.02.25,18.55,2.91-4.47,4.46-11.75,4.79-17.09-1.1-6.54-3.92-12.34-8.71-17.32-1.3-.1-2.9-.62-3.6-1.65.81-1.17.92-1.99,1.88-2.73.87-.67,1.68-.2,2.61-.69,1.16-.6,1.7-2.33,3.22-2.19.16.03.13.13.1.23,4.42,4.67,6.95,10.14,9.15,15.75,1.94,9.72-.25,23.03-6.31,33.75-1.1,1.95-1.94,3.7-3.36,4.46-3.47,5.41-8.22,7.79-12.42,11.47-2.12.75-4.25,1.49-5.96,3.21-5.66,2.18-11.75,3.36-19.09,1.58ZM415.12,88.22c.17,1.17,1.09,2.03,1.93,2.92-.23-1.07-.43-2.83-1.93-2.92ZM381.03,77.5c-2.17,1.74-4.73,4.26-5.98,7.09,4.99,1.77,8.71,2.83,13.18,4.37,1.48-2.71,3.08-5.65,4.72-8.77-3.81-2.47-8.28-2.59-11.92-2.69ZM402.59,88.97c-1.74-2.81-4.13-5.35-7.22-7.59-1.65,2.41-3.68,5.66-4.55,8.83,3.76,1.95,6.84,4.2,10.03,6.4,1.16-2.25,1.33-5.25,1.74-7.64ZM369.7,77.18c1.33-.88,3.21-.47,4.49-1.48-1.75-.36-4.34.14-4.49,1.48ZM363.43,82.6c3.08.64,6.05,1.02,8.98,1.31.85-2.29,3.33-4.04,3.5-5.76-4.43.85-8.72,2.03-12.48,4.45ZM403.32,98.19c1.19,1.09,2.97,3.31,4.46,3.36-.73-2.87-1.11-5.89-3.07-8.24-.8,1.91-.61,3.31-1.39,4.87ZM373.46,87.06c-2.79,3.32-5.08,7.79-7.54,11.89,3.92,2.63,10.1,5.02,14.44,7.02,2.83-4.77,4.73-9.28,6.78-14.34-3.79-2.16-9.35-3.29-13.68-4.57ZM389.58,92.81c-2.23,4.08-4.99,9.74-6.95,14.27,4.2,2.3,8.25,3.76,12.61,5.31,2.54-3.98,4.12-8.79,4.8-12.81-3.01-2.45-6.06-4.9-10.46-6.77ZM358.91,84.65c-3.06,1.48-6.01,3.2-7.89,7.48,3.17,2.25,8.35,4.14,12.47,5.64.84-.53.85-1.53,1.35-2.37,1.87-3.17,4.59-6.38,5.49-9.23-3.92-.78-7.62-1.03-11.42-1.52ZM397.9,113.47c3.15.91,5.57,2.09,8.71,2.95,1.7-3.94,1.62-7.13,1.69-10.39-1.92-1.58-3.94-3.12-5.86-4.71-1.43,4.6-3.09,7.69-4.53,12.14ZM349.87,94.97c-1.27,1.61-2.25,4.36-2.34,6.24,3.6,2.72,6.18,5.86,10.42,8.3,1.05-3.05,2.9-6.19,4.05-9.04-3.53-2.09-7.07-3.17-12.14-5.5ZM364.61,101.72c-2.12,2.95-2.87,6.04-4.32,9.7,3.45,3.31,8.8,5.82,13.56,8.22,1.7-3.51,3.96-7.39,5.2-10.9-4.3-2.6-9.4-4.51-14.44-7.02ZM410.29,121.21c.31-.12.59-.71.17-.9-.37.14-.4.63-.17.9ZM396.79,115.74c-2.11,3.85-4.48,8.77-6.4,11.97,1.8.88,3.23.89,4.87,1.39,3.72-2.2,7.14-5.12,9.8-9.81-2.56-2.2-5.38-2.13-8.27-3.55ZM381.44,109.52c-2.06,3.96-4.19,8.08-5.33,11.24,2.55,2.48,8.31,4.29,11.77,5.94,2.35-3.26,4.26-7.56,6.27-11.63-4.48-2.49-9.05-3.2-12.71-5.54ZM354.09,121.92c.59-2.97,1.59-6.11,2.82-9.34-3.06-2.62-5.97-5.3-9.49-7.73-.95,7.03,2.89,12.04,6.67,17.07ZM406.2,131.79c.4.2,1.51-.71.81-1.03-.19.54-.67.38-.81,1.03ZM404.02,133.82c.61-.05,2.11-1.22,1.65-1.66-.53.59-1.16.95-1.65,1.66ZM357.11,125.48c2.78,2.44,6.24,5.09,10.13,6.63,2.01-2.32,3.6-7.03,5.19-9.93-4.76-2.79-9.12-4.91-13.3-7.91-1.77,4.2-2.73,8.06-2.02,11.22ZM374.63,123.45c-1.59,2.79-3.04,6.1-4.65,9.57,4.04,1.4,7.94,2.45,10.82,1.08,1.61-1.95,3.72-2.75,5.17-5.09-3.42-2.01-7.34-3.8-11.33-5.57ZM388.7,129.93c-1.25,1.52-2.53,2.94-3.96,4.03,2.7-.17,5.6-1.56,7.26-3.07-1.11-.33-2.16-.53-3.3-.95ZM341.94,117.39c.04-.49,0-1.65-.59-1.41.26.44.08,1.07.59,1.41ZM342.77,118.69c-.1-.2-.18-1.1-.7-.67.1.2.18,1.1.7.67ZM344.23,121.81c-.02-1.01-.7-2.47-1.66-2.62.71.8.81,1.87,1.66,2.62ZM386.96,143.79c.91.35,2.78-.31,2.35-.99-.75.41-1.71.32-2.35.99ZM379.91,144.43c2.62.16,4.77.41,6.55-.84-2.16.34-4.57.09-6.55.84ZM364.36,154.04c.24.27.24.64.86.74.2-.65,1.69-1.26.98-1.93-.65.31-1.25.75-1.84,1.19ZM348.1,151.53c.77-.03,1.4-.4,1.84-1.19-.85-.16-1.55.03-1.84,1.19ZM372.91,161.2c.39-.18,1.01.2,1.27-.26-.58-.29-1.14-.51-1.27.26ZM353.37,152.89c-.18.35-.08.59.3.7.09-.33.33-.29.44-.6-.29-.13-.54-.17-.74-.1ZM358.05,160.03c.03.35.37.58.86.74.5-.43,1.06-.75,1.51-1.33-1-.29-1.65.22-2.37.59ZM370.75,165.57c.31.56,1.22.47,1.74.51.5-1.58-1.08-1.88-1.74-.51ZM353.85,157.94c-.37.43.25.45.53.6l.2-.5c-.29-.13-.53-.17-.73-.1ZM362.92,162.39c.58.28.97.11,1.17-.5-.51-.12-.9.04-1.17.5Z"/>
        </g>
        <g class="cls-8">
          <image class="cls-1" width="1024" height="1536" transform="translate(9.72) scale(.45)" xlink:href="../../../Downloads/ChatGPT Image Jul 24, 2025, 12_05_17 AM.png"/>
        </g>
      </g>
    </g>
  </g>
</svg>