<?xml version="1.0" encoding="UTF-8"?>
<svg id="Layer_2" data-name="Layer 2" xmlns="http://www.w3.org/2000/svg" viewBox="0 0 245.9 205.95">
  <defs>
    <style>
      .cls-1 {
        fill: #faaf40;
        fill-rule: evenodd;
      }

      .cls-2 {
        opacity: .7;
      }
    </style>
  </defs>
  <g id="Layer_1-2" data-name="Layer 1">
    <g class="cls-2">
      <path class="cls-1" d="M112.09,5.2c.73,2.06-.31,3.97-.38,5.63-3.53.59-5.77,2.48-8.62,3.75-1.43,13.19-.97,30.82-2.62,46.88-.66,6.41-.12,14.51,0,22.12.07,4.49-1.07,11.06.38,15,.56,1.52,4.21,4.1,6,4.87,6.01,2.59,16.41,2.04,22.5,5.25,1.25-.5,1.38-2.12,2.25-3-.21-1.24-2.43.47-2.25-.38,3.15-5.91,7.11-10.92,11.25-17.25,3.61-5.51,4.73-11.3,10.88-13.5-2.6-9.92.42-26.12,0-39.38-1.36-1.14-4.04-.96-5.25-2.25-.99-3.7-.62-8.55-1.13-13.5,1.93-2.28,5.88-3.04,9-3.38,17.36-1.83,38.3.18,51.37,6,.24,4.98,3.69,15.1-5.25,13.87-.44,11.76-1.69,20.54-1.13,30.75.38,6.85,3.76,11.11,6.75,16.5,1.71,3.07,3.02,6.48,4.5,9,2.85,4.85,7.57,9.94,10.5,15,.78,1.35,1.1,3.07,1.88,4.5,1.36,2.51,3.33,4.98,4.49,7.87.99,2.46,1.4,5.44,2.63,7.88.79,1.56,1.75,2.32,2.62,4.13,3.1,6.36,6.41,15.75,9,24,1.98,6.33,5.47,13.25,4.12,22.5-.72,4.95-3.96,6.97-6.38,10.88-17.23,4.31-38.39,3.55-59.25,4.5-19.05.86-34.58-1.31-51.75-3-4.87-.48-5.55-.62-10.12,1.87-6.26,3.41-10.07,6.06-18,8.25-11.92,3.3-26.12,6.64-40.5,4.88-11.36-1.39-22.99-3.42-31.5-8.62-5.77-3.53-9.52-8.86-15.75-11.63-6.82-11.13-14.79-20.62-11.63-39.38,3.5-20.77,15.72-40.72,36.37-43.5,3.56-25.36,4.96-53.45,5.63-79.13.06-1.44.8-2.2,1.87-2.62-3.51-1.49-8.39-1.61-10.87-4.13C32.19,4.64,42.29.47,54.34.71c19.12.37,43.54-3.74,57.75,4.5ZM72.34,5.58c-13.29.62-30.22-2.61-33.38,7.5,10.59,5.38,26.04,1.26,39.75.75,9.86-.36,20.95,1.35,25.5-5.62-8.32-2.8-20.66-3.15-31.88-2.63ZM48.71,20.58c1.9,4.74.32,8.8,0,13.5-.71,10.51-.59,21.03-1.5,31.5-.18,2.04-.97,3.91-1.12,6-.88,12.22-.08,24.62-1.5,36.38-12.42-.1-19.61,3.6-25.12,10.12-2.44,2.88-5.64,5.76-7.13,8.63-3.34,6.44-6.44,16.55-7.13,24.75-.97,11.75,4.46,19.33,9.38,25.5,2.32,2.92,4.99,6.91,7.88,8.62,1.31.78,3.64.97,5.62,1.87,1.8.82,3.53,1.9,5.25,2.63,16.69,7.06,45.78,10.19,64.88,5.25,7.85-2.03,15.03-6.99,21-10.5,3.2-1.89,6.69-3.87,8.62-5.62,5.53-5.03,13.88-16.56,16.5-24,5.19-14.76-.35-28.32-9.75-34.13-4.09-2.53-8.59-3.84-14.26-6-3.95-1.51-7.28-3.88-9.37-4.5-5.86-1.73-11.96.58-15.75-3.75,2.17-11.64-.59-25.44,0-39,.72-16.4,3.16-33.54,1.88-49.12-16.23-.07-31.23,1.18-48.38,1.87ZM150.72,22.83c-.99,1.67.04,4.08,0,6,12.42,4.74,30.15,4.97,44.25,2.25,2.16,1.22,4.53,1.16,6.37-.38.2-1.95-.5-3-.75-4.5-13.76-5.61-34.51-7.03-49.88-3.38ZM161.6,37.83c-1.76,10.55.22,22.06,1.12,32.25-5.86,4.41-8.93,12.14-12.75,19.5-3.32,6.39-5.87,12.29-9,17.63-.99,1.68-3.23,3.51-3,5.25.28,2.09,4.54,3.89,7.12,6,4.8,3.92,9.62,10.48,10.88,17.25,11.5,1.21,23.79.02,34.13-.38,3.09-.12,8.59-.59,11.25.38,3.26,1.19,7.32,8.87,10.13,13.13,1.64,2.49,3.01,4.44,4.5,7.12,1.16,2.09,4.23,5.64,4.12,7.88-.17,3.77-9.56,5.4-13.5,6.38-5.38,1.34-10.98,2.34-15.37,1.13-15.03,2.76-33.35-.55-46.88-3-4.23,6.39-9.93,11.32-15,16.87,11.29.35,22.85,2.93,32.63,3.38,5.92.27,12.73-.37,19.12-.38,3.02,0,6.16-.18,9-.38,2.87-.19,5.47-.02,7.5,0,5.55.05,10.9-1.11,15.37-1.5,9.04-.8,19.51.24,25.13-3.38,6.19-11-2.98-23.5-4.12-35.25-4.45-6.8-7.01-15.5-11.25-22.5-3.54-9.77-7.79-17.05-13.13-25.13-2.21-3.34-4.74-7.25-6.75-9.75-3.71-4.59-8.88-7.54-9.38-13.12-1.17-12.98,1.8-26.73-.38-40.13-10.41,1.48-21.84.1-31.5.75ZM155.97,140.96c-.76,7.12-2.95,12.8-4.87,18.75,4.6-5.27,9.53-10.22,11.25-18.38-1.88-.22-5.16-.7-6.37-.37ZM167.22,140.96c4.76,6.52-5.87,16.01-7.87,22.87-.37,0-.45.3-.75.38-2.33.45-2.14-1.62-4.13-1.5-.45.79-1.41,1.09-1.5,2.25,3.03,1.23,7.68.82,11.25,1.5,3.49-8.64,8.72-15.54,11.63-24.75-3.08-1.78-5.79.11-8.63-.75ZM180.35,141.34c-2.77,9.36-9.87,17.53-11.25,25.88,3.66.69,10.1.6,14.62,0-4.4-1.61-1.42-4.05,0-6.75,2.84-5.37,5.85-14.17,7.88-19.88-3.23,2.68-5.22,6.92-8.26,12.37-1.21,2.19-5.18,12.45-8.25,12.38-4.91-.12-.09-6.23.75-7.5,3.82-5.79,7.11-11.08,9.37-17.25-1.98-.1-2.54,1.2-4.87.75ZM184.47,167.21c1.28.11,4.29,1.16,4.88-.38-1.59.34-1.6-.9-1.5-2.25,5.37-6.37,7.54-15.96,12.38-22.88-1.57-.31-3.02-.73-4.88-.75-1.83,10.54-6.75,17.99-10.87,26.25ZM192.35,167.21c8.68-.07,15.63-1.87,22.13-4.13-.4-1.72-1.11-3.14-2.62-3.75-1.25,1-2.08,2.42-4.13,2.62,0-.74-1.02-.47-.75-1.5,1.43-1.32,2.85-2.65,4.12-4.13-2.69-3.68-4.72-8.03-8.25-10.88-3.61,7.14-7.68,13.82-10.5,21.75ZM148.47,163.46c.4.27,1.73,1.47,2.25.38-.85-.27-.11-2.14-1.5-1.88.27,1.02-.75.76-.75,1.5Z"/>
      <path class="cls-1" d="M92.22,31.46c-1.48,3.07-9.48,6.5-11.25,1.5,1.5-2.66,9.59-4.74,11.25-1.5Z"/>
      <path class="cls-1" d="M91.84,43.83c-1.15,2.98-8.07,3.57-9.75.75.14-3.56,9.05-4.33,9.75-.75Z"/>
      <path class="cls-1" d="M176.59,45.71c-.9,3.3-4.47,1.7-7.87,2.25-.67-.95-1.17-2.09-1.5-3.37,2.46-1.81,7.28-.65,9.37,1.13Z"/>
      <path class="cls-1" d="M172.47,54.33c1.86,3.85-3.45,5.8-5.25,3-.5-3.18,2.65-4.08,5.25-3Z"/>
      <path class="cls-1" d="M88.09,56.96c.13,1.5,1.55,1.7,1.5,3.38-5.73,4.54-11.74-5.31-1.5-3.38Z"/>
      <path class="cls-1" d="M172.47,68.96c-1.36,1.74-6.25,1.59-6.75-.75.2-4.53,6.84-3.18,6.75.75Z"/>
      <path class="cls-1" d="M87.72,76.46c-1.25,1.68-5,1.28-6.37,0-2.22-5.29,6.74-3.54,6.37,0Z"/>
      <path class="cls-1" d="M172.1,79.83c-2.15,1.22-8.14,2.83-8.26-1.13,2.02-1.92,7.66-2.16,8.26,1.13Z"/>
      <path class="cls-1" d="M90.72,86.96c-1.68,1.36-5.72,2.93-8.25,1.13-.12-.88-.59-1.41-.37-2.63,2.06-1.15,8.52-1.65,8.62,1.5Z"/>
      <path class="cls-1" d="M165.72,88.83c.72.91,1.23,2.27.75,3.38-3.11,1.1-7.16.93-7.13-3,1.53-1.43,3.73.03,6.37-.37Z"/>
      <path class="cls-1" d="M77.96,100.83c2.05-1.66,10.14-1.9,9.75,1.13-.35,2.75-9.97,4.48-9.75-1.13Z"/>
      <path class="cls-1" d="M161.97,102.34c-.06,2.82-6.16,3-7.51,1.12-1.77-3.38,6.7-3.53,7.51-1.12Z"/>
      <path class="cls-1" d="M153.34,114.71c.13,1.35.58,1.81,0,3-3.04.9-6.05.24-6.75-2.25,1.13-3.52,3.56-.32,6.75-.75Z"/>
      <path class="cls-1" d="M129.34,134.21c-2.05,5.38,1.08,6.6,1.5,9.75.67,4.96-3.44,13.48-5.62,16.87-7.26,11.33-22.95,24.91-42.75,25.5-7.96.24-14.95,1.69-24,.75-5.93-.62-17.22-5.48-20.62-7.88-9.56-6.72-15.98-21.39-13.88-36.75.49-3.62.84-7.34,6.37-7.13.62-1.26.48-3.27,1.88-3.75,7.75-1.18,15.85-2.14,24.75-2.25,13.28-.17,27.86-.61,41.25.75,4.08.41,8.03,1.59,12,1.87,6.68.49,13.68-.8,19.13,2.25ZM59.97,134.96c.21,4.68-3.85,7.74-5.25,12,10.07,3.75,13.23-5.38,15.37-12-3.78.41-7.11-.8-10.12,0ZM74.97,134.96c-1.73,4.27-4.69,7.31-6,12,2.33-.04,4.13-.62,6.75-.38,2.78-3.47,4.21-8.29,7.5-11.25.15.84,2.06-.06,1.88,1.12.02,4.4-3.5,5.26-3.75,9.38,3.39.13,6.29.15,9.75-.38,2.32-2.93,3.19-7.31,7.13-8.63.03.97,1.46.54,1.5,1.5-.55,2.83-2.83,3.93-3.37,6.75,2.56.19,4.08-.67,6.75-.38,1.14-1.11,1.08-3.43,3.38-3.38,1.93-.18,1.25,2.25,2.63,2.63,6.29-.21,11.23-1.77,13.87-5.63-16.12-1.27-33.24-4.02-48-3.37ZM33.34,136.83c-1.64.4-1.23-1.27-2.62-1.12,1.33,1.97.22,3.33-.38,5.25,2.4,1.97,4.91,3.85,9.37,3.75,1.93-2.57,2.4-6.6,5.25-8.25,4.35,1.89-.6,6.25-1.12,9,1.88.5,4.3.45,6.37.75,1.81-3.94,4.91-6.59,6-11.25-8.95.1-15.94.22-22.88,1.87ZM124.84,143.59c-12.35,5.4-14.72,20.78-22.13,31.13,1.72.36,3.13-1.29,4.5-2.25,3.27-2.29,6.31-4.11,8.62-6.75,4.94-5.63,10.3-12.5,10.13-21.75-.48-.02-.53-.48-1.13-.38ZM29.96,158.96c2.95-2.18,4.56-5.7,6.38-9-2.29-1.21-4.8-2.21-7.88-2.63-1.06,3.99.56,8.41,1.5,11.63ZM104.97,149.21c-3.24,5.57-7.17,11.37-10.12,16.88-1.08,2.01-2.65,4.13-3.38,6-.79,2.04.12,5.29-3,6-1.84-1.4-1.15-5.22-.75-6.75,2.03-7.76,9.99-14.06,12-21.75-3.28.42-4.5.71-7.88.75-2.75,8.13-10.82,12.91-11.62,21.75-2.28.97-2.13,4.37-5.25,4.5-3.59-4.53,1.78-9.33,4.12-12.75,2.83-4.13,5.78-8.49,7.5-12.75-2.66-.74-5.85.1-8.63.38-5.34,9.66-13.54,16.46-16.88,28.13-1.29,1.26-3.21.39-4.12-.75,3.54-10.34,11.25-16.49,15-26.63-2.36.01-4.9-.15-6.75.37-2.38,4.56-10.76,12.08-13.13,17.63-1.13,2.64-1.13,7.35-4.5,3.75,1.19-8.46,9.34-13.15,12.38-21-2.51-.62-5.95-.3-8.63-.75-4.99,4.63-8.4,10.85-12.75,16.13-.76-.62-1.75-1.01-1.88-2.25,2.78-5.34,6.89-9.37,9.38-15-1.68-.32-3.09-.91-5.25-.75-1.74,1.83-2.76,3.9-4.5,6.37-1.45,2.06-4.5,4.38-4.5,6.75,0,2.01,4,7.12,5.62,8.63,4.1,3.77,12.85,8.02,19.13,9,9.76,1.52,21.07.01,30-.75,4.35-.37,8.28-1.55,11.25-3,.3-1.3-.55-1.44-.37-2.62,5.65-7.98,10.59-16.67,14.63-26.25-2.69-.07-4.92.33-7.13.75Z"/>
      <path class="cls-1" d="M205.1,154.09c-1.95,3.76-1.44,7.75-3.38,11.25-6.98-.33-.81-16.54,3.38-11.25Z"/>
    </g>
  </g>
</svg>