<?xml version="1.0" encoding="UTF-8"?>
<svg id="Layer_2" data-name="Layer 2" xmlns="http://www.w3.org/2000/svg" viewBox="0 0 84.51 412.77">
  <defs>
    <style>
      .cls-1 {
        opacity: .8;
      }

      .cls-2 {
        fill: #fbb03b;
      }
    </style>
  </defs>
  <g id="Layer_1-2" data-name="Layer 1">
    <g class="cls-1">
      <path class="cls-2" d="M84.51,339.76c.06,2.68-2.1,3.7-2.74,5.96-1.23,4.32.19,5.59-2.64,10.65-4.65,8.34-12.81,13.17-22.41,12.59-1.95-.12-10.64-2.44-11.23-2.03-.88.61-4.92,10.18-5.56,11.85-4.21,11.05,19.94,22.26,17.65,33.84l-6,.15c-4.48-4.18-13.75-2.15-27.47-14.4-3.59-3.21,1.21-14,2.17-18.8.66-3.3,6.34-18.63,6.11-19.87-.08-.45-5.43-5.56-6.3-6.72-11.66-15.58-10.45-37.78-6.24-55.75.57-2.43,4.89-14.47,4.59-15.73-.08-.34-4.89-3.18-5.77-4.02-12.23-11.71-7.18-41.28-2.57-55.76.84-2.63,7.59-18.05,7.15-18.96-.12-.25-4.22-2.19-4.85-2.67C-.27,186.03-.43,165.09,5.92,144.46c1.07-3.47,6.62-14.93,6.59-17.05-.02-1.41-3.67-4.97-4.62-6.56-11.89-19.73-8.57-39.82.51-59.84.91-2.01,5.43-9.03,5.45-10.48.01-1.08-9.31-15.55-10.61-18.9C.57,24.82-1.83,8.1,1.98,1.72c2.62-4.38,9.22.66,11.16,3.28,1.2,1.63,1.38,5.18,2.03,6.38s2.54,1.48,2.43,3.65c-.32,6.16-2.34,10.94-1.09,18.04.19,1.1,2.59,7.49,3.23,7.83.51.27.98-.29,1.32-.56,2.69-2.11,6.92-8.32,9.99-11.25,4.35-4.14,18.34-15.48,24.19-15.32,1.34.04.36.79.87.88,1.65.3,3.58-.5,5.51-.24,3.09.41,9.07,4.94,10.65,7.62.89,1.51,1.29,5,1.7,5.53.3.39,1.87.46,2.45,1.25.52.72-.04,2.89,1.61,3.68-.21,1.17-1.76-.63-2.35-.15-.22.18.03,3.95-.5,5.55-.9,2.7-8.12,12.8-10.38,14.68-8.91,7.44-21.34,6.34-32.1,5.33-6.82,9.14-13.1,20.08-15.53,31.36-1.11,5.14-2.73,15.6-2.08,20.51.16,1.16,1.24,5.9,2.08,6.54,1.54,1.17,3.2-3.19,4.18-4.26,4.03-4.44,20.34-22.74,25.03-23.33,6.73-.85,16.83,6.91,20.14,12.32.83,1.35,1.27,3.81,1.97,5.11.31.57,1.4.83,1.87,1.67,2.98,5.42,2.18,11.95-.84,17.39-6.55,11.81-14.44,15.2-27.76,13.06-1.87-.3-12.03-3.6-12.74-3.2-2.8,1.55-11.48,27.56-12.2,31.79-1.27,7.48-.52,21.33,6.77,25.65.56.33,3.05,1.64,3.53,1.49.92-.3,4.88-9.24,5.77-10.73,6.1-10.27,19.83-29.85,33.78-20.37.51.35,6.57,5.79,6.81,6.18.77,1.28,1.59,4.74,2.71,6.68.58,1,2.09,1.45,2.16,1.57.11.19-.66.57-.47.9.46.8,2.23,2.9,2.24,3.09,0,.92-1.18.48-1.72,1.22-.45.61-1.17,5.89-1.72,7.43-5.9,16.53-10.85,19.41-28.46,18.91-2-.06-8.26-1.6-9.58-.36-7.9,17.44-15.98,37.96-14.17,57.56.1,1.13,1.32,8.19,3.82,6.91.45-.23,3.63-7.72,4.38-9.04,7.01-12.36,21.59-37.21,38.02-22.96,5.68,4.93,9,14.33,10.08,21.16.18,1.17,1.35,2.47,1.41,3.66.06,1.05-2.7,10.27-3.32,11.68-4.74,10.72-11.28,14.02-23.31,13.52-2.66-.11-15.29-3.18-15.91-2.66-1.54,1.29-6.84,19.4-7.43,22.39-1.92,9.69-3.8,30.26,1.47,38.82.52.85,2.14,3.01,3.17,2.45.81-.45,7.44-14.19,8.72-16.36,3.72-6.31,15.02-25.28,22.33-26.33,1.06-.15,2.99-.05,3.97.47.56.3,8.97,8.15,9.29,8.7s2.58,6.74,2.73,7.6c.55,3.09-.47,6.64.66,9.53v4.13ZM65.96,347.14c-.68-.87,7.86-18.96,5.89-21.26-.6-.69-3.12,2.65-3.52,3.11-2.66,3.06-17.52,24.88-17.34,27.5.14,2.08,12.93-1,14.25-4.03.16-.37-.49-.89-.32-1.22.66-1.28,1.88-2.62,2.22-4.25.1-1.07-.84.57-1.17.15ZM44.16,278.63c.13.18,3.69.58,4.26.61,13.05.61,19.74-9.12,18.72-21.43-.43-5.2-1.26-6.5-6.34-3.39-5.62,3.43-13.28,14.7-15.23,21.03-.14.47-1.54,3.01-1.41,3.19ZM45.91,196.56c.08.03-.18.87,1.34.9,3.31.07,8.25-2.44,10.31-5.05,1.21-1.52,6.91-14.01,6.03-15.06-1.43-1.71-11.14,10.48-11.93,10.63-1.37.25.69-1.83.44-2.06-.65-.62-7.6,9.97-7.35,11.08.39.19.65-.6,1.15-.44ZM50.55,124.1c3.18-2.42,8.68-11.9,7.02-15.85-.48-1.15-.18,1.13-1.18.59-.55-.29-.36-1.4-.86-1.81-.67-.55-1.28.14-1.64.04-.05-.01.05-.86,0-.89-.27-.12-3.42,2.26-3.89,2.66-3.14,2.63-5.73,6.07-8.25,9.09-.27.32-1.24.17-1.68.83-.47.71-.14,1.74-.38,2.13-.18.29-1.96.98-2.41,1.57-1.51,1.96-2.86,3.88,0,4.68,3.84,1.07,10.14-.64,13.28-3.03ZM57.42,107.51h-.29s.15.15.15.15l.15-.15ZM55.51,38.42c.31-.48,1.79-2.56,1.6-2.96-.04-.08-1.67-.31-1.75-.28-.66.27-8.57,6.69-9.05,7.32-.11.15-1.69,3.31-1.56,3.45,1.33,1.33,9.58-5.72,10.76-7.52Z"/>
      <path class="cls-2" d="M50.94,41.51c-.51-.68.56-.66.59-.14.01.26-.57.17-.59.14Z"/>
      <rect class="cls-2" x="51.53" y="40.34" width=".59" height=".29"/>
      <rect class="cls-2" x="45.93" y="44.77" width=".59" height=".29"/>
      <polygon class="cls-2" points="54.47 38.71 54.32 38.86 54.18 38.71 54.47 38.71"/>
      <polygon class="cls-2" points="51.23 40.19 51.08 40.34 50.94 40.19 51.23 40.19"/>
      <polygon class="cls-2" points="50.05 39.89 49.91 40.04 49.76 39.89 50.05 39.89"/>
      <polygon class="cls-2" points="49.46 43.44 49.32 43.58 49.17 43.44 49.46 43.44"/>
      <polygon class="cls-2" points="48.88 43.14 48.73 43.29 48.58 43.14 48.88 43.14"/>
    </g>
  </g>
</svg>