<?xml version="1.0" encoding="UTF-8"?>
<svg xmlns="http://www.w3.org/2000/svg" viewBox="0 0 85.68 96.88">
  <defs>
    <style>
      .cls-1 {
        fill: #757575;
        fill-rule: evenodd;
      }

      .cls-2 {
        mix-blend-mode: color-dodge;
        opacity: .75;
      }

      .cls-3 {
        isolation: isolate;
      }
    </style>
  </defs>
  <g class="cls-3">
    <g id="Layer_2" data-name="Layer 2">
      <g id="Layer_1-2" data-name="Layer 1">
        <g class="cls-2">
          <path class="cls-1" d="M37.86,74.23c-.91,2.02-2.89,3.62-2,5.4-.96.96-2.04,1.96-2.83,4.1,2.27,2.16,7.06,2.52,10.01,3.09.46.59.3,1.44.26,2.24-2.48,1.54-3.2,7.25-6.08,7.82-4.26-3.43-12.72-5.03-18.91-8.44-1.76-.97-5.18-2.75-7.37-3.38-1.48-.43-3.39,0-4.24-1.53.32-1.23,1.49-1.94,2.25-3.16,1.29-2.07,1.25-4.77,2.7-6.67,2.98,1.58,5.31,3.22,8.53,4.82,1.76-1.7,2.92-6,4.18-8.4-10.69-6.22-17-15.49-21.64-24.7-.44-.88-1-2.09-1.48-3.51-.42-1.23-1.34-3.25-1.25-3.61.36-1.55,2.93-1.31,3.09-2.83,2.53-.94,3.03,2.18,4.23,3.46,2.01,7.07,6.24,15.88,12.97,21.18,3.47,2.73,8.4,5.37,13.16,7.28,5.84,2.33,12.79,1.5,17.87.45,4.58-.94,7.65-2.69,11.49-5.83.58-.47.88-1.18,1.48-1.73.58-.53,1.49-.79,2.08-1.29,3.15-2.67,5.96-6.04,8.07-10.32-3.4,3.49-6.68,7.71-10.94,10.71-2.63,1.85-5.33,3.24-8.73,2.86-6.29,2.32-12.98,3.71-21.59.57-.63-.27-1.11.64-1.91.39-.8-.25-.93-1.3-1.6-1.81-.47-.36-1.26-.46-1.83-.74-5.1-2.57-10.03-7.62-12.65-10.95-5.41-7.83-8.9-15.37-4.82-26.42.7-1.89.81-3.67,1.83-5.47,3.62-6.42,9.81-11.69,15.07-14.67,8.67-4.91,22.6-4.21,33.9,3.07,4.43,2.85,7.74,6.82,10.21,10.74,2.06,3.27,3.08,5.96,3.93,9.94,1.17,5.46,1.47,12.02.25,18.55,2.91-4.47,4.46-11.75,4.79-17.09-1.1-6.54-3.92-12.34-8.71-17.32-1.3-.1-2.9-.62-3.6-1.65.81-1.17.92-1.99,1.88-2.73.87-.67,1.68-.2,2.61-.69,1.16-.6,1.7-2.33,3.22-2.19.16.03.13.13.1.23,4.42,4.67,6.95,10.14,9.15,15.75,1.94,9.72-.25,23.03-6.31,33.75-1.1,1.95-1.94,3.7-3.36,4.46-3.47,5.41-8.22,7.79-12.42,11.47-2.12.75-4.25,1.49-5.96,3.21-5.66,2.18-11.75,3.36-19.09,1.58ZM79.34,15.52c.17,1.17,1.09,2.03,1.93,2.92-.23-1.07-.43-2.83-1.93-2.92ZM45.24,4.8c-2.17,1.74-4.73,4.26-5.98,7.09,4.99,1.77,8.71,2.83,13.18,4.37,1.48-2.71,3.08-5.65,4.72-8.77-3.81-2.47-8.28-2.59-11.92-2.69ZM66.8,16.26c-1.74-2.81-4.13-5.35-7.22-7.59-1.65,2.41-3.68,5.66-4.55,8.83,3.76,1.95,6.84,4.2,10.03,6.4,1.16-2.25,1.33-5.25,1.74-7.64ZM33.91,4.48c1.33-.88,3.21-.47,4.49-1.48-1.75-.36-4.34.14-4.49,1.48ZM27.64,9.9c3.08.64,6.05,1.02,8.98,1.31.85-2.29,3.33-4.04,3.5-5.76-4.43.85-8.72,2.03-12.48,4.45ZM67.53,25.49c1.19,1.09,2.97,3.31,4.46,3.36-.73-2.87-1.11-5.89-3.07-8.24-.8,1.91-.61,3.31-1.39,4.87ZM37.67,14.35c-2.79,3.32-5.08,7.79-7.54,11.89,3.92,2.63,10.1,5.02,14.44,7.02,2.83-4.77,4.73-9.28,6.78-14.34-3.79-2.16-9.35-3.29-13.68-4.57ZM53.79,20.11c-2.23,4.08-4.99,9.74-6.95,14.27,4.2,2.3,8.25,3.76,12.61,5.31,2.54-3.98,4.12-8.79,4.8-12.81-3.01-2.45-6.06-4.9-10.46-6.77ZM23.12,11.95c-3.06,1.48-6.01,3.2-7.89,7.48,3.17,2.25,8.35,4.14,12.47,5.64.84-.53.85-1.53,1.35-2.37,1.87-3.17,4.59-6.38,5.49-9.23-3.92-.78-7.62-1.03-11.42-1.52ZM62.11,40.77c3.15.91,5.57,2.09,8.71,2.95,1.7-3.94,1.62-7.13,1.69-10.39-1.92-1.58-3.94-3.12-5.86-4.71-1.43,4.6-3.09,7.69-4.53,12.14ZM14.08,22.26c-1.27,1.61-2.25,4.36-2.34,6.24,3.6,2.72,6.18,5.86,10.42,8.3,1.05-3.05,2.9-6.19,4.05-9.04-3.53-2.09-7.07-3.17-12.14-5.5ZM28.82,29.02c-2.12,2.95-2.87,6.04-4.32,9.7,3.45,3.31,8.8,5.82,13.56,8.22,1.7-3.51,3.96-7.39,5.2-10.9-4.3-2.6-9.4-4.51-14.44-7.02ZM74.5,48.51c.31-.12.59-.71.17-.9-.37.14-.4.63-.17.9ZM61,43.03c-2.11,3.85-4.48,8.77-6.4,11.97,1.8.88,3.23.89,4.87,1.39,3.72-2.2,7.14-5.12,9.8-9.81-2.56-2.2-5.38-2.13-8.27-3.55ZM45.66,36.81c-2.06,3.96-4.19,8.08-5.33,11.24,2.55,2.48,8.31,4.29,11.77,5.94,2.35-3.26,4.26-7.56,6.27-11.63-4.48-2.49-9.05-3.2-12.71-5.54ZM18.3,49.22c.59-2.97,1.59-6.11,2.82-9.34-3.06-2.62-5.97-5.3-9.49-7.73-.95,7.03,2.89,12.04,6.67,17.07ZM70.41,59.08c.4.2,1.51-.71.81-1.03-.19.54-.67.38-.81,1.03ZM68.23,61.11c.61-.05,2.11-1.22,1.65-1.66-.53.59-1.16.95-1.65,1.66ZM21.32,52.77c2.78,2.44,6.24,5.09,10.13,6.63,2.01-2.32,3.6-7.03,5.19-9.93-4.76-2.79-9.12-4.91-13.3-7.91-1.77,4.2-2.73,8.06-2.02,11.22ZM38.84,50.75c-1.59,2.79-3.04,6.1-4.65,9.57,4.04,1.4,7.94,2.45,10.82,1.08,1.61-1.95,3.72-2.75,5.17-5.09-3.42-2.01-7.34-3.8-11.33-5.57ZM52.91,57.23c-1.25,1.52-2.53,2.94-3.96,4.03,2.7-.17,5.6-1.56,7.26-3.07-1.11-.33-2.16-.53-3.3-.95ZM6.16,44.68c.04-.49,0-1.65-.59-1.41.26.44.08,1.07.59,1.41ZM6.99,45.99c-.1-.2-.18-1.1-.7-.67.1.2.18,1.1.7.67ZM8.44,49.1c-.02-1.01-.7-2.47-1.66-2.62.71.8.81,1.87,1.66,2.62ZM51.17,71.09c.91.35,2.78-.31,2.35-.99-.75.41-1.71.32-2.35.99ZM44.12,71.72c2.62.16,4.77.41,6.55-.84-2.16.34-4.57.09-6.55.84ZM28.57,81.34c.24.27.24.64.86.74.2-.65,1.69-1.26.98-1.93-.65.31-1.25.75-1.84,1.19ZM12.31,78.82c.77-.03,1.4-.4,1.84-1.19-.85-.16-1.55.03-1.84,1.19ZM37.13,88.5c.39-.18,1.01.2,1.27-.26-.58-.29-1.14-.51-1.27.26ZM17.58,80.19c-.18.35-.08.59.3.7.09-.33.33-.29.44-.6-.29-.13-.54-.17-.74-.1ZM22.26,87.33c.03.35.37.58.86.74.5-.43,1.06-.75,1.51-1.33-1-.29-1.65.22-2.37.59ZM34.97,92.87c.31.56,1.22.47,1.74.51.5-1.58-1.08-1.88-1.74-.51ZM18.06,85.23c-.37.43.25.45.53.6l.2-.5c-.29-.13-.53-.17-.73-.1ZM27.13,89.69c.58.28.97.11,1.17-.5-.51-.12-.9.04-1.17.5Z"/>
        </g>
      </g>
    </g>
  </g>
</svg>