<?xml version="1.0" encoding="UTF-8"?>
<svg xmlns="http://www.w3.org/2000/svg" viewBox="0 0 88.23 83.28">
  <defs>
    <style>
      .cls-1 {
        isolation: isolate;
      }

      .cls-2 {
        fill: #757575;
        fill-rule: evenodd;
        mix-blend-mode: color-dodge;
        opacity: .75;
      }
    </style>
  </defs>
  <g class="cls-1">
    <g id="Layer_2" data-name="Layer 2">
      <g id="Layer_1-2" data-name="Layer 1">
        <path class="cls-2" d="M10.19,83.25c-.73.17-1.46-.47-2.19-.43-2.41-2.71-6.87-5.78-7.99-9.53.19-.22.29-.44.22-.66,3.42-2.36,6.08-5.7,9.75-8.44,1.95-1.46,3.57-1.86,3.29-3.94-.43-1.18-1.02-1.92-1.32-2.63-1.22-4.54-.19-9.54.23-14.24.39-4.53,1.61-8.93,3.83-13.48.69-1.4,1.87-2.61,2.74-4.05.74-1.22,1.21-2.65,2.08-3.84,1.14-1.55,2.53-3.34,3.84-4.93,3.21-3.91,7.96-5.94,11.72-9.09,3.5-1.43,6.85-3.1,10.51-3.95,2.57-.59,5.22-.79,7.56-1.64.33-.12,1.13-.16,1.65.1.62-.59,1.24-.18,1.86-.76,1.21.38,2.41-.45,3.62.11,7.2-1.75,14.8.24,22.45-1.64.29,0,.55.26.55.55.48,0,.29-.46.77-.76,1.89.18,3.16,1.65,2.85,3.28-.87,4.62-2.59,10.93-3.62,15.45-1.4,3.13-2.25,6.75-3.28,10.08-.28.89-.25,1.85-.55,2.74-2.19,6.59-5.57,12.84-7.89,19.72-4.83,6.42-8.69,13.1-14.9,16.87-1.54.93-3.37,1.17-4.93,2.3-4.79,1.22-9.78,1.73-14.35,1.86-1.64.05-3.15-.15-4.82-.22-2.55-.12-5.19.55-7.78-.11-1.57-.4-2.95-1.33-4.59-1.32-2.57,1.99-5.11,6.65-8.33,9.42-.9.77-2.01,1.86-2.96,3.17ZM64.74,4.82c-.75,4.6-2.27,9.19-1.54,13.8,2.01-1.04,3.26-3.22,5.26-4.16,2.52-3.86,8.07-6.04,10.73-9.86-4.82-.38-9.63.33-14.46.22ZM56.85,6.57c-1.77.83-4.75,3.56-6.14,5.04-.44.47-1.6.68-1.75.87-.3.4-.18,1.98.11,2.3,1.09-1.13,1.51-1.43,2.63-1.97,1.89-2.89,6.07-4.45,8.33-7.23-.13-.14,0-.29-.22-.44-.95.26-2.35-.08-2.95,1.42ZM70.98,20.92c-.58.16-1.63.95-1.86,1.65,1.02-.19,2.04,1.02,3.07.22-.88-.59-.62-1.64-1.21-1.87ZM62.88,24.43c-3.45,3.66-6.51,5.42-10.3,9.64,1.73,1.16,4.01.73,5.37,2.09,1.5-.27,2.99.36,4.49,1.2,2.92.24,5.65,1.76,8.76,1.97.62.32,1.24.54,1.86.99,1.25-2.19,1.51-4.38,2.84-6.57-.06-2.01,1.97-4.02,1.65-6.03-4.9-1.77-9.79-2.06-14.68-3.28ZM56.41,12.27c-1.89,2.1-4.92,4.49-7.67,4.38.16,3.1.33,6.21.76,9.31.84-.05,2.41-1.76,2.3-2.52-1.08.49-2.51-.88-2.19-1.97,3.61-3.71,7.18-7.3,10.4-10.63-.13-.14-.01-.29-.22-.44-1.13.45-2.26,1.98-3.39,1.87ZM59.59,21.14c-.59.59-1.17,1.17-1.76,1.76.87.78,1.76-.16,2.63-1.09-.29-.47-.59-.26-.87-.66ZM40.86,9.85c-1.32.89-2.43,1.61-3.29,1.32-1.33,1.22-2.58,2.15-4.05,3.17.13.37.37.73.44,1.1-.62,4.35.7,8.69.11,13.04,1.66,5,1.6,10,3.17,15,4.88-4.39,8.81-8.31,12.71-12.05-4.46.78-3.07-5.22-4.05-7.77-.15-.37.46-.74.43-1.1-.25-.09-.5.18-.76-.11-.12-4.25-.52-9.11.76-13.69-.14-.15,0-.3-.22-.44-1.75.49-3.5.61-5.25,1.53ZM70.33,43.27c.12.18-.11.36-.11.55.51.38,1.02.46,1.54.22.1-.68-.9-1.28-1.43-.77ZM51.59,30.23c.71-1.11,1.74-1.87,2.63-2.63-.65-1.98-2.42,1.16-3.84.77-.04.95.16,1.9-.43,2.85.72-.31.85-1,1.64-.99ZM66.6,42.39c.29.02.58-.36.88-.65-.11-.11-.22-.22-.33-.33-.25.33-.54.66-.55.98ZM59.26,50.17c2.32-2.69,4.23-3.79,6.35-6.79-3.07,2.37-6.17,6.2-9.53,8.22,2.84,1.93,7.09.82,8.87,4.05.55-.76,1.32-1.53,1.64-2.3-.69-.14-1.39-.15-2.08-.99,1.11-2.31,4.22-4.31,4.6-7.01-2.12,1.33-9.34,11.54-9.86,4.82ZM61.12,39.98c.33.4.58.8.55,1.2-2.42,3.17-6.41,6.62-9.75,9.31,1.14.64,2.27.78,3.4.77-1.99-2.78,1.92-4.36,3.83-6.46,1.39-1.52,2.95-2.68,3.95-4.16-.65-.29-1.32-.96-1.97-.65ZM52.8,37.79c.04.41-.08.66-.33.98-1.65,2.18-5.25,4.4-7.01,6.57-.36-.01-.73.64-1.1.22.01.66-.92,1.32-1.53,1.97.85.72,2.62,1.08,3.83,1.21-.33-.53-1.22-.82-1.09-1.76,3.41-3,5.99-4.95,8.32-8.54.75-.15,1.45-.36,1.97,0,2.45,1.7-1.11,4.43-2.41,5.92,2.15-.76,3.4-3.14,5.37-5.15-2.01-.89-4.01-1.4-6.03-1.42ZM19.28,35.82c2.03-5.41,7.91-8.92,11.5-14.13-.97-.36-1.47,1.03-2.08,1.65-2.4,2.42-5.28,5.31-7.56,7.99-.22,0-.44,0-.65,0,.3.94-2.09,2.32-2.85,2.85.15-.1.29-.05.44,0-.55.59-.72,1.17-.44,1.75.62.3,1.25.33,1.87.11-.12.14-.22.29,0,.43.39-.29.12-.66-.22-.65ZM47.43,49.08c.62.46,1.24.83,1.86.77-.04-1.77,2.07-2.47,3.06-3.95-.11-.11-.22-.22-.33-.33-.99,1.3-3.29,2.26-4.6,3.51ZM61.23,56.52c-7.97-2.29-16.47-5.22-24.75-7.23-2.31,1.8-3.78,4.03-6.25,6.24,8.87,3.54,17.74,6.33,26.61,8.65,2.33-2,4.17-3.61,6.24-6.24-.91-.62-1.32-.39-1.86-1.42ZM30.24,26.84c-1.09,2.17-3.12,3.5-4.82,5.25-.73.76-1.71,1.79-1.86,2.73,1.86-1.71,3.52-3.18,4.71-4.92.26-.12.51.15.77.11-.3-1.22,1.99-2.04,2.18-2.85-.13-.14,0-.29-.22-.43-.25.03-.51.15-.76.11ZM26.07,37.13c-.63.8-1.66,1.46-2.19,2.19-.71,1-.91,2.5-2.41,2.85.04.46.31,1.32.77,1.43,3.12-4.4,5.4-7.78,9.53-11.06-.23-.37.19-.73-.22-1.1-1.58,1.65-4.04,3.87-5.48,5.7ZM29.36,40.2c1-.19,1.76-2.63,3.28-2.63-.23-.44.2-.88-.22-1.31-1.21,1.66-3.21,2.34-3.06,3.94ZM27.16,48.31c-.76.07-1.08,1.11-1.96,1.54.55,1.16,1.02,2.34,1.97,3.5.73-.26,1.46-1.36,2.18-1.97-.69-.27-1.47-.85-1.64-1.64,1.49-2.32,3.6-4.66,5.7-7.45-.41-.26-.13-.51-.55-.77-2,2.55-5.13,4.08-5.7,6.79ZM29.03,40.1c-1.17,1.14-.08,1.14,0,0h0ZM51.37,66.16c.4.42.19.43.66.66.28-.22.38-.44.22-.66-.29.22-.59-.45-.88,0ZM47.44,64.63c-.14,1.31-1.44,2.58-2.52,3.62,1.57.23,3.14-2.29,4.71-2.52.12-.15.23-.3,0-.44-.74.01-1.47-.41-2.19-.66ZM20.16,37.57c.45.36-.15.73.44,1.1.42-.33.57-.66.76-.99-.4-.35-.8-.36-1.21-.11ZM38.34,61.68c-.42.65.18,1.31.22,1.97.99-1.03,1.97-.49,2.96-.11.94,2.12-1.83,3.27-3.51,5.04.4.4.8.18,1.21.33.94-2.23,4.68-3.2,4.71-5.37-1.86-.4-3.73-.91-5.59-1.86ZM16.76,37.68c-2.16,5.41-1.48,10.81-1.97,16.22.54.32,0,.65.55.98-.15.15-.3.29-.45.44.93,1.35,1.18,2.71,1.65,4.05.83.4,1.6,1.48,1.75,2.41,2.35-.91,4.66-4.36,6.57-5.92-3.23-5.81-6.4-12.46-8.1-18.19ZM31.55,59.92c2.44,1.09.64,3.79-.98,4.49-.85,1.98-3.81,5.48-5.15,2.08-.73.17-.97.8-1.53,1.09,1.86.98,3.73.96,5.58.99-.03-.37-.5-.73-.43-1.1,2.07-2.16,4.26-3.99,6.46-5.81.31-.13,1.6-.12,1.21-.55-1.72-.24-3.43-1.99-5.15-1.21ZM22.02,65.28c2.23-2.61,4.73-4.59,6.13-6.79-.11-.11-.22-.22-.33-.33-1.81,1.65-5.11,4.34-5.81,7.12ZM32.31,68.79c.51.4,1.02.13,1.53-.43-.16-.26.12-.52-.33-.77-.4.05-1.15.81-1.2,1.2ZM21.03,65.84c.22.29.43.4.66.44.27-.3.26-.58,0-.88-.22.31-.44.04-.66.44ZM4.49,74.27c1.09,1.56,2.73,4.47,4.82,4.6,1.39-1.61,2.29-2.03,3.07-3.29.11.11.22.22.33.33,1.64-3.24,6.11-7.07,7.01-10.3-.43-.23-.88-.06-1.32-.44-.23-.65-.49-1.31-.88-1.97-4.58,3.54-9.62,6.4-13.03,11.06Z"/>
      </g>
    </g>
  </g>
</svg>