<?xml version="1.0" encoding="UTF-8"?>
<svg id="Layer_2" data-name="Layer 2" xmlns="http://www.w3.org/2000/svg" viewBox="0 0 147.34 134.47">
  <defs>
    <style>
      .cls-1 {
        fill: #fbb03b;
      }
    </style>
  </defs>
  <g id="Layer_1-2" data-name="Layer 1">
    <path class="cls-1" d="M147.32,65.59c.12,2.3-.41,4.51-.79,6.75-.38,2.29-.99,4.52-1.4,6.8-.14.82-.38,1.62-.56,2.42-.29,1.28-.26,2.62-.71,3.87-1.04,2.89-1.79,5.86-2.95,8.72-.57,1.42-1.58,2.64-1.88,4.19-.06.34-.29.74-.43,1.11-.05.12-.12.31-.21.32-1.28.25-1.56,1.47-2.1,2.32-1.65,2.56-3.53,4.92-5.59,7.15-1.32,1.43-2.6,2.91-3.98,4.28-3.46,3.42-6.98,6.76-10.75,9.84-1.3,1.07-2.68,2.05-4.03,3.07-.07.06-.18.08-.33.02,1-.78,1.99-1.57,3-2.33,2.3-1.75,4.4-3.73,6.52-5.69.94-.86,1.71-1.9,2.62-2.8,2.24-2.21,4.37-4.51,6.48-6.84,2.12-2.33,4.11-4.76,5.92-7.33.92-1.3,1.58-2.74,2.38-4.11.41-.7.68-1.44.97-2.18l-.18-.09c-.72,1.26-1.44,2.52-2.15,3.78-.77,1.36-1.72,2.59-2.67,3.82-.51.66-.89,1.44-1.55,1.98-.36.3-.68.65-1.08.93-.4.27-.37.98-.8,1.35-.02,0-.01.06-.03.07-.71.46-1.12,1.25-1.82,1.71-.14.1-.32.13-.14.33.09.1.08.21-.02.27-.7.5-.98,1.4-1.78,1.82-.74.38-1.41,1.02-1.72,1.69-.36.77-.87,1.12-1.54,1.42-.12.06-.24.13-.32.22-1.38,1.65-2.82,3.23-4.45,4.62-.15.12-.32.28-.48.23-.27-.08.12-.22-.03-.41-.64.57-1.47.86-2,1.62-.19.29-.75.31-1.01.58-.92.97-2.05,1.74-3.1,2.48-1.87,1.3-3.59,2.8-5.49,4.05-2.7,1.79-5.38,3.61-8.17,5.27-.66.39-1.33.77-1.99,1.16-.25.14-.58.24-.73.02-.22-.32.22-.31.36-.46.27-.29.56-.65.28-1.03s-.69-.14-1.02,0c-.58.29-1.14.63-1.72.93-.35.17-.7.41-1.09.12,2.11-1.56,4.31-3,6.35-4.65,1.61-1.29,3.41-2.33,4.9-3.75.55-.54,1.29-.9,1.62-1.68.11-.27.44-.47.71-.63,1.31-.76,2.21-2.01,3.39-2.93,1.09-.86,2.15-1.78,3.09-2.75,1.36-1.39,2.99-2.51,4.07-4.2.28-.43.61-1,1.2-1.35.53-.3,1.29-.71,1.34-1.58.02-.49.54-.11.7-.31.28-.35.68-.6.91-.95.75-1.12,1.85-1.93,2.57-3.07,1.16-1.85,2.69-3.44,3.71-5.38.06-.12.09-.26.17-.36,1.87-2.29,3.11-4.94,4.12-7.67,1.01-2.71,1.97-5.46,2.5-8.31.31-1.7.84-3.35,1.1-5.07.26-1.77.83-3.49,1.18-5.25.43-2.1.83-4.2,1.01-6.33.11-1.21.14-2.42.2-3.63.02-.48.18-.99-.35-1.33-.09-.06-.02-.15.2-.24.06-.03.14-.12.13-.15-.28-.73.39-1.63-.44-2.26-.12-.08-.09-.23-.02-.36.28-.52.22-1.07.12-1.62-.07-.37.04-.76-.38-1.05-.18-.12-.28-.6-.19-.8.32-.66-.16-1.13-.34-1.62-.33-.9-.63-1.83-.74-2.73-.1-.79-.58-1.32-.77-2.02-.19-.74-.54-1.43-.74-2.16-.45-1.58-1.36-2.94-2-4.5.49.2.47.75.89,1-.23-.84-.72-1.51-1.06-2.23-.38-.8-.85-1.58-1.24-2.39-.82-1.73-1.85-3.36-2.75-5.06-.64-1.21-1.42-2.33-2.32-3.35-.44-.51-1.2-.65-1.5-1.31h-.01c-.76.01-1.2-.56-1.59-1.05-.88-1.14-2.03-1.95-3.18-2.76-.23-.15-.42-.26-.53-.53-.09-.2-.23-.46-.42-.55-2.01-.98-3.34-2.79-5.07-4.12-1.35-1.04-2.73-2.01-4.17-2.92-.24-.15-.56-.27-.6-.64-.02-.18-.19-.27-.34-.31-1.59-.34-2.81-1.43-4.25-2.11-2.81-1.33-5.77-2.2-8.7-3.2-2.52-.86-5.03-1.76-7.62-2.43-2.77-.73-5.58-1.18-8.44-1.34-1.6-.09-3.2-.32-4.8-.41-1.93-.11-3.85.17-5.77.36-1.08.1-2.18.31-3.26-.06-.13.48-.55.39-.89.45-.52.1-1.04.21-1.56.29-.49.08-.99.17-1.49.19-.72.05-1.46-.11-2.14.19-1.61.71-3.29,1.23-5.02,1.52-2.34.4-4.49,1.36-6.7,2.12-2.31.8-4.39,2.09-6.54,3.21-.88.47-1.86.93-2.49,1.8-.07.1-.22.15-.34.2-.62.25-1.14.64-1.56,1.16-.5.6-1.18.97-1.78,1.44-2.19,1.71-4.5,3.27-6.57,5.13-.44.39-1.06.16-1.37.63-.08.12-.68.2-.11.59.19.12-.35.58-.65.69-.86.32-1.57.73-1.64,1.75-.02.23-.19.37-.33.42-1.1.39-1.22,1.71-2.16,2.23-.92.5-.66,1.62-1.27,2.35-.99,1.17-1.78,2.51-2.61,3.81-2.34,3.66-4.35,7.47-5.61,11.67-.59,1.95-1.16,3.9-1.65,5.88-.71,2.88-1.19,5.8-1.59,8.74,0,.02-.02.06-.01.07.57.74-.22,1.4-.12,2.14.1.8-.02,1.63-.03,2.45-.01.84-.03,1.68.01,2.52.05.82.18,1.63.26,2.44.08.85.12,1.7.2,2.54.09.81.2,1.63.32,2.44.12.84.24,1.67.4,2.5.76,3.69,1.77,7.3,3.25,10.76.76,1.78,1.81,3.41,2.95,4.97,1.73,2.37,3.51,4.7,5.16,7.12,1.74,2.57,3.58,5.05,5.49,7.48.27.33.6.58.86.91.66.83,1.39,1.61,2.08,2.41.31.97,1.24,1.28,1.97,1.8-.19-.24-.39-.47-.58-.71,1.89,1.32,3.77,2.64,5.65,3.95,3.4,2.38,7.23,3.74,11.08,5.02,3,.99,6.05,1.9,9.18,2.44,2.16.38,4.36.35,6.56.05,2.12-.29,4.21-.73,6.34-.98,1.61-.19,3.18-.71,4.79-1.03,2.18-.44,4.34-.93,6.44-1.65,1.77-.6,3.51-1.29,5.21-2.1,1.9-.92,3.68-2.04,5.47-3.15,1.7-1.05,3.24-2.32,4.71-3.67,1.58-1.45,2.99-3.05,4.28-4.73,1.27-1.67,2.32-3.49,3.32-5.35,1.83-3.4,3.22-6.98,4.62-10.55.81-2.04,1.21-4.19,1.65-6.34.23-1.09.41-2.18.61-3.27.39-2.16.59-4.35.64-6.54.04-2.09.09-4.18-.01-6.27-.1-2.41-.05-4.89-.88-7.18-.73-2.02-.96-4.19-2.04-6.09-.3-.51.24-1.24-.23-1.73-.8-.85-.98-1.99-1.32-3.01-.46-1.4-1.09-2.73-1.6-4.1-.11-.28.51-.3.1-.49-.13-.06-.4.2-.49-.13-.37-1.38-.93-2.72-1.52-3.99-.47-1.02-.64-2.19-1.43-3.1-.55-.64-.82-1.52-1.27-2.25-1.63-2.61-3.49-5.05-5.4-7.45-1.15-1.45-2.42-2.8-3.74-4.08-1.54-1.48-3.52-2.28-5.54-2.97-2.53-.86-5.07-1.71-7.71-2.19-3.97-.73-7.92-.68-11.84.44-5.11,1.45-10.2,2.99-15.25,4.64-3.48,1.13-6.5,3.14-9.36,5.38-1.06.83-2.09,1.69-3.08,2.6-.43.4-.75.94-1.08,1.43-.25.37-.6.64-.95.83-.57.31-.98.8-1.52,1.12-.71.41-.98,1.19-1.44,1.81-2.66,3.57-4.64,7.45-6,11.72-1.82,5.69-2.43,11.5-2.43,17.42,0,1.55.06,3.11.1,4.66.01.26.05.51.08.88.29-.45-.02-.87.29-1.32.27.71.11,1.35.18,1.95.48,3.98,2.03,7.54,4.12,10.92,1.54,2.48,3.26,4.8,5.31,6.88,1.93,1.95,4.24,3.32,6.59,4.69,1.52.89,3.09,1.7,4.67,2.47,2.71,1.33,5.49,2.49,8.44,3.16,1.61.37,3.26.2,4.89.13,2.59-.11,5.04-.86,7.48-1.65,1.74-.56,3.41-1.24,5.03-2.08,2.41-1.25,4.31-3.08,6.2-4.97,2.94-2.95,5.38-6.26,7.5-9.84,2.2-3.72,4.08-7.58,5.46-11.66.64-1.89,1.03-3.88,1.4-5.85.47-2.57.82-5.16.49-7.79-.1-.75-.3-1.47-.61-2.13-.92-1.95-1.92-3.87-2.92-5.79-1.11-2.13-2.85-3.6-4.94-4.74-2.14-1.17-4.34-2.15-6.66-2.9-2.56-.83-5.16-.93-7.77-.65-2.34.26-4.68.54-7.02.68-.78.04-1.51.38-2.33.28-.21-.02-.72.58-1.15.78-3.28,1.52-5.57,4.1-7.71,6.91-1.19,1.56-2.25,3.2-3.2,4.9-1.8,3.23-2.76,6.68-2.5,10.41.08,1.17.65,2.21,1.05,3.29,1.13,3.07,3.1,5.46,6.01,6.96,1.56.8,3.27,1.16,5.05,1.19,3.53.08,6.99-.19,10.17-1.9,1.3-.69,2.4-1.69,3.29-2.86.66-.85,1.37-1.67,1.87-2.66.35-.67.26-1.35.43-2.01.38-1.5.44-2.94-.65-4.24-.39-.46-.61-1.04-.91-1.57-.46-.81-2.26-1.24-3.12-.9-2.27.91-3.99,2.53-5.7,4.18-.2.2-.4.43-.75.3.48-.53.8-1.11.8-1.98-.74.7-1.63.94-2.25,1.74-.43.56-1.19.91-1.65,1.55-.14.19-.47.36-.71.13-.41-.36-.68-.21-.9.23-.4-.43-.23-.77.03-1.09-.22-.18-.59.16-.75-.26-.09-.24-.28-.08-.36.04-.32.45-.68.1-1,.03-.38-.08-.26-.45-.27-.72,0-.55.01-1.11.03-1.66.02-.91.78-1.42,1.22-2.06.6-.86,1.49-1.52,2.45-2.05,1.32-.72,2.43-1.75,3.7-2.54.88-.56,1.76-1.1,2.83-1.39,1.22-.34,2.35-1.03,3.51-1.6,1.19-.6,2.47-.77,3.77-.83,1.17-.06,2.33-.03,3.49.17,2.26.37,3.87,1.57,5.15,3.42,1.33,1.93,2.24,4,2.61,6.3.16,1-.11,2.01-.56,2.92-.79,1.61-1.7,3.16-2.42,4.79-.82,1.87-2.23,3.26-3.53,4.75-1.21,1.39-2.66,2.59-4.2,3.57-2.18,1.39-4.32,2.83-6.65,3.99-2.11,1.04-4.32,1.45-6.63,1.69-2.99.31-5.96.25-8.92-.26-.03,0-.07.06-.2.17,1.23.46,2.45.62,3.67.82-1.48.21-2.89-.18-4.26-.66-2.5-.88-4.83-2.11-7-3.66-.78-.55-1.45-1.23-2.14-1.89-.15-.14-.26-.33-.33-.53-.2-.6-.41-1.17-1.04-1.5-.19-.1-.34-.34-.43-.55-.65-1.56-1.32-3.11-1.91-4.69-1.06-2.86-1.32-5.79-1.15-8.85.22-3.88,1.84-7.14,3.74-10.37,1.3-2.21,2.83-4.26,4.35-6.31,1.55-2.11,3.55-3.77,5.72-5.23,1.37-.91,2.67-1.92,4.06-2.8,3.57-2.27,7.36-3.87,11.7-3.71,2.19.08,4.36-.15,6.52-.42,5.69-.7,11,.73,16.15,2.97.27.12.54.23.81.34.17.07.38.16.37.36-.02.32-.38-.02-.49.25.63.33,1.26.68,1.99.83.09-.3-.22-.35-.28-.61.42.21,1.11.27,1.04.71-.07.49.21.54.41.69,1.91,1.37,3.43,3.13,5.07,4.78,1.65,1.65,2.75,3.68,3.38,5.79.73,2.48,2.02,4.86,1.86,7.58-.14,2.67-.63,5.28-1.33,7.85-.63,2.28-1.19,4.59-2.13,6.78-1.77,4.09-3.95,7.98-6.27,11.79-.39.63-.77,1.27-1.13,1.92-.38.67-1.01,1.13-1.45,1.77-1.78,2.57-3.86,4.89-6.01,7.15-.54.56-1.23.99-1.81,1.52-.78.72-1.47,1.5-1.86,2.51-.12.32-.17.29-.59.12-.18-.07-.3.06-.42.16-2.06,1.63-4.45,2.72-6.7,4.05-.18.11-.68.11-.36.61.08.13-.24.25-.4.32-1.49.6-2.95,1.27-4.49,1.74-.43.12-.88.23-1.22.54-.56.51-1.37.17-1.96.58-1.86,1.31-4.09,1-6.14,1.47-1.89.43-3.74.06-5.6.3-1.28.17-2.63-.17-3.95-.29-1.51-.13-2.92-.7-4.39-.95-.5-.09-.41-.54-.66-.7-.43-.28-.91-.47-1.38-.69-4.17-1.97-8.37-3.9-12.23-6.47-3.22-2.15-5.79-4.95-8.01-8.12-1.69-2.41-3.09-4.98-4.52-7.54-1.39-2.49-2.07-5.15-2.54-7.93-.44-2.53-.3-5.06-.31-7.59-.01-4.6.33-9.18.97-13.73.63-4.53,2-8.85,4.16-12.91,1.39-2.6,2.99-5.06,4.93-7.25,1.98-2.23,4.23-4.19,6.5-6.13,2.3-1.95,4.71-3.74,7.19-5.43,3-2.04,5.99-4.14,9.43-5.42,2.72-1.01,5.53-1.72,8.31-2.52,2.16-.61,4.31-1.26,6.46-1.89,3.62-1.05,7.29-1.82,11.06-1.86,3.28-.04,6.49.57,9.66,1.43,2.05.56,4.12,1.09,6.15,1.76.97.32,1.94.68,2.88,1.09,2.68,1.18,5.02,2.83,7.12,4.9,1.88,1.85,3.22,4.09,4.81,6.15.26.33.51.68.76,1.02,1.99,2.78,3.66,5.76,5.33,8.75.64,1.15,1.27,2.3,1.77,3.52,1.54,3.77,3.06,7.55,4.57,11.33.17.43.41.88.2,1.37-.02.06-.04.12-.06.17.63,2.08,1.25,4.16,1.87,6.24.11.35.31.73.25,1.07-.29,1.75.43,3.4.43,5.14s.14,3.58.22,5.36c.09,2.18-.06,4.38-.32,6.56-.3,2.45-.58,4.91-1.18,7.32-.67,2.64-1.54,5.2-2.63,7.7-1.16,2.62-2.17,5.32-3.5,7.86-1.17,2.23-2.44,4.43-4.03,6.42-.04.05-.12.06-.19.09-.04-.54.61-.78.64-1.4-1.34,1.55-2.31,3.26-3.51,4.8l1.56-1.59c-.26.94-.97,1.57-1.59,2.24-.47.5-1.05.9-1.49,1.47-.84,1.08-2.04,1.75-3.04,2.65-1.42,1.26-2.95,2.36-4.53,3.39-3.43,2.24-6.99,4.2-10.75,5.84-2.49,1.09-4.98,2.17-7.6,2.93-1.87.54-3.73,1.11-5.62,1.56-1.51.36-3.03.88-4.55,1.06-1.7.2-3.38.5-5.08.69-.96.11-1.93.21-2.82.78-.37.23-.99.28-1.58.13-.29-.08-.84.05-1.24.02-1.73-.13-3.49-.14-5.16-.53-2.15-.51-4.27-1.26-6.45-1.53-1.28-.16-2.34-.8-3.58-1.01-1.03-.18-2.11-.5-3.09-.9-3.51-1.45-6.96-2.96-10.19-5.03-4.15-2.66-7.66-5.94-10.88-9.61-.56-.63-.98-1.37-1.56-1.98-1.79-1.88-3.12-4.1-4.57-6.23-1.04-1.52-2.17-2.96-3.29-4.42-1.17-1.54-2.28-3.1-3.17-4.83-1.55-3.05-3.11-6.09-4.12-9.38-.77-2.48-1.82-4.88-2.15-7.48-.07-.64-.14-1.27-.1-1.9.05-.81-.43-1.5-.49-2.3-.08-1.25.1-2.51-.12-3.75.97-1.38.05-2.75,0-4.13-.06-1.96.22-3.91.34-5.86.11-1.83.7-3.56.87-5.37.06-.65-.02-1.31.22-1.95,1.44-3.83,2.23-7.88,3.77-11.7,1.5-3.74,3.44-7.21,5.53-10.64.69-1.13,1.55-2.11,2.28-3.19,1.45-2.16,3.18-4.09,4.92-6.02,1.98-2.19,4.2-4.09,6.56-5.85,2.89-2.17,5.77-4.36,8.74-6.41,1.71-1.18,3.61-2.06,5.39-3.13,1.92-1.16,3.98-2.03,5.91-3.17l-.03.03c1.51-.55,3.02-1.12,4.54-1.65,3.13-1.09,6.36-1.84,9.58-2.6.75-.18,1.54-.24,2.26-.52,2.26-.26,4.46-.89,6.74-1.04,1.45-.1,2.9-.24,4.35-.29,4.63-.17,9.22.37,13.81.81,1.37.13,2.72.37,4.05.68.27.06.57.3.83-.12.1-.15.32.09.5.11-.12.49.38.4.47.35.47-.28.88-.03,1.27.12,2.15.81,4.4,1.32,6.55,2.16.89.35,1.84.58,2.78.78,1.28.29,2.36,1.05,3.61,1.42,2.98.87,5.75,2.25,8.38,3.88,2.18,1.35,4.09,3.08,6.17,4.57,2.36,1.68,4.54,3.6,6.87,5.34.9.67,1.68,1.52,2.6,2.17.82.58,1.52,1.3,2.37,1.85.42.27.69.69,1.01,1.06,2.14,2.51,3.82,5.34,5.38,8.24,1.91,3.53,3.97,6.98,5.41,10.75.77,2.01,1.53,4.04,2.27,6.07.09.24.28.54.02.88-.79-1.23-.9-2.72-1.57-3.96-.07.03-.13.05-.19.07.32,1.07.69,2.12.93,3.21.77,3.4,1.51,6.79,1.59,10.31.03,1.6.14,3.21.23,4.81ZM121.03,76.9c.24-1.04.27-2.13.21-3.23-.07,0-.14,0-.21-.01v3.24ZM118.93,90.7c1.61-4.28,2.06-8.73,2.14-13.23-.44,4.46-.96,8.89-2.14,13.23ZM102.13,117.64c-.04-.05-.08-.1-.12-.16-1.37,1.05-2.74,2.1-4.12,3.14.05.06.1.13.15.19,1.35-1.07,2.81-2,4.09-3.17ZM24.89,26.2c.68-.51,1.06-1.02,1.54-1.7-.81.38-1.17.89-1.54,1.7ZM1.53,66.2c.32-3.84.98-7.63,1.78-11.4-1.09,3.72-1.74,7.51-1.78,11.4Z"/>
  </g>
</svg>