<?xml version="1.0" encoding="UTF-8"?>
<svg id="Layer_2" data-name="Layer 2" xmlns="http://www.w3.org/2000/svg" viewBox="0 0 152.82 146.87">
  <defs>
    <style>
      .cls-1 {
        fill: #fbb03b;
        fill-rule: evenodd;
        opacity: .65;
      }
    </style>
  </defs>
  <g id="Layer_1-2" data-name="Layer 1">
    <path class="cls-1" d="M115.06,2.36c.28.95-.62,1.04-.42,1.93,2.12,6.35,2.62,12.49,4.38,18.08.22.72.89,1.62.84,2.46-.14,2.45-5.69,5.85-8.98,7.21-5.23,2.15-11.91,2.82-17.06,4.93-4.89,1.99-11.28,3.96-16.46,5.76-.03,1.92.84,3.44,1.52,5.4,4.1,11.82,7.77,24.28,10.27,33.82,1.22,4.65,1.8,9.62,4.65,12.18,1.53.59,3.25,1.65,4.96,1.82,8.14.84,17.6-.5,26.45-1.66.48-3.95,1.66-8.72.39-12.94-.19-.62-.16-2.12-.55-3.66-.97-3.72-2.39-8.04-3.44-11.89-.47-1.7-.93-3.6-1.45-4.93-.78-1.99-3.12-4.32-.44-6.03,2.09-.52,3.82.02,5.48.58,4.26,1.44,11.08-.17,16.32,1.05,6.39,10.92,4.64,24.43,7.18,36.62,1.42,6.88,3.17,13.61,4.13,21.16-3.77,3.99-10.82,4.75-17.44,5.45-3.96.42-7.92,1.8-11.8,2.48-4.72.83-9.52.48-13.91.94-2.71.29-5.5,1.25-8.44,1.5-6.55.57-13.29.78-18.58,2.59-2.68.91-4.65,1.92-7.01.12-2.12-6.98-5.81-12.35-8.51-19.09-2.52-6.31-4.83-13.73-7.81-20.61-2.07,1.43-2.15,3.99-3.06,6.09-2.05,4.72-5.53,8.84-7.55,13.55-1.46.83-1.71,3.4-3.21,3.53-2.09,5.92-7.19,9.62-10.43,14.7-2.8,2.14-5.43,4.4-7.6,7.01-.5.24-1.13.38-1.53.7-4.24,4.23-13.08,8.72-19.49,12.09-.88.45-1.7,1.42-2.57,1.56-2.22.34-5.01-1.81-3.38-3.71,4.18-1.12,4.76-4.9,6.82-7.59.22-1.34-1.53-1.42-1.04-2.19.66-3.78,5.52-4.48,7.31-7.43,8.24-21.4,19.29-41.07,21.86-66.08-2.32-.04-5.55,1.47-9.27,2.33-2.34.54-5.26.44-7.08,1.07-1.21.43-1.63,1.94-2.74,2.06-1.56.16-2.58-2.03-3.43-2.53-.95-5.5-2.27-9.96-3.1-14.29-.31-1.67-.08-3.45-.53-5.07-.91-3.3-3.13-6.09-4.07-9.92,5.39-2.06,10.86-4.07,16.16-6.19,1.94-3.53,7.34-2.72,13.43-4.14,4.07-.96,8.73-3.22,12.4-4.69,2.32-.93,5.09-1.26,7.61-2.32,11.86-4.97,29.41-9.16,42.45-12.03,4.05-.9,9.51-1.86,11.9-3.45,1.84-1.21,4.93-.82,5.88,1.69ZM106.38,6.94c1.07.75,2.75,2.14,4.2,1.47-.63-.43-.24-2.25-1.07-2.41-.94.39-2.34.45-3.13.94ZM77.61,13.4c-.06.5-.47.74-.25,1.45.98-.47,4.16-.98,4.8-2.37-1.47-.41-2.59,1.04-4.54.92ZM72.55,27.99c1.3-.47.32-1.65.31-2.62-.04-3.05.07-7.35-.6-10.21l-.69.1c.5,4.24-.41,8.51.99,12.73ZM64.84,17.21c.11,2.03.24,4.75,1,6.63,2.54-1.07.08-4.77,1.01-7.18-.94-.02-1.27.42-2.02.55ZM89.5,22.38c1.1-1.36,1.18-3.47,1-5.78-2.34.76-.97,4.23-1,5.78ZM110.36,17.82c.99.22,1.23,1.45,2.53,1.26-.06-1.35-.52-3.02-.88-4.32-1.56.27-.94,2.16-1.65,3.06ZM83.47,21.18c.86.03.83-.61.74-1.28-.29.03-.35-.24-.72-.13.27.68-.11.88-.02,1.41ZM78.46,25.22c-.63-.32.68-2.48-.64-2.71-.04.57-.15,3.45.64,2.71ZM21.23,32.47c0,1.13-.52,2.8.09,3.74.71-.08,1.05-.44,1.53-.7-1.15-4.39,4.4-4.83,6.43-4.01.02-.45.4-.65.27-1.22-3.15-.33-5.47,1.65-8.33,2.2ZM15.72,34.72c.85,1.14.16,3.53,1.07,4.05-.11-1.3.21-2.61.03-4.46-.55.01-.87.17-1.11.41ZM83.81,26.52c.02-.19.15-.3.42-.3-.47-.95.14-1.64-.77-1.99-.02.65-.59,2.17.35,2.3ZM104.03,28.61c.99-.22,1.83-.54,2.68-.87-.07-1.28-.62-1.9-1.68-1.85-.85.52-.94,1.62-1,2.72ZM21.33,45.58c.78-.85.66-2.82.17-3.55-.87.46-.88,2.61-.17,3.55ZM38.6,42.03c.22-.87,1.3-2.05-.15-2.56-.56.73-.08,2.12.15,2.56ZM45.77,41.42c.19-.48.13-1.13.21-1.68l-.69.1c.39.83-.38,1.51.48,1.57ZM17.04,60.52c.65-.4.88-1.12,1.66-1.43-.82-1.1-1.34-2.6-1.62-4.43-.34-.19-.87-.1-1.21-.28-.68,1.54.91,4.09,1.17,6.15ZM46.99,54.11c.63.15,1.2.38,2.13.15-1.02-1.32-1.23-2.96-1.34-4.25-.08-.17-.24-.24-.49-.17.25,1.73-.92,2.87-.29,4.27ZM29.97,56.21l1.38-.21c-.07-.72-.7-.7-1.28-.74-.04.32-.26.49-.09.95ZM49.33,75.77c1.35-.85.38-2.15,1.39-3.25-.34-6.06,1.25-11.76.47-16.94-.07-.17-.23-.23-.49-.16-.98,5.59-1.94,13.65-1.37,20.35ZM129.56,61.06c1.75,2.54,1.97,6.18,3.6,8.35.5-1.88.23-4.42-.28-6.51.02-1.01,1.15-1.19,1.06-2.28-1.2.66-3.23-.26-4.39.43ZM44.91,96.12c1.06-1.18,3.08-2.53,2.12-4.53-.72.24-1.09,0-1.63,0-.26,1.44-.96,2.56-.49,4.53ZM38.23,104.62c2.09-.5,2.84-1.99,2.93-3.95-.56-.34-1.07-.76-1.78-.9-.72,1.36-1.29,2.84-1.15,4.85ZM130.79,90.85c.46.47,1.2.56,1.77.9-.43-1.47-.13-3.58-1.58-4.21-.09,1.08-.22,2.14-.2,3.31ZM92.14,100.22c.76-.05,1.06-.44,1.01-1.09-.32-.02-.49-.26-.95-.09-.16.3-.21.66-.07,1.19ZM87.39,102.81c.18-.23.27-1.53-.24-1.61-.33.33-.61,1.58.24,1.61ZM98.17,104.46c1.06-.31.31-1.94,1.3-2.3,2.69-.52,4.04.76,4.87,2.77,1.47-.94.2-3.52-.46-4.61-1.95-.21-3.89-.42-6.32.01-.39,1.36.5,2.63.62,4.13ZM110.74,102.32c.22-.44-.14-1.85-.77-1.99-.47.36-.25,2.09.77,1.99ZM98.45,106.29c.76.25.48-1.6-.17-1.14l.17,1.14ZM79.85,122.68c.96-.16,1.28-.82,1.39-1.6-.72.24-1.09,0-1.63,0-.29.35-.14,1.35.24,1.6ZM135.53,114.5c1.16,1.51,5.03.57,7.47-.19,1.75-.55,4.59-1.42,3.51-3.1-3.3,1.58-7.1,1.91-10.98,3.29ZM11.09,137.31c.61.02,1.17-1.01.51-1.25-.19.47-1.18.76-.51,1.25Z"/>
  </g>
</svg>