<?xml version="1.0" encoding="UTF-8"?>
<svg id="Layer_2" data-name="Layer 2" xmlns="http://www.w3.org/2000/svg" viewBox="0 0 142.39 167.06">
  <defs>
    <style>
      .cls-1 {
        fill: #fbb03b;
        opacity: .85;
      }
    </style>
  </defs>
  <g id="Layer_1-2" data-name="Layer 1">
    <g>
      <path class="cls-1" d="M106.66,23.37c-.06-2.17,1.51-2.11,2.4-3.16.17-.2-.14-.92-.07-1,.09-.1.59.29.75.14.52-.53,1.99-2.94,2.67-3.17.45-.15.59,1,.94.39.4-.68-.81-.74-.64-.96.05-.06.58,0,.68-.16.79-1.14,2.76-3.61,3.74-4.5.3-.28,1.08-.1,1.22-.22.07-.06-.2-.93-.13-1.03.25-.34,1.3.41,1.34.35.06-.08-.21-1.05.64-2.05,2.06-2.41,10.64-9.96,13.73-7.53.42.32.45,1.39.51,1.43.06.05,1.13-.06,1.59.19.49.28-.04.83.11.9.35.15,1.15-.6,1.68-.24.7.47.4,1.49.64,1.73.11.11,1.21.13,1.4.36,2.25,2.68,3.01,5.68,2.28,9.08-.02.11-1.11.96-1.27,1.43-.13.4.45,1.04.36,1.4-.49,1.81-5.13,5.91-6.43,7.63-.54.72-.32,1.94-.38,2.03-.05.06-1.23.59-1.39.79-1.79,2.38-2.99,5.06-4.51,7.18-.21.29-2.58,1.04-1.91,2.4l-.57-.44-16.63,19.73c-2.2,2.66-5.34,5.3-7.21,7.83-.16.21.15.92.08,1-.21.26-.15-1.01-1.17.23-4.31,5.27-7.84,12-12.57,17.01-.26.28-1.47.87-1.87,1.42,1.44-3.04-.41-1.11-.77.11-.12.41.79-.05.62.81-.02.1-1.07,1.15-1.16,1.08-.23-.19.93-1.83,0-1.05-.18.86-.66,4.41-1.56,3.07.83,2.27-2.11,2.03-.8,4.76,1.45,3.03,5.51,7.45,9.18,11.34H31.21c-.11-.2-.23-.4-.23-.53.06-1.68.52-3.56,1.44-.97.41-.94-.92-1.37.02-1.82l.32.48c1.43-3.93.15-5.61-2.39-8.56l-.19.53c-1.22-.97-4.95-4.56-3.9-6.02l-.99.39c-2.07-2.5-3.64-5.36-5.5-7.99-.64-.92-1.12-1.74-1.57-2.39-1.79-2.57-4.02-4.89-5.15-7.89l-.47.32c-.35-1.54-1.81-2.65-2.56-3.8-.56-.85-1.14-1.75-1.75-2.69-.66-1.03-1.38-2.53-2.09-3.66-.17-.27-.61.12-.62.1-.54-.88-4.67-8.01-4.94-8.71-1.7-4.46.37-2.54,1.33-3.35.06-.05-.23-.89-.1-1,.3-.27,1.31-.28,1.66-.57.18-.15.11-.91.44-1.16.58-.45.96-.57,1.69-1.13.35-.28.21.7.57.45.12-.09,1.05-1.99,1.99-2.07l-.8-3.04c1.7.23,3.6-.88,3.31-2.75,1.15,1.18.49-.44.96-.66.74-.34,2.33-.39,2.98-.8.23-.14.58-1.59,1.06-1.78.69-.28,2.37-.25,3.27-.48.19-.04-.06-.45.19-.49.3-.05-.06.52.45.47.05,0-.19-.53.06-.53.48,0,3.02,1.05,3.35,1.12.84.19,3.3.02,3.45.11.09.06-.37.69,0,1.03.44.41,1.59.79,1.84,1.01.85.76,5.28,5.83,5.7,5.86.72.06.41-.59.58-.6.9-.03,2,.13,2.97-.11-3.56-.81,1.99-.71,2.88-.59,3.9.53,3.05,1.54,4.83,3.48.14.15.79-.23,1.04.07.59.7,1.58,2.3,1.43,3.31l12.56,16.81c1.08-.42,1.32-2.16,2.32-1.23.19-2.7.36-.43.92-1.15.06-.09-.69-1.55.59-.34-1.15-2.43.43.61,1.81-1.99.21-.4.02-.5.35-1.18,0,.07.03.16.08.28.76.18.36-.45.45-.58.04-.05,1.19-1.12-.06-.51.28-.42,2.15-3.15,2.34-3.17.16-.02.28,1.39.58.45.08-.24-.4-.59.05-1.34.42-.7,3.98-4.05,4.78-4.75-.94,2.03-.07.63.51-.06.11-.14.84-.32.94-.78l-.54-.19c.24-.26.31-.61.49-.9.23-.35,5.56-5.7,5.96-5.78.57-.12.04.83.61.7-.71-1.32,1.24-1.96,2.19-2.68,1.29-.98,2.65-2.08,4.84-2.11.64,0,2.85,1.86,2.7.81.56.23,2.63-.49,2.74-.58.11-.09.32-1.44,1.3-2.33.13-.12,2.69-.15,1.78-2.11,1.74,1.66.34-.24.69-.74.55-.79,1.23.08,1.29-.03.1-.19-.66-1.17-.03-1.3.06,0,.56.54.83.41.39-.18.22-1.05.26-1.08.22-.21,1.09.79.7-.62-.02-.02-.54.67-.53-.06,0-.29,2.77-3.39,1.17-.02,2.62-2.04.71-1.7.66-2.03-.03-.24,1.13-.42.4-.96,1.28-.23,2.25.18,2.7-1.26-2.34,2.26.32-2.65.49-.5ZM124.06,38.43l.11-.15-.15-.11.03.26ZM116.61,12.52l.11-.15-.14-.11.03.26ZM114.94,14.81l-.06-.51-.25.03.06.51.25-.03ZM109.08,21.03l.11-.15-.15-.11.03.26ZM107.7,21.47c-.37.49.63.82.77-.1-.2.05-.72.04-.77.1ZM107.61,22.78l-.06-.51-.25.03.06.51.25-.03ZM104.7,25.5l.11-.15-.14-.11.03.25ZM103.73,28.23l.11-.15-.15-.11.03.26ZM100.31,32.05l.11-.15-.14-.11.03.25ZM96.69,34.34l-.03-.25-.33.43.14.11.23-.28ZM94.38,36.72l.11-.15-.15-.11.03.26ZM89.11,79.37l.11-.15-.15-.11.04.26ZM89.17,80.92c.02-1.05-1.11-1.37-.36-.27.14.2.03.38.36.27ZM87.8,81.36l.11-.15-.14-.11.03.26ZM84.18,38.53l.11-.15-.15-.11.03.26ZM83.57,88.15l-.06-.51-.25.03.06.51.25-.03ZM82.67,89.31l-.06-.51-.24.03.06.51.24-.03ZM82.35,89.88l.11-.15-.15-.11.03.26ZM80.73,42.1l.11-.15-.14-.11.03.26ZM79.54,43.03l.11-.15-.15-.11.03.25ZM78.77,44.17l-.06-.51-.25.03.06.51.25-.03ZM78.16,44.51l.11-.15-.15-.11.03.26ZM77.85,45.07l-.03-.25-.51.06.03.25.51-.06ZM76.79,45.99l.11-.15-.15-.11.03.25ZM76.34,46.57l.11-.15-.15-.11.03.26ZM73.01,50.12c.16.11.65-.65.41-.83-.15-.13-.65.67-.41.83ZM72.21,50.99c.36,0,.43-1.16.04-.78-.03.02-.12.79-.04.78ZM71.5,51.61l.11-.14-.15-.11.03.25ZM71.44,52.14l-.03-.24-.51.06.03.25.51-.06ZM70.13,53.09l.11-.15-.15-.11.03.26ZM69.01,54.53l.11-.15-.15-.11.03.25ZM67.79,56.25l-.06-.51-.25.03.06.51.25-.03ZM62.19,62.44l.11-.15-.14-.11.03.26ZM61.74,63.02c.09-.06.16-.19.1-.27-.02-.02-.55-.03-.49.19,0,.52.12.49.4.07ZM33.24,40.82l-.06-.51-.25.03.06.51.25-.03ZM33.08,95.08l-.06-.51-.25.03.06.51.25-.03ZM32.66,40.37l-.06-.51-.25.03.06.51.25-.03ZM32.41,93.86l-.06-.51-.25.03.06.51.25-.03ZM31.75,102.03l.11-.15-.15-.11.03.26ZM31.77,92.9c.07-.11-.19-.26-.31-.36-.66-.32-.05.9.31.36ZM31.66,103.34l.11-.15-.15-.11.03.25ZM31.61,39.2l.11-.15-.15-.11.03.26ZM31.28,38.72l.11-.14-.15-.11.03.25ZM30.89,92.23l-.06-.51-.25.03.06.51.25-.03ZM30.09,92.07s.02-1.09.1-1.32c-.72.21-.53,1.79-.1,1.32ZM28.52,88.88l.11-.15-.15-.11.03.26ZM28.42,90.19l.11-.15-.15-.11.03.25ZM28.23,89.7l-.06-.51-.25.03.06.51.25-.03ZM27.88,88.96l-.03-.25-.51.06.03.25.51-.06ZM27.26,88.26l-.06-.51-.25.03.06.51.25-.03ZM27.1,86.97s-.06-.73-.1-.76c-.39-.41-.15,1.26.1.76ZM25.47,86.4c.4,0,.58-.93.37-1.09-.32-.25-1.02,1.07-.37,1.09ZM24.96,85.42l.11-.15-.15-.11.03.26ZM23.82,83.73l-.02-.25-.51.06.03.25.5-.06ZM23.15,81.47l-.02-.25-.34.43.14.11.23-.28ZM22.99,83.32c.44.06.15-1.02.12-1.06-.57-.66-.41.68-.12,1.06ZM22.52,37.49l.11-.15-.15-.11.03.26ZM22.03,81.88c.55.46.38-1.53.32-1.6-.08-.08-.92.7-1.67-.83.17.36,1.25,2.35,1.35,2.44ZM21.58,79.33l.11-.15-.14-.11.03.25ZM20.96,78.62l.11-.15-.15-.11.03.25ZM20.48,77.9l-.06-.51-.25.03.06.51.25-.03ZM19.15,77.68c.08.44,1.02.34.49-.19-.02-.02-.53-.03-.49.19ZM19.1,77.29s-.07-.74-.1-.76c-.39-.42-.15,1.26.1.76ZM19.03,75.73l-.03-.24-.29-.22.18.36.15.1ZM17.74,73.82l.11-.15-.15-.11.03.26ZM16.97,73.91l.11-.15-.15-.11.03.26ZM16.46,71.9l.11-.15-.15-.11.03.26ZM15.46,71.23s-.06-.73-.1-.76c-.39-.41-.15,1.26.1.76ZM15.17,69.97l.11-.15-.15-.11.03.25ZM15.14,71.8l.11-.15-.15-.11.03.26ZM5.92,58.63l.11-.14-.14-.11.03.25Z"/>
      <path class="cls-1" d="M127.25,143.16c.32.94-.77,1.05-.9,1.43-.16.46.33,1.02.16,1.47-.32.86-1.77.71-1,1.43-2.35-1.01-3.17,1.8-3.78,2.03-.06.03-.62-.48-1.22-.25-.89.33-.89,1.04-1.02,1.08-.12.03-.76-.65-2.13-.28-2.27.59-1.77,1.74-4.92,1.01-.92-.22-4.34-2.35-4.47-2.14-.06.09.45,1.55,0,2.08.8-.78.49.55.68,1.22l.45-.58c1.05,3.92,5.49,7.21,4.16,11.86.11-.75-2.07.02-2.11.14-.05.13.74,1.68.52,2.02-.12.19-2.73-.16-3.03-.12-1.48.2-3.72,1.03-5.05,1.17-.62.06-1.86-.67-2.41-.51-.37.11.35.75-.41.83-1.6.17-5.74-2.76-6.41-4.12l-.45.58c-.54-1.57-2.58-2.68-3.56-3.62-4.77-4.57-8.86-9.77-13.42-14.5-.32-.33-.92.1-.96.06-.68-.7-2.01-2.65-3.1-3.78-.21-.23-.23-.45-.25.03-1.18-1.28-2.28-2.16-2.84-3.82.29.11.53.36.83.41l-1.06-1.17c-.39.25.17.59.23.75-.14-.06-.71.16-.77.1-.13-.15.5-1.46-.36-1.77.53,2.24-1.2.57-1.37-.9.02-.14.02-.3.02-.49-.03.16-.03.32-.02.49-.15,2.2-2.21-1.86-1.88-3.13l-.41.83.06-1.45c-.62,1.6-3.14-1.33-1.87-2.5-1.1.53-.69-.71-.74-.68-.82.58.39,1.3-.19,1.58-.18-1.02-.35-.94-.96-1.44-.09-.06.04-1.15-.52.06-.79-.48-1.09-1.45-1.53.19,0-.7-1-1.72-1.7-1.3-.41.25-4.46,7.04-5.24,8.09-.32.44-.69.83-1.13,1.44-.15.21-.75-.07-.77-.03-1.81,2.45-3.41,6.17-5.54,8.66-.62.73-5.47,5.55-5.96,5.7-2.1.62-2.46-.84-2.61-.88-.43-.11-2.19.46-2.42.32-.09-.05-.03-.94-.13-1.03-.16-.14-2.14,2.18-1.34-.22-1.05.83-1.05.2-.33-.61-1.64.59-2.39-1.43-2.54-1.51-.09-.05-1.6,0-2.02-.23-.59-.34-.66-2.35-2.38-.15-.55.71-1.95,4.11-2.83,5.56-.44.71-.4,1.97-.46,2.06-.06.08-.67-.28-.77-.15-1.3,1.9-2.11,2.33-2.33,4.46l-.64-.96c-.93,2.47-1.24.97-1.79,1.26-.12.06-.32.96-1.16,1.17-.12.03-2.24.07-2.47.07-.03,0-.06-.77-.1-.77-.58-.06-1.86.62-2.77.28-1.15-.44-5.32-5.1-5.99-6.17-.36-.57-.18-1.17-.24-1.3-.02-.04-.72.13-.74.07-.59-1.64,1.47-2.92,1.44-4.86l.41,1.24c.41-.51-.06-2.19,0-2.32.02-.06.7-.08.83-.4.95-2.24,1.86-4.67,3.05-6.78.82-1.46,2.95-3.29,3.44-4.52.15-.36-.32-.78-.31-.83.06-.21.53.14.72-.34.02-.06-.66-.38-.59-.58.03-.09.61.35,1.13-.39,1.99-2.8,2.84-6.76,5.19-9.41l-.51.06.12-1.18.6.7c-.3-1.09.53-2.67.54-.85.22-.75,1.54-1.68,1.8-2.07.58-.87,1.09-4.3,1.73-2.03l.7-2.7c1.16,1.7-.18-.7,1.35-1.61-.16-.77-1.87,2.4-1.47.6.25-1.13,1.96-1.43,2.01-1.55.37-.84-.61-2.86,1.72-1.81-.55-.88.08-2.24.9-1.16-.92-1.69.29-.68.41-.83.16-.21-.36-.7-.36-.74.38-.28.83-.51,1.2-.81-.2-.03-1.23.24-1.26.3-.05.11.1.39.06.51-.56.43-.95,1.17-1.02,1.17-.87.09,1.57-3.09,1.66-3.34-.42,1.4.88.88,1,.65.23-.47-.7-1.06-.67-1.21.02-.11.86-1.2,1.39-1.85h.32c-.06.41-.07.86.15,1.09.04-.56,0-.97.11-1.09h.19c.12.06.29.21.53.45,0-.14-.08-.29-.16-.45h60.93c2.05,2.18,3.98,4.2,5.27,5.72,6.85,8.06,13.56,16.36,20.59,24.27.22.25.75,0,.8.06.04.05-.15.54.1.82,1.03,1.16,8.15,8.01,8.35,8.57ZM86.68,156l.11-.15-.15-.11.03.25ZM79.19,148.34l.11-.14-.15-.11.04.25ZM75.88,144.85l.11-.14-.15-.11.03.25ZM74.85,143.94l-.06-.51-.25.03.06.51.25-.03ZM74.23,142.19l.11-.15-.15-.11.03.26ZM74.23,143.24l-.06-.51-.25.03.06.51.25-.03ZM73.3,141.01l.11-.15-.15-.11.03.26ZM73.33,142.3c.02-1.05-1.11-1.37-.36-.27.15.2.03.38.36.27ZM72.43,141.37c.04-.39-.19-.53-.48-.71-.02.24.21.87.48.71ZM71.76,139.12l.11-.15-.15-.11.03.26ZM69.57,137.31l-.06-.51-.25.03.06.51.25-.03ZM68.13,137.23l.11-.15-.15-.11.03.26ZM67.16,134.74l-.06-.51-.25.03.06.51.25-.03ZM66.46,135.35s-.06-.74-.1-.76c-.39-.41-.15,1.26.1.76ZM66.2,133.3l-.06-.51-.25.03.06.51.25-.03ZM65.18,132.39l.11-.15-.15-.11.04.25ZM63.98,132.27c.49.02.82-.41.67-.86-.23.13-.61.61-.67.86ZM63.92,131.76l-.03-.25-.51.06.03.25.51-.06ZM60.19,128.07l.11-.15-.15-.11.03.26ZM30.21,106.57c.37-.65-.56-.51-.53-.06.02.23.52.09.53.06ZM30.16,107.1l.11-.14-.15-.11.03.25ZM25.64,113.67c.39.16.53-.89.03-.79-.23.05-.06.77-.03.79ZM25.13,114.78l.11-.15-.15-.11.03.26ZM24.97,115.58l.11-.15-.15-.11.03.26ZM21.68,120.44l.11-.15-.14-.11.03.26ZM19.85,123.53l-.06-.51-.25.03.06.51.25-.03ZM17.23,127.52c.13.04.83-.72.54-.84-.05-.02-1.04.68-.54.84ZM16.53,129.17l.11-.15-.15-.11.03.26ZM14.64,132.8l.11-.15-.15-.11.03.26ZM14.23,133.63l.11-.15-.15-.11.03.26ZM12.72,136.17l.11-.15-.15-.11.03.25ZM6.06,157.62l.11-.15-.15-.11.03.25ZM4.64,151.54s-.07-.74-.1-.77c-.4-.41-.15,1.26.1.77Z"/>
    </g>
  </g>
</svg>