<?xml version="1.0" encoding="UTF-8"?>
<svg id="Layer_2" data-name="Layer 2" xmlns="http://www.w3.org/2000/svg" viewBox="0 0 993.13 182.18">
  <defs>
    <style>
      .cls-1 {
        fill: #0e7462;
      }
    </style>
  </defs>
  <g id="Layer_1-2" data-name="Layer 1">
    <path class="cls-1" d="M852.14,0h.89c.29,0,.6,0,.89,0,27.58-.02,63.46,2.39,90.94,5.11,9.41.93,37.42,3.8,44.97,6.78,4.92,1.95,2.95,4.84,2.66,7.91-.37,3.94-7.15,20.72-10.38,23.84-.34.33-2.66,1.6-3.65,1.66-4.83.27-15.32-3.16-21.05-3.47-1.81-.1-11.64.46-12.27,1.27-.21.27,1.11,4.73.88,6.13-.48,2.85-3.68,7.7-3.01,10.9.03.14,1.2.31,1.23.54.09.75-1.55.75-1.68,1.3-.1.41.79,3.82,1.02,3.94,1.59.83,2.97.4,3.8.78,1.31.6,2.54,4.25,3.14,4.75.71.6,7.63,1.77,9.21,2.03,7.6,1.26,19.55,1.45,26.36,2.99.23.05,4.08,1.58,4.23,1.71,2.37,2.23-1.66,3-1.78,3.28-.11.25.83.77.73,1.09-2.13,6.35-1.73,13.88-5.94,20.08-3.73,5.49-6.44,2.47-7.33,2.89-.12.06,1.26,1.34-1.13,1.3-.99-.02-.79-.86-1.29-.89-6.23-.44-6.94-1.55-11.86-2.17-3.2-.4-5.48.39-8.18.09-1.98-.22-5.44-1.81-7.32-1.82-.27,0-4.73,1.58-4.94,1.71-2.87,1.88-.19,2.08-.25,2.94-.29,4.31-1.36,11.23-2.72,15.39-.35,1.07-4.03,9.21-4.45,9.68-1.25,1.37-13.45-.92-16.24-.88-5.94.07-2.98.85-3.36,2.97-.85,4.83-2.8,14.48-5.6,18.55s-6.51,1.13-8.28.86c-5.73-.87-12.65-1.43-18.06-2-.39-.04-2.12.96-3.52.5-1.14-.38-.58-1.45-.74-1.55-.37-.23-9.2.27-9.85.47-4.61,1.44-4.43,11.81-8.8,12.75-.95.21-17.46-1.35-19.82-1.61-1.25-.14-1.92-1.03-2.9-1.14-3.88-.42-8.59.42-11.81-.69-.25-.09.62-.7.2-.89-.13-.06-2.53.6-3.08.55-3.19-.31-3.67-1.01-8.05-.52-17.21,1.91-36.69.39-54.55-.25-.55-.02-1.51.7-2.28.54-.51-.11-.08-.91-.23-.96-.72-.23-1.2.71-2.25.52-1.37-.25-1.88-1.14-2.11-1.15-4.5-.38-9.8,1.07-12.38.98-1.71-.06-7.47-1.77-10.28-1.94-.17-.01-.76.82-3.18.78-3.63-.06-6.53-.39-9.75-.37-4.71.03-9.95.77-14.74.78-11.98.01-24.17-.59-35.77-.44-5.94.07-11.37.21-17,.29-13.5.19-27.48,1.14-40.54,1.4-2.63.05-7.12-.75-8.76-.72-.74.01-1.36.76-1.85.77-8.17.16-15.89-.33-23.56-.15-1.97.05-5.73.8-8.1.87-.83.02-4.39-.96-5.3-.93-.46.02-.97.9-1.88.93-.84.03-3.3-.58-5.18-.47-2.31.13-6.09,1.3-8.67,1.36-.73.02-2.7-.98-3.33-.59-.13.08.96,1.37-.24,1.58-.86.15-2.01-1.05-2.81-1.18-5.63-.93-4.39,1.16-5.23,1.17-.34,0-.71-1.05-1.34-1.13-3.6-.48-15.71.35-20.12.4-9.63.12-18.77-.09-28.57.83-.59.05-.9,1-1.2,1.03-9.6.9-19.61,1-29.27,1.32-10.86.36-22.57.24-33.08.41-.69.01-1.23.62-1.34.63-.41.01-.53-.98-.89-.94-.19.02-.75.77-1.47.86-1.97.27-4.22.33-6.05.78-.68.17-.96,1.06-1.44,1.19-2,.56-.55-1.19-.65-1.25-.89-.54-10.82.75-12.56.78-42.74.72-86.62,3.95-129.85,5.86-2.03.09-4.06-1.47-4.91.32-1.69-1.66-6.6-.72-9.65-.48-.82.07-.62.73-1.51.82-2.48.26-5.36-.79-6.26-.68-1.17.15-1.07,1.35-4.24,1.78-6.39.87-23.24,1.33-30.16,1.36-1.3,0-2.78-.87-4-.81s-2.97,1.38-4.12,1.48c-27.95,2.37-56.69,3.33-84.94,4.39-1.11.04-2.38-.61-3.56-.56-.89.03-1.37.92-2.26.95-3.83.14-8.17-.06-11.58.04-3.69.11-7.45.54-11.15.57-.58,0-.56-.93-.94-.92-.41,0-5.25,1.29-6.25,1.28-3.9-.05-3.36-2.28-3.88-2.5-.58-.24-5.41-.08-5.78-.21-.78-.29-2.78-5.31-3.09-6.36-.47-1.59-1.15-5.1-1.36-6.92-.1-.91,1.41-4.69,0-5.88-.55-.47-15.31.81-16.87,1.19-.86.21-.85,1.03-2.15,1.34-2.71.63-8.13-.33-10.29.12-.19.04-2.28,1.55-3.21,1.71-4.13.68-8.8-.01-11.78.23-3.72.3-13.79,2.79-16.61.82-3.2-2.25-2.53-12.84-3.03-16.32-.15-1.05-3.31-12.06-2.46-12.19.68-.1,2.33,1.04,3.36-.33-.9.74.26,2.3.68,1.89.28-.27-.55-1.14-.25-1.66.69-1.18,10.86-1.09,12.98-.87l-6.25.95c1.91.8-2.46,2.16-1.79,2.68,1.38,1.07,10.43-.8,10.72-.47.2.23-.3,1.61.23,1.58.71-.04.58-1.49.71-1.55.48-.24,9.86-1.69,11.3-1.91.33-.05.15.64.5.61.19-.02,3.67-.53,3.81-.63.62-.43-1.59-2.06,4.02-1.58l-.89.94c1.5.45,14.13-.03,14.75-.32.15-.07-.64-.85-.44-.94.36-.16,5.34,1.03,2.68-1.58,4.1-.04,8.68-.99,12.72-.97.36,0,.06.63.48.65,1.13.05.74-1.82,1.73.28l28.89-4.09c-.62-.94-3.9.03-4.26,0-2.38-.25,2.22-.79,2.38-.84.63-.17.49-.72.54-.73,1.29-.32.62,1.14,1.78.63.1-.05-.1-.92,0-.95.7-.24,3.12.96,3.36.95.19,0,.2-.58.55-.6.89-.06,3.3,0,3.47-.04.46-.1-.47-.89-.23-.94,3.27-.7,7.57-1.25,10.97-.96l-.24-.62c5.09.81,1.41-.45,3.91-.86,15.61-2.58,36.36-4.01,52.96-5.89,3.08-.35,8.63-2.29,10.42-2.44,1.27-.1.16.63.21.63,1.47-.14,3.2.15,4.69,0,9.63-.98,20.38-2.58,29.98-2.92,1.94-.07,1.66.38,1.88.37,6.49-.32,11.52-1.2,17.83-2.3.56-.1.24-.79.37-.81.74-.12,7.47-.22,4.72.59,4.43.96,7.45-1.05,11.93-1.25,1.67-.08,1.4.94,1.5.94.39-.01.9-.63,1.99-.66,1.06-.03,2.52.35,3.1.27.93-.12.69-1.09,1.84-1.23,2.41-.3,3.41,1.28,3.61,1.3,7.03.48,19.09-2.31,26.56-2.53-.77-.95-4.76.05-5.15,0-.72-.1,1.4-.66.02-1.15-1.24-.44-7.28.99-9.18.52,3.89-1.4-2.41-.67-3.13-.95-.17-.06,1.28-1.18-.44-.95,8.5-2.35-2.95-2.14-4.48-1.26-1.24.72,3.34,2.27,2.23,2.85-.62.32-9.94-.5-10.95-.49-1.6.02-4.89,1.19-6.73,1-1.04-.11-.51-1.07-1.76-1.15-.32-.02-.17.65-.48.65-3.77.03-6.22.99-9.8,1.27-4.07.32-15.11.86-18.83.52-.24-.02-1.3-1.35-1.97-1.16-.12.03.25.92-.23.97-1.7.18-5.47-.41-7.14-.28-2.23.17-5.37,1.33-8.5,1.24-2.59-.07-3.93-.94-5.38-1-.71-.03-7.44-.04-7.82.03-.07.01.07.93,0,.95-1.3.39-1.24-.68-2-.66-1.46.03-4.42.19-5.78.39-2.47.36-.34.94-2.8,1.2-10,1.07-21.28,1.56-30.73,2.56-4.67.5-16.76,2.75-20.66,2.5-.53-.04-1-.19-1.08-.6l10.73-1.27c.45-.58-2.23-.85-2.36-.85-5.52-.2-12.63,1.22-17.3,1.18l.44.62c-1.85-.43-3.71.56-5.1.66-.44.03-.24-.89-1.38-.97-.28-.02-2.6,2.16-5.15.95l.22-.64c-5.01.03-3.13,1.17-3.35,1.27-1.18.56-4.06-1.03-5.57-.65-.49.12-.14.95-.25.96-.85.14-1.92-.34-2.72-.17-.87.18-.76.83-2.08,1.06-8.4,1.45-16.39,1.15-24.33,1.84-1.25.11-3.37,1.2-3.49,1.09-.16-.14.15-1.12-.01-1.27-.11-.1-2.26,1.2-3.36.94l.14-.57-4.38.27c2.86.37-.27,1.32-.44,1.26s.27-.87-1.12-1.27c-.2-.06-2.78,2.11-2.98,2.15-1.63.32-6.91.26-9.11.4l.24.62c-4.58-.48-9.02-.04-13.62-.34-.45-.03.05,1.67-1.13-.29-.15,2.27-1.01.26-1.12.32-.77.37-.47,1.21-1.42,1.53-2.24.74-8.75-.15-9.09.06-.14.09.66.87.45.94-.41.15-2.82.11-3.07.36-.67.68.52,2.41.39,2.49-.2.12-1.58-.19-2.14.07-.3.14-.35.82-.98,1.04-2.11.73-5.84,1.4-8.06,1.74,1.23-1.24,7-3.09,6.69-4.59-.19-.91-4.69,1.04-2.47-.81,1.63-1.35,6.19.88,6.81-3.35.86-5.83-2.62-10.03-3.44-14.85-.34-1.99.99-5.59.87-6.32-.05-.28-1.25-.4-1.3-.75-1.01-6.8.97-12.18,3.56-18.63.47-1.17-2.86-2.53,3.02-3.52,2.31-.39,17.17-.76,17.98-1.35.15-.11.98-2.86.91-3-.22-.42-2.58-.69-2.24-1.11.16-.2,2.59-.25,2.68-.32.13-.1-.17-1.95-.03-2.69.25-1.3-.06-1.64.04-2.16.2-.96.95-1.62,1.15-2.28.09-.29-.84-.87-.69-1.22.1-.22,2.55-3.51,2.91-3.97s4.44-2.23,2.88-3.19c-.18-.11-5.04.23-2.85-1.62,1.68-1.42,46.22-2.17,48.92-4.23,1.18-.9,1.53-18.55,2.21-21.8.07-.35,1.29-.44,1.35-.71.05-.23-.74-3.18,0-4.58.06-.11,1.86.33,2.14-1.48.19-1.2-.17-.9.4-2.85.22-.75-.65-1.81-.56-2.01.23-.47,2.94-2.47,4.19-2.75.41-.09,3.95-.51,4.11-.41,1.11.68-2.46.78-1.78,1.58,2.17-.64,16.44-2.53,11.18,0,39.5-.37,78.82-2.58,118.26-4.04,5.93-.22,11.87-.46,17.87-.69,22.34-.84,44.7-1.88,67.05-2.26l1.37,1.61c21.27-1.1,42.66-1.1,63.96-1.9,10.21-.38,26.12-.41,35.7-1.64,4.1-.53.41-.73,1.18-1.54.18-.19,3.87-.46,4.62-.52,16.82-1.45,38.6-1.56,55.94-2.03,19.96-.54,39.93-.54,59.88-1.14,1.78.2.88,1.16,1.43,1.17,2.25.06,18.63.39,19.41-.02,1.42-.75-3.18-1.11,1.12-1.58,10.23-1.11,27.49-.79,38.5-.91,72.28-.82,144.84.41,216.79,3.77l30.19-2.87c-2.86-.26-8.79-1.04-2.23-1.9h1.79ZM429.39,6.65v.32l.22-.16-.22-.16ZM118.2,16.16v.32l.22-.16-.22-.16ZM81.53,54.18v.32l.22-.16-.22-.16ZM53.81,56.08v.32l.22-.16-.22-.16ZM18.49,126.09v.32l.22-.16-.22-.16Z"/>
  </g>
</svg>